<svg width="333" height="246" viewBox="0 0 333 246" fill="none" xmlns="http://www.w3.org/2000/svg">
<path d="M115.568 46.9377C119.672 51.7189 122.651 57.245 122.651 60.0054C122.651 61.646 121.979 62.245 118.625 63.7397C112.958 66.2033 106.396 67.8439 101.771 67.8439H97.8175L98.2655 64.8595C99.0832 58.7345 109.151 41.1877 111.167 42.3075C111.614 42.6095 113.63 44.6981 115.568 46.9377Z" fill="#F2B963"/>
<path d="M140.031 43.2033C141.969 44.2502 143.536 45.521 143.536 45.9689C143.536 47.6877 135.031 55.2241 129.661 58.3647C129.14 58.6616 127.875 57.021 126.531 54.1825C125.265 51.6408 122.203 47.0887 119.672 44.0262C117.208 40.9637 115.193 38.2762 115.193 37.9793C115.193 37.2293 117.359 34.9897 121.01 31.8543L124.219 29.1668L130.333 35.2918C133.693 38.6512 138.015 42.1616 140.031 43.2033Z" fill="#F2B963"/>
<path d="M158.453 20.7293C158.453 22.745 157.333 25.8804 154.724 31.0366C149.802 40.7397 149.354 41.2658 146.745 40.5939C143.687 39.8439 135.031 33.87 132.797 30.9585C129.739 26.9272 130.187 25.6564 135.557 23.1929C143.312 19.5366 148.531 18.1147 154.948 17.8908L158.453 17.8179V20.7293Z" fill="#F2B963"/>
<path d="M172.547 18.2658C172.771 18.4168 172.323 21.1043 171.578 24.2397C170.833 27.3752 169.64 33.5002 168.969 37.9012L167.776 45.8179L165.167 45.5939C162.255 45.37 154.724 43.3543 154.724 42.8335C154.724 42.6825 156.364 39.396 158.38 35.5887C161.734 29.1668 163.526 24.4637 164.792 19.0106C165.239 16.995 165.312 16.922 168.745 17.4429C170.682 17.745 172.401 18.1147 172.547 18.2658Z" fill="#F2B963"/>
<path d="M186.047 20.8022C189.031 22.0002 189.406 22.3752 189.552 24.6147C189.703 26.0314 188.359 31.1825 186.568 36.4845L183.437 45.8179L178.443 46.0418C174.411 46.1929 173.37 46.0418 173.37 45.146C173.37 42.7554 176.5 26.1043 177.62 22.521C178.963 18.1147 179.036 18.1147 186.047 20.8022Z" fill="#F2B963"/>
<path d="M201.036 28.047C205.588 31.1095 208.943 33.87 210.583 35.9637C211.479 37.0835 211.031 37.4533 206.109 39.8439C200.89 42.3075 190.896 45.297 190.151 44.6252C189.927 44.3231 190.896 40.8179 195.448 26.1825C195.818 24.8387 196.489 25.0627 201.036 28.047Z" fill="#F2B963"/>
<path d="M221.547 48.8075C222.594 50.8231 222.745 51.7189 222.146 52.6877C219.536 56.797 177.844 73.5939 177.844 70.4585C177.844 70.0106 179.859 65.3804 182.245 60.2293L186.719 50.896L192.161 49.5522C199.099 47.9116 208.797 44.6252 212.599 42.6095L215.51 41.0418L217.818 43.5783C219.088 44.995 220.729 47.3127 221.547 48.8075Z" fill="#F2B963"/>
<path d="M180.083 52.2397C180.083 53.2085 173.594 66.4272 172.547 67.4741C172.177 67.8439 171.875 65.2345 171.875 60.3022C171.875 55.9741 172.099 52.1668 172.401 51.9429C173.219 51.047 180.083 51.3439 180.083 52.2397Z" fill="#F2B963"/>
<path d="M159.573 49.7762L165.536 51.12V74.9377L158.005 76.8804C150.547 78.8231 133.318 81.7345 132.724 81.2137C132.573 81.0627 132.349 76.8804 132.276 72.0262C132.125 64.1877 132.198 63.1408 133.39 62.4689C135.63 61.1981 144.208 53.7345 147.114 50.521C149.281 48.0575 150.172 47.6095 151.667 47.9845C152.708 48.2814 156.292 49.1043 159.573 49.7762Z" fill="#F2B963"/>
<path d="M124.515 73.9689C124.515 77.7762 124.219 81.2866 123.995 81.7345C123.323 82.7814 103.932 84.646 96.9217 84.3491C95.505 84.271 95.354 83.8231 95.4321 79.271V74.3439L103.781 72.922C108.333 72.1773 114.823 70.5314 118.25 69.3387C121.682 68.2189 124.515 67.172 124.515 67.172V73.9689Z" fill="#F2B963"/>
<path d="M121.906 90.6929C120.713 96.0679 119.594 97.8647 117.88 97.3387C116.984 97.0418 111.614 96.6668 105.797 96.4429L95.354 96.0679L95.2082 93.2345L94.9842 90.4689L104.531 89.5731C109.75 89.1252 115.12 88.6043 116.312 88.4533C122.651 87.7814 122.578 87.7814 121.906 90.6929Z" fill="#F2B963"/>
<path d="M113.552 101.969C114.823 102.193 115.943 102.568 115.943 102.865C115.943 104.432 104.229 121.531 103.187 121.604C101.771 121.604 96.3228 106.75 96.6978 103.761C96.9217 102.12 97.3696 101.745 99.9061 101.37C102.812 100.849 108.781 101.146 113.552 101.969Z" fill="#F2B963"/>
<path d="M128.469 106.599C133.167 108.99 139.062 114.063 139.062 115.636C139.062 117.349 127.13 133.328 122.427 137.886L119.146 141.172L116.536 138.854C112.437 135.271 107.734 128.776 107.734 126.761C107.734 125.641 109.901 121.828 112.807 117.651C115.568 113.693 118.698 108.99 119.818 107.12C122.057 103.313 122.13 103.313 128.469 106.599Z" fill="#F2B963"/>
<path d="M147.786 123.625C152.635 130.714 154.724 134.672 154.651 136.99C154.651 138.854 154.052 139.453 150.323 141.245C148.01 142.438 143.76 145.203 141 147.443L135.927 151.474L131.526 149.162C129.14 147.891 126.604 146.172 125.932 145.427C124.667 144.005 124.667 143.86 126.083 142.141C126.828 141.172 131.229 135.646 135.703 129.896C140.255 124.073 144.13 119.365 144.354 119.365C144.578 119.365 146.146 121.307 147.786 123.625Z" fill="#F2B963"/>
<path d="M160.318 149.682C162.255 157.151 162.333 157 155.693 156.479C150.026 156.026 142.792 154.089 142.792 153.042C142.792 152.073 149.875 147.068 153.979 145.203C158.677 143.037 158.526 142.964 160.318 149.682Z" fill="#F2B963"/>
<path d="M174.489 148.49C174.489 156.552 174.411 156.703 169.568 156.703C167.703 156.703 167.552 156.328 165.911 149.61C164.943 145.651 164.344 142.292 164.568 142.141C165.239 141.469 171.354 140.573 172.995 140.87C174.411 141.094 174.489 141.693 174.489 148.49Z" fill="#F2B963"/>
<path d="M190.521 144.453C196.64 147.141 197.161 147.964 194.104 149.833C191.495 151.401 183.14 154.458 181.276 154.458C180.453 154.458 180.229 153.266 180.229 149.386C180.229 142.068 180.453 141.542 183.51 141.99C184.854 142.214 188.062 143.334 190.521 144.453Z" fill="#F2B963"/>
<path d="M170.76 87.7814C172.25 92.8595 177.396 103.61 180.75 108.391C183.588 112.573 183.661 114.063 180.901 121.011C179.708 123.995 178.14 128.552 177.469 131.016L176.203 135.568L170.161 136.016C166.807 136.24 163.526 136.615 162.854 136.839C162.031 137.214 161.286 136.318 159.87 133.406C158.901 131.24 156.14 126.537 153.828 122.875C151.443 119.292 149.5 115.557 149.5 114.516C149.5 113.469 151.89 109.287 155.172 104.656C158.229 100.25 162.63 93.6825 164.943 90.021C167.177 86.4377 169.12 83.5262 169.265 83.5262C169.417 83.5262 170.088 85.4689 170.76 87.7814Z" fill="#F2B963"/>
<path d="M231.542 90.0991C231.542 103.761 230.422 109.214 225.5 118.995C222.37 125.115 217.073 132.807 215.953 132.807C214.911 132.807 200.963 122.13 196.713 118.099C193.88 115.485 192.76 113.839 192.76 112.495C192.76 108.318 203.724 95.172 213.12 88.0054C216.927 85.1668 229.453 78.3752 231.021 78.297C231.318 78.297 231.542 83.5991 231.542 90.0991Z" fill="#F2B963"/>
<path d="M204.469 131.162C207.828 133.703 210.807 136.167 211.031 136.615C211.63 137.583 209.245 140.276 205.364 142.964L202.531 144.901L195.969 141.542C192.385 139.677 187.989 137.735 186.271 137.214C183.213 136.318 183.062 136.167 183.062 133.479C183.062 130.865 185.526 123.177 187.542 119.365C188.286 117.948 188.583 118.021 193.359 122.203C196.114 124.594 201.114 128.625 204.469 131.162Z" fill="#F2B963"/>
<path d="M155.172 95.3231C150.922 101.745 146.594 108.016 145.552 109.214L143.76 111.375L139.656 108.016C137.422 106.151 133.469 103.537 130.932 102.12C125.708 99.2085 125.489 98.5366 127.948 91.6668L129.515 87.3335L134.885 86.5106C137.792 85.9897 145.25 84.7189 151.364 83.5991C160.542 81.8856 162.63 81.7345 162.776 82.5575C162.927 83.1512 159.495 88.9012 155.172 95.3231Z" fill="#F2B963"/>
<path d="M228.114 61.646C228.781 63.5887 229.307 66.8752 229.307 68.9637V72.7762L225.802 74.4897C217.521 78.4481 207.229 86.0627 199.698 93.7554C195.521 98.0106 191.193 103.016 190 104.807C188.88 106.672 187.687 108.167 187.39 108.167C186.646 108.167 182.021 100.25 178.89 93.6825C176.651 88.9012 176.13 86.9585 176.052 83.0054L175.979 78.1512L186.792 74.2658C201.036 69.0418 211.109 64.9325 218.792 61.1981C222.297 59.4845 225.5 58.1408 226.026 58.1408C226.547 58.1408 227.443 59.7085 228.114 61.646Z" fill="#F2B963"/>
<path d="M0.186279 204.694V178.048H5.83211V204.694H0.186279Z" fill="#0097D7"/>
<path d="M40.1602 204.694H32.9727L21.3894 184.527H21.2227C21.4415 188.1 21.5561 190.642 21.5561 192.152V204.694H16.5144V178.048H23.6394L35.2227 198.006H35.3477C35.1654 194.537 35.0769 192.084 35.0769 190.652V178.048H40.1602V204.694Z" fill="#0097D7"/>
<path d="M66.8247 197.298C66.8247 199.704 65.9549 201.6 64.2205 202.986C62.4966 204.376 60.0903 205.069 57.0122 205.069C54.1632 205.069 51.6424 204.527 49.4497 203.444V198.194C51.2518 199.001 52.7726 199.574 54.0122 199.902C55.257 200.225 56.408 200.382 57.4497 200.382C58.6841 200.382 59.6268 200.147 60.283 199.673C60.9445 199.204 61.283 198.501 61.283 197.569C61.283 197.043 61.132 196.579 60.8455 196.173C60.5539 195.772 60.1216 195.382 59.5539 195.007C58.9966 194.621 57.8507 194.017 56.1164 193.194C54.4757 192.434 53.2466 191.694 52.4289 190.986C51.6216 190.283 50.9757 189.46 50.4914 188.527C50.0018 187.585 49.7622 186.486 49.7622 185.236C49.7622 182.892 50.5591 181.043 52.158 179.694C53.7518 178.335 55.9601 177.652 58.783 177.652C60.1685 177.652 61.4914 177.824 62.7414 178.152C64.0018 178.486 65.3247 178.949 66.6997 179.527L64.8872 183.923C63.4549 183.345 62.2726 182.939 61.3455 182.715C60.4132 182.48 59.5018 182.361 58.6164 182.361C57.5435 182.361 56.7153 182.616 56.1372 183.111C55.5643 183.611 55.283 184.267 55.283 185.069C55.283 185.559 55.3976 185.991 55.6372 186.361C55.8716 186.736 56.2414 187.1 56.7414 187.444C57.2362 187.793 58.4341 188.413 60.3247 189.298C62.8091 190.496 64.5122 191.699 65.4289 192.902C66.356 194.1 66.8247 195.564 66.8247 197.298Z" fill="#0097D7"/>
<path d="M81.3917 190.59H83.2667C85.0011 190.59 86.2979 190.251 87.1625 189.569C88.0219 188.876 88.4542 187.871 88.4542 186.548C88.4542 185.23 88.0896 184.256 87.3708 183.631C86.6469 182.996 85.5115 182.673 83.975 182.673H81.3917V190.59ZM94.1625 186.36C94.1625 189.225 93.2615 191.418 91.475 192.944C89.6834 194.459 87.1313 195.215 83.8292 195.215H81.3917V204.694H75.7458V178.048H84.2667C87.4854 178.048 89.9386 178.746 91.6209 180.131C93.3136 181.522 94.1625 183.6 94.1625 186.36Z" fill="#0097D7"/>
<path d="M103.318 204.694V178.048H108.964V204.694H103.318Z" fill="#0097D7"/>
<path d="M125.292 189.881H127.125C128.901 189.881 130.214 189.584 131.063 188.985C131.922 188.392 132.354 187.454 132.354 186.173C132.354 184.912 131.912 184.017 131.042 183.485C130.177 182.949 128.839 182.673 127.021 182.673H125.292V189.881ZM125.292 194.465V204.694H119.646V178.048H127.417C131.037 178.048 133.719 178.709 135.458 180.027C137.193 181.35 138.063 183.35 138.063 186.027C138.063 187.6 137.63 188.996 136.771 190.215C135.906 191.438 134.682 192.397 133.104 193.09C137.115 199.079 139.729 202.949 140.938 204.694H134.667L128.313 194.465H125.292Z" fill="#0097D7"/>
<path d="M163.793 204.694H148.439V178.048H163.793V182.673H154.085V188.527H163.106V193.152H154.085V200.027H163.793V204.694Z" fill="#0097D7"/>
<path d="M195.545 191.11C195.545 195.501 194.289 198.866 191.795 201.194C189.305 203.527 185.701 204.694 180.982 204.694H173.44V178.048H181.815C186.159 178.048 189.534 179.199 191.94 181.485C194.341 183.777 195.545 186.991 195.545 191.11ZM189.69 191.256C189.69 185.537 187.159 182.673 182.107 182.673H179.086V200.027H181.524C186.966 200.027 189.69 197.105 189.69 191.256Z" fill="#0097D7"/>
<path d="M222.035 204.694H203.41V200.777L210.098 194.007C212.082 191.98 213.374 190.579 213.973 189.798C214.582 189.012 215.02 188.277 215.285 187.611C215.561 186.949 215.702 186.251 215.702 185.527C215.702 184.46 215.4 183.668 214.806 183.152C214.223 182.626 213.436 182.361 212.452 182.361C211.41 182.361 210.4 182.6 209.431 183.069C208.457 183.543 207.441 184.22 206.389 185.09L203.327 181.465C204.645 180.355 205.733 179.569 206.598 179.111C207.457 178.642 208.395 178.277 209.41 178.027C210.436 177.783 211.582 177.652 212.848 177.652C214.509 177.652 215.983 177.96 217.264 178.569C218.54 179.184 219.525 180.038 220.223 181.132C220.926 182.215 221.285 183.47 221.285 184.882C221.285 186.105 221.066 187.262 220.639 188.34C220.207 189.413 219.54 190.517 218.639 191.652C217.733 192.777 216.134 194.387 213.848 196.465L210.431 199.694V199.944H222.035V204.694Z" fill="#F2B963"/>
<path d="M241.983 182.361C239.858 182.361 238.207 183.163 237.046 184.757C235.879 186.355 235.296 188.585 235.296 191.444C235.296 197.392 237.525 200.361 241.983 200.361C243.853 200.361 246.129 199.892 248.796 198.944V203.694C246.598 204.611 244.155 205.069 241.462 205.069C237.587 205.069 234.619 203.897 232.566 201.548C230.509 199.189 229.483 195.809 229.483 191.402C229.483 188.642 229.983 186.215 230.983 184.132C231.994 182.038 233.447 180.434 235.337 179.319C237.238 178.21 239.452 177.652 241.983 177.652C244.577 177.652 247.181 178.283 249.796 179.527L247.962 184.132C246.973 183.663 245.973 183.251 244.962 182.902C243.947 182.543 242.952 182.361 241.983 182.361Z" fill="#0097D7"/>
<path d="M274.907 204.694L272.969 198.34H263.261L261.323 204.694H255.24L264.657 177.923H271.552L280.99 204.694H274.907ZM271.636 193.61C269.844 187.866 268.834 184.61 268.615 183.86C268.391 183.116 268.23 182.517 268.136 182.069C267.73 183.626 266.579 187.475 264.677 193.61H271.636Z" fill="#0097D7"/>
<path d="M294.161 189.881H295.994C297.77 189.881 299.083 189.584 299.932 188.985C300.791 188.392 301.223 187.454 301.223 186.173C301.223 184.912 300.781 184.017 299.911 183.485C299.046 182.949 297.708 182.673 295.89 182.673H294.161V189.881ZM294.161 194.465V204.694H288.515V178.048H296.286C299.906 178.048 302.588 178.709 304.328 180.027C306.062 181.35 306.932 183.35 306.932 186.027C306.932 187.6 306.5 188.996 305.64 190.215C304.776 191.438 303.552 192.397 301.973 193.09C305.984 199.079 308.598 202.949 309.807 204.694H303.536L297.182 194.465H294.161Z" fill="#0097D7"/>
<path d="M332.662 204.694H317.308V178.048H332.662V182.673H322.954V188.527H331.975V193.152H322.954V200.027H332.662V204.694Z" fill="#0097D7"/>
<path d="M21.6145 245.298C21.0208 245.298 20.4999 245.23 20.052 245.111V242.923C20.5103 243.033 20.9322 243.09 21.302 243.09C21.8697 243.09 22.2812 242.908 22.5312 242.548C22.776 242.184 22.9062 241.632 22.9062 240.882V229.277H25.5312V240.861C25.5312 242.303 25.1926 243.402 24.5312 244.152C23.8749 244.913 22.901 245.298 21.6145 245.298Z" fill="#F2B963"/>
<path d="M34.0583 231.277C33.0688 231.277 32.3031 231.657 31.7667 232.402C31.225 233.142 30.9542 234.178 30.9542 235.506C30.9542 238.256 31.9854 239.631 34.0583 239.631C34.9281 239.631 35.9854 239.418 37.225 238.985V241.194C36.1938 241.61 35.0531 241.819 33.8083 241.819C32.0167 241.819 30.6365 241.277 29.6833 240.194C28.725 239.1 28.2458 237.527 28.2458 235.485C28.2458 234.199 28.4802 233.069 28.9542 232.11C29.4229 231.142 30.1 230.397 30.975 229.881C31.8448 229.371 32.8761 229.11 34.0583 229.11C35.2615 229.11 36.475 229.397 37.6833 229.965L36.8292 232.11C36.3708 231.892 35.9021 231.694 35.4333 231.527C34.975 231.366 34.5115 231.277 34.0583 231.277Z" fill="#F2B963"/>
<path d="M40.1685 241.652V229.277H42.7935V241.652H40.1685Z" fill="#F2B963"/>
<path d="M57.8267 241.652H50.7017V229.277H57.8267V231.423H53.3267V234.152H57.5142V236.298H53.3267V239.486H57.8267V241.652Z" fill="#F2B963"/>
<path d="M67.1865 241.652L66.8324 240.444H66.7074C66.4261 240.892 66.0303 241.23 65.5199 241.465C65.0199 241.699 64.4417 241.819 63.7907 241.819C62.6761 241.819 61.8376 241.522 61.2699 240.923C60.7126 240.329 60.4365 239.475 60.4365 238.361V232.194H62.999V237.715C62.999 238.397 63.1136 238.913 63.3532 239.256C63.598 239.59 63.999 239.756 64.5407 239.756C65.2594 239.756 65.7803 239.522 66.1032 239.048C66.4209 238.564 66.5824 237.756 66.5824 236.631V232.194H69.1657V241.652H67.1865Z" fill="#F2B963"/>
<path d="M77.487 232.006C77.8307 232.006 78.1172 232.038 78.3411 232.09L78.1536 234.506C77.9453 234.454 77.6849 234.423 77.3828 234.423C76.5599 234.423 75.9193 234.642 75.4661 235.069C75.0078 235.486 74.7786 236.079 74.7786 236.84V241.652H72.1953V232.194H74.1536L74.5286 233.777H74.6536C74.9401 233.251 75.3411 232.829 75.8411 232.506C76.3359 232.178 76.888 232.006 77.487 232.006Z" fill="#F2B963"/>
<path d="M82.3536 236.902C82.3536 237.85 82.5046 238.564 82.8119 239.048C83.114 239.522 83.614 239.756 84.3119 239.756C85.0046 239.756 85.4994 239.522 85.7911 239.048C86.0932 238.564 86.2494 237.85 86.2494 236.902C86.2494 235.975 86.0932 235.272 85.7911 234.798C85.4838 234.329 84.9838 234.09 84.2911 234.09C83.6088 234.09 83.114 234.329 82.8119 234.798C82.5046 235.256 82.3536 235.959 82.3536 236.902ZM88.8953 236.902C88.8953 238.444 88.4838 239.657 87.6661 240.527C86.8588 241.392 85.7234 241.819 84.2703 241.819C83.364 241.819 82.5671 241.626 81.8744 241.236C81.1765 240.834 80.6401 240.267 80.2703 239.527C79.8953 238.782 79.7078 237.902 79.7078 236.902C79.7078 235.366 80.1088 234.163 80.9161 233.298C81.7338 232.439 82.8744 232.006 84.3328 232.006C85.2338 232.006 86.0307 232.209 86.7286 232.611C87.4213 233.001 87.9578 233.574 88.3328 234.319C88.7026 235.058 88.8953 235.918 88.8953 236.902Z" fill="#F2B963"/>
<path d="M96.5166 241.819C95.402 241.819 94.5322 241.418 93.9124 240.611H93.7666C93.8604 241.402 93.9124 241.861 93.9124 241.986V245.819H91.3291V232.194H93.4333L93.7874 233.423H93.9124C94.5062 232.48 95.402 232.006 96.5999 232.006C97.7093 232.006 98.5791 232.449 99.2041 233.319C99.8395 234.183 100.162 235.376 100.162 236.902C100.162 237.918 100.006 238.803 99.7041 239.548C99.4124 240.288 98.9906 240.85 98.4541 241.236C97.9124 241.626 97.2614 241.819 96.5166 241.819ZM95.7666 234.069C95.126 234.069 94.6572 234.272 94.3708 234.673C94.0791 235.064 93.9229 235.709 93.9124 236.611V236.881C93.9124 237.897 94.0583 238.626 94.3499 239.069C94.652 239.517 95.1416 239.736 95.8083 239.736C96.9593 239.736 97.5374 238.777 97.5374 236.861C97.5374 235.933 97.3864 235.236 97.0999 234.777C96.8187 234.308 96.376 234.069 95.7666 234.069Z" fill="#F2B963"/>
<path d="M106.528 233.84C105.986 233.84 105.554 234.017 105.236 234.361C104.929 234.709 104.752 235.204 104.715 235.84H108.34C108.325 235.204 108.158 234.709 107.84 234.361C107.517 234.017 107.08 233.84 106.528 233.84ZM106.903 241.819C105.372 241.819 104.179 241.402 103.319 240.569C102.455 239.725 102.028 238.527 102.028 236.986C102.028 235.407 102.424 234.183 103.215 233.319C104.017 232.449 105.116 232.006 106.507 232.006C107.851 232.006 108.892 232.392 109.632 233.152C110.377 233.918 110.757 234.975 110.757 236.319V237.569H104.653C104.679 238.308 104.892 238.887 105.299 239.298C105.7 239.704 106.267 239.902 107.007 239.902C107.575 239.902 108.111 239.85 108.611 239.736C109.122 239.616 109.658 239.418 110.215 239.152V241.152C109.767 241.376 109.288 241.543 108.778 241.652C108.262 241.762 107.637 241.819 106.903 241.819Z" fill="#F2B963"/>
<path d="M119.144 241.652L118.644 240.36H118.582C118.149 240.918 117.702 241.303 117.248 241.506C116.79 241.709 116.191 241.819 115.457 241.819C114.54 241.819 113.816 241.563 113.29 241.048C112.774 240.522 112.519 239.777 112.519 238.819C112.519 237.824 112.863 237.084 113.561 236.61C114.264 236.126 115.332 235.86 116.748 235.819L118.394 235.756V235.34C118.394 234.386 117.899 233.902 116.915 233.902C116.165 233.902 115.274 234.136 114.248 234.59L113.394 232.84C114.488 232.272 115.696 231.985 117.019 231.985C118.28 231.985 119.254 232.267 119.936 232.819C120.613 233.376 120.957 234.22 120.957 235.34V241.652H119.144ZM118.394 237.277L117.394 237.298C116.644 237.329 116.077 237.47 115.707 237.715C115.342 237.965 115.165 238.345 115.165 238.84C115.165 239.579 115.582 239.944 116.415 239.944C117.009 239.944 117.488 239.772 117.853 239.423C118.212 239.079 118.394 238.621 118.394 238.048V237.277Z" fill="#F2B963"/>
<path d="M132.642 241.652H130.058V236.131C130.058 235.454 129.928 234.939 129.683 234.59C129.444 234.246 129.064 234.069 128.538 234.069C127.814 234.069 127.293 234.314 126.975 234.798C126.652 235.288 126.496 236.084 126.496 237.194V241.652H123.913V232.194H125.892L126.225 233.402H126.371C126.657 232.949 127.058 232.6 127.558 232.361C128.069 232.126 128.647 232.006 129.288 232.006C130.381 232.006 131.215 232.308 131.788 232.902C132.355 233.501 132.642 234.366 132.642 235.486V241.652Z" fill="#F2B963"/>
<path d="M143.094 235.111H143.948C144.75 235.111 145.355 234.954 145.761 234.632C146.162 234.314 146.365 233.85 146.365 233.236C146.365 232.616 146.193 232.152 145.865 231.861C145.532 231.574 145 231.423 144.282 231.423H143.094V235.111ZM149.011 233.132C149.011 234.465 148.589 235.491 147.761 236.194C146.928 236.902 145.745 237.257 144.219 237.257H143.094V241.652H140.469V229.277H144.407C145.917 229.277 147.063 229.605 147.844 230.257C148.62 230.897 149.011 231.855 149.011 233.132Z" fill="#F2B963"/>
<path d="M156.747 232.006C157.091 232.006 157.377 232.038 157.601 232.09L157.414 234.506C157.206 234.454 156.945 234.423 156.643 234.423C155.82 234.423 155.18 234.642 154.726 235.069C154.268 235.486 154.039 236.079 154.039 236.84V241.652H151.456V232.194H153.414L153.789 233.777H153.914C154.2 233.251 154.601 232.829 155.101 232.506C155.596 232.178 156.148 232.006 156.747 232.006Z" fill="#F2B963"/>
<path d="M163.468 233.84C162.926 233.84 162.494 234.017 162.176 234.361C161.869 234.709 161.692 235.204 161.656 235.84H165.281C165.265 235.204 165.098 234.709 164.781 234.361C164.458 234.017 164.02 233.84 163.468 233.84ZM163.843 241.819C162.312 241.819 161.119 241.402 160.26 240.569C159.395 239.725 158.968 238.527 158.968 236.986C158.968 235.407 159.364 234.183 160.156 233.319C160.958 232.449 162.057 232.006 163.447 232.006C164.791 232.006 165.833 232.392 166.572 233.152C167.317 233.918 167.697 234.975 167.697 236.319V237.569H161.593C161.619 238.308 161.833 238.887 162.239 239.298C162.64 239.704 163.208 239.902 163.947 239.902C164.515 239.902 165.051 239.85 165.551 239.736C166.062 239.616 166.598 239.418 167.156 239.152V241.152C166.708 241.376 166.228 241.543 165.718 241.652C165.202 241.762 164.577 241.819 163.843 241.819Z" fill="#F2B963"/>
<path d="M176.689 238.84C176.689 239.814 176.345 240.558 175.668 241.069C175.001 241.569 173.991 241.819 172.647 241.819C171.965 241.819 171.381 241.767 170.897 241.673C170.407 241.595 169.949 241.459 169.522 241.277V239.131C170.006 239.371 170.548 239.564 171.147 239.715C171.741 239.871 172.272 239.944 172.73 239.944C173.673 239.944 174.147 239.673 174.147 239.131C174.147 238.928 174.079 238.756 173.96 238.631C173.835 238.512 173.616 238.361 173.314 238.194C173.006 238.032 172.595 237.84 172.085 237.631C171.361 237.329 170.824 237.048 170.48 236.798C170.147 236.538 169.892 236.236 169.73 235.902C169.574 235.558 169.501 235.142 169.501 234.652C169.501 233.808 169.824 233.152 170.48 232.694C171.131 232.241 172.053 232.006 173.251 232.006C174.387 232.006 175.501 232.262 176.585 232.756L175.814 234.611C175.34 234.418 174.892 234.256 174.48 234.131C174.064 233.996 173.637 233.923 173.21 233.923C172.444 233.923 172.064 234.137 172.064 234.548C172.064 234.772 172.189 234.975 172.439 235.152C172.684 235.319 173.23 235.574 174.064 235.902C174.798 236.194 175.335 236.475 175.668 236.736C176.012 237.001 176.272 237.303 176.439 237.631C176.6 237.965 176.689 238.371 176.689 238.84Z" fill="#F2B963"/>
<path d="M178.842 229.735C178.842 228.907 179.306 228.485 180.238 228.485C181.181 228.485 181.655 228.907 181.655 229.735C181.655 230.142 181.535 230.454 181.301 230.673C181.061 230.897 180.707 231.006 180.238 231.006C179.306 231.006 178.842 230.584 178.842 229.735ZM181.53 241.652H178.946V232.194H181.53V241.652Z" fill="#F2B963"/>
<path d="M187.387 241.819C186.272 241.819 185.397 241.392 184.762 240.527C184.121 239.668 183.804 238.475 183.804 236.944C183.804 235.392 184.121 234.183 184.762 233.319C185.413 232.449 186.309 232.006 187.45 232.006C188.642 232.006 189.554 232.475 190.179 233.402H190.262C190.137 232.699 190.075 232.063 190.075 231.506V228.485H192.658V241.652H190.679L190.179 240.423H190.075C189.476 241.355 188.58 241.819 187.387 241.819ZM188.283 239.756C188.944 239.756 189.434 239.569 189.741 239.194C190.043 238.808 190.21 238.152 190.241 237.235V236.965C190.241 235.938 190.08 235.209 189.762 234.777C189.455 234.334 188.944 234.11 188.241 234.11C187.668 234.11 187.226 234.355 186.908 234.84C186.585 235.329 186.429 236.037 186.429 236.965C186.429 237.897 186.585 238.6 186.908 239.069C187.226 239.527 187.684 239.756 188.283 239.756Z" fill="#F2B963"/>
<path d="M199.586 233.84C199.044 233.84 198.612 234.017 198.294 234.361C197.987 234.709 197.81 235.204 197.773 235.84H201.398C201.383 235.204 201.216 234.709 200.898 234.361C200.575 234.017 200.138 233.84 199.586 233.84ZM199.961 241.819C198.429 241.819 197.237 241.402 196.377 240.569C195.513 239.725 195.086 238.527 195.086 236.986C195.086 235.407 195.482 234.183 196.273 233.319C197.075 232.449 198.174 232.006 199.565 232.006C200.909 232.006 201.95 232.392 202.69 233.152C203.435 233.918 203.815 234.975 203.815 236.319V237.569H197.711C197.737 238.308 197.95 238.887 198.357 239.298C198.758 239.704 199.325 239.902 200.065 239.902C200.633 239.902 201.169 239.85 201.669 239.736C202.179 239.616 202.716 239.418 203.273 239.152V241.152C202.825 241.376 202.346 241.543 201.836 241.652C201.32 241.762 200.695 241.819 199.961 241.819Z" fill="#F2B963"/>
<path d="M214.931 241.652H212.348V236.131C212.348 235.454 212.218 234.939 211.973 234.59C211.733 234.246 211.353 234.069 210.827 234.069C210.103 234.069 209.582 234.314 209.265 234.798C208.942 235.288 208.785 236.084 208.785 237.194V241.652H206.202V232.194H208.181L208.515 233.402H208.66C208.947 232.949 209.348 232.6 209.848 232.361C210.358 232.126 210.937 232.006 211.577 232.006C212.671 232.006 213.504 232.308 214.077 232.902C214.645 233.501 214.931 234.366 214.931 235.486V241.652Z" fill="#F2B963"/>
<path d="M221.898 239.756C222.352 239.756 222.898 239.662 223.523 239.465V241.381C222.883 241.668 222.096 241.819 221.169 241.819C220.128 241.819 219.367 241.563 218.898 241.048C218.424 240.522 218.19 239.735 218.19 238.694V234.131H216.961V233.027L218.378 232.173L219.128 230.173H220.773V232.194H223.419V234.131H220.773V238.694C220.773 239.058 220.878 239.329 221.086 239.506C221.289 239.673 221.565 239.756 221.898 239.756Z" fill="#F2B963"/>
<path d="M232.262 238.84C232.262 239.814 231.919 240.558 231.242 241.069C230.575 241.569 229.565 241.819 228.221 241.819C227.538 241.819 226.955 241.767 226.471 241.673C225.981 241.595 225.523 241.459 225.096 241.277V239.131C225.58 239.371 226.122 239.564 226.721 239.715C227.315 239.871 227.846 239.944 228.304 239.944C229.247 239.944 229.721 239.673 229.721 239.131C229.721 238.928 229.653 238.756 229.533 238.631C229.408 238.512 229.19 238.361 228.887 238.194C228.58 238.032 228.169 237.84 227.658 237.631C226.934 237.329 226.398 237.048 226.054 236.798C225.721 236.538 225.466 236.236 225.304 235.902C225.148 235.558 225.075 235.142 225.075 234.652C225.075 233.808 225.398 233.152 226.054 232.694C226.705 232.241 227.627 232.006 228.825 232.006C229.96 232.006 231.075 232.262 232.158 232.756L231.387 234.611C230.913 234.418 230.466 234.256 230.054 234.131C229.637 233.996 229.21 233.923 228.783 233.923C228.018 233.923 227.637 234.137 227.637 234.548C227.637 234.772 227.762 234.975 228.012 235.152C228.257 235.319 228.804 235.574 229.637 235.902C230.372 236.194 230.908 236.475 231.242 236.736C231.585 237.001 231.846 237.303 232.012 237.631C232.174 237.965 232.262 238.371 232.262 238.84Z" fill="#F2B963"/>
<path d="M244.589 241.652L241.609 231.944H241.547C241.641 233.918 241.693 235.241 241.693 235.902V241.652H239.359V229.277H242.922L245.859 238.736H245.901L249.005 229.277H252.589V241.652H250.13V235.798C250.13 235.522 250.135 235.204 250.151 234.84C250.161 234.48 250.198 233.522 250.255 231.965H250.193L247.005 241.652H244.589Z" fill="#F2B963"/>
<path d="M259.877 233.84C259.336 233.84 258.903 234.017 258.586 234.361C258.278 234.709 258.101 235.204 258.065 235.84H261.69C261.674 235.204 261.508 234.709 261.19 234.361C260.867 234.017 260.43 233.84 259.877 233.84ZM260.252 241.819C258.721 241.819 257.528 241.402 256.669 240.569C255.805 239.725 255.377 238.527 255.377 236.986C255.377 235.407 255.773 234.183 256.565 233.319C257.367 232.449 258.466 232.006 259.857 232.006C261.2 232.006 262.242 232.392 262.982 233.152C263.726 233.918 264.107 234.975 264.107 236.319V237.569H258.002C258.028 238.308 258.242 238.887 258.648 239.298C259.049 239.704 259.617 239.902 260.357 239.902C260.924 239.902 261.461 239.85 261.961 239.736C262.471 239.616 263.008 239.418 263.565 239.152V241.152C263.117 241.376 262.638 241.543 262.127 241.652C261.612 241.762 260.987 241.819 260.252 241.819Z" fill="#F2B963"/>
<path d="M270.411 233.84C269.869 233.84 269.437 234.017 269.119 234.361C268.812 234.709 268.635 235.204 268.598 235.84H272.223C272.208 235.204 272.041 234.709 271.723 234.361C271.4 234.017 270.963 233.84 270.411 233.84ZM270.786 241.819C269.254 241.819 268.062 241.402 267.202 240.569C266.338 239.725 265.911 238.527 265.911 236.986C265.911 235.407 266.306 234.183 267.098 233.319C267.9 232.449 268.999 232.006 270.39 232.006C271.734 232.006 272.775 232.392 273.515 233.152C274.26 233.918 274.64 234.975 274.64 236.319V237.569H268.536C268.562 238.308 268.775 238.887 269.181 239.298C269.583 239.704 270.15 239.902 270.89 239.902C271.458 239.902 271.994 239.85 272.494 239.736C273.004 239.616 273.541 239.418 274.098 239.152V241.152C273.65 241.376 273.171 241.543 272.661 241.652C272.145 241.762 271.52 241.819 270.786 241.819Z" fill="#F2B963"/>
<path d="M281.006 239.756C281.459 239.756 282.006 239.662 282.631 239.465V241.381C281.991 241.668 281.204 241.819 280.277 241.819C279.236 241.819 278.475 241.563 278.006 241.048C277.532 240.522 277.298 239.735 277.298 238.694V234.131H276.069V233.027L277.486 232.173L278.236 230.173H279.881V232.194H282.527V234.131H279.881V238.694C279.881 239.058 279.986 239.329 280.194 239.506C280.397 239.673 280.673 239.756 281.006 239.756Z" fill="#F2B963"/>
<path d="M284.662 229.735C284.662 228.907 285.125 228.485 286.058 228.485C287 228.485 287.474 228.907 287.474 229.735C287.474 230.142 287.355 230.454 287.12 230.673C286.881 230.897 286.526 231.006 286.058 231.006C285.125 231.006 284.662 230.584 284.662 229.735ZM287.349 241.652H284.766V232.194H287.349V241.652Z" fill="#F2B963"/>
<path d="M298.936 241.652H296.353V236.131C296.353 235.454 296.222 234.939 295.978 234.59C295.738 234.246 295.358 234.069 294.832 234.069C294.108 234.069 293.587 234.314 293.269 234.798C292.946 235.288 292.79 236.084 292.79 237.194V241.652H290.207V232.194H292.186L292.519 233.402H292.665C292.952 232.949 293.353 232.6 293.853 232.361C294.363 232.126 294.941 232.006 295.582 232.006C296.676 232.006 297.509 232.308 298.082 232.902C298.649 233.501 298.936 234.366 298.936 235.486V241.652Z" fill="#F2B963"/>
<path d="M310.153 232.194V233.506L308.674 233.881C308.95 234.314 309.09 234.788 309.09 235.298C309.09 236.314 308.731 237.105 308.028 237.673C307.32 238.246 306.33 238.527 305.07 238.527L304.611 238.506L304.236 238.465C303.955 238.663 303.82 238.887 303.82 239.131C303.82 239.506 304.299 239.694 305.257 239.694H306.861C307.898 239.694 308.695 239.918 309.236 240.361C309.773 240.808 310.049 241.47 310.049 242.34C310.049 243.433 309.58 244.288 308.653 244.902C307.736 245.512 306.413 245.819 304.695 245.819C303.372 245.819 302.356 245.584 301.653 245.131C300.955 244.673 300.611 244.022 300.611 243.194C300.611 242.621 300.788 242.142 301.153 241.756C301.512 241.387 302.033 241.111 302.715 240.944C302.45 240.834 302.221 240.652 302.028 240.402C301.83 240.142 301.736 239.861 301.736 239.569C301.736 239.209 301.84 238.913 302.049 238.673C302.252 238.439 302.554 238.204 302.945 237.965C302.445 237.746 302.044 237.397 301.757 236.923C301.476 236.454 301.34 235.897 301.34 235.256C301.34 234.23 301.674 233.433 302.34 232.861C303.002 232.293 303.965 232.006 305.215 232.006C305.476 232.006 305.788 232.038 306.153 232.09C306.523 232.131 306.762 232.168 306.861 232.194H310.153ZM302.861 242.986C302.861 243.345 303.028 243.621 303.361 243.819C303.705 244.022 304.184 244.131 304.799 244.131C305.726 244.131 306.45 243.996 306.965 243.736C307.492 243.486 307.757 243.142 307.757 242.715C307.757 242.35 307.601 242.1 307.299 241.965C306.992 241.84 306.512 241.777 305.861 241.777H304.528C304.054 241.777 303.658 241.887 303.34 242.111C303.018 242.329 302.861 242.621 302.861 242.986ZM303.799 235.277C303.799 235.793 303.913 236.204 304.153 236.506C304.387 236.814 304.742 236.965 305.215 236.965C305.7 236.965 306.054 236.814 306.278 236.506C306.497 236.204 306.611 235.793 306.611 235.277C306.611 234.142 306.143 233.569 305.215 233.569C304.268 233.569 303.799 234.142 303.799 235.277Z" fill="#F2B963"/>
<path d="M31.4011 147.825H32.0678C32.6876 147.825 33.1563 147.71 33.4636 147.471C33.7657 147.226 33.922 146.861 33.922 146.387C33.922 145.919 33.7865 145.57 33.5261 145.346C33.2761 145.111 32.8699 144.992 32.3178 144.992H31.4011V147.825ZM35.9636 146.325C35.9636 147.34 35.6407 148.122 35.0053 148.658C34.3647 149.2 33.4532 149.471 32.2761 149.471H31.4011V152.867H29.4011V143.346H32.422C33.5834 143.346 34.4688 143.601 35.0678 144.096C35.6615 144.596 35.9636 145.34 35.9636 146.325Z" fill="#0097D7"/>
<path d="M40.0842 147.575H40.7509C41.3863 147.575 41.8551 147.471 42.1467 147.262C42.4488 147.044 42.6051 146.7 42.6051 146.242C42.6051 145.799 42.4488 145.481 42.1467 145.283C41.8394 145.09 41.3603 144.992 40.7092 144.992H40.0842V147.575ZM40.0842 149.221V152.867H38.0842V143.346H40.8551C42.1415 143.346 43.0946 143.585 43.7092 144.054C44.329 144.528 44.6467 145.247 44.6467 146.2C44.6467 146.757 44.4905 147.257 44.1884 147.7C43.8811 148.132 43.4436 148.476 42.8759 148.721C44.303 150.861 45.2405 152.247 45.6884 152.867H43.4384L41.1676 149.221H40.0842Z" fill="#0097D7"/>
<path d="M53.0255 152.866L52.338 150.595H48.8796L48.1713 152.866H46.0046L49.3588 143.304H51.838L55.213 152.866H53.0255ZM51.8588 148.908C51.2182 146.856 50.8536 145.694 50.7755 145.429C50.6921 145.153 50.6348 144.939 50.6088 144.783C50.4682 145.34 50.0567 146.715 49.3796 148.908H51.8588Z" fill="#0097D7"/>
<path d="M60.3578 147.512H64.1287V152.45C63.5141 152.658 62.936 152.799 62.3995 152.867C61.8578 152.945 61.3057 152.992 60.7537 152.992C59.3057 152.992 58.2016 152.575 57.4412 151.742C56.6912 150.898 56.3162 149.679 56.3162 148.096C56.3162 146.559 56.7537 145.361 57.6287 144.512C58.5141 143.653 59.738 143.221 61.2953 143.221C62.2641 143.221 63.212 143.419 64.1287 143.804L63.4412 145.408C62.7432 145.064 62.0193 144.887 61.2745 144.887C60.4099 144.887 59.7172 145.189 59.1912 145.783C58.6599 146.367 58.3995 147.153 58.3995 148.137C58.3995 149.169 58.6078 149.96 59.0245 150.512C59.4516 151.054 60.0714 151.325 60.8787 151.325C61.2901 151.325 61.7224 151.278 62.1703 151.179V149.2H60.3578V147.512Z" fill="#0097D7"/>
<path d="M74.4961 143.346V149.512C74.4961 150.21 74.3346 150.83 74.0169 151.367C73.7096 151.898 73.2565 152.299 72.6628 152.575C72.0638 152.856 71.3607 152.992 70.5586 152.992C69.3346 152.992 68.3815 152.679 67.7044 152.054C67.0221 151.434 66.6836 150.57 66.6836 149.471V143.346H68.7044V149.179C68.7044 149.919 68.8503 150.46 69.1419 150.804C69.4284 151.137 69.9232 151.304 70.6211 151.304C71.2721 151.304 71.7461 151.132 72.0378 150.783C72.3398 150.439 72.4961 149.898 72.4961 149.158V143.346H74.4961Z" fill="#0097D7"/>
<path d="M82.6982 152.867H77.219V143.346H82.6982V144.992H79.219V147.096H82.4482V148.742H79.219V151.2H82.6982V152.867Z" fill="#0097D7"/>
<path d="M267.432 152.867H260.786V151.471L263.161 149.054C263.864 148.335 264.333 147.835 264.557 147.554C264.776 147.268 264.932 147.002 265.015 146.762C265.109 146.528 265.161 146.283 265.161 146.033C265.161 145.648 265.052 145.361 264.849 145.179C264.64 144.986 264.359 144.887 264.015 144.887C263.64 144.887 263.276 144.981 262.932 145.158C262.583 145.325 262.218 145.564 261.849 145.867L260.744 144.575C261.213 144.174 261.604 143.887 261.911 143.721C262.229 143.559 262.567 143.429 262.932 143.346C263.291 143.268 263.703 143.221 264.161 143.221C264.739 143.221 265.265 143.335 265.724 143.554C266.177 143.762 266.536 144.064 266.786 144.45C267.031 144.84 267.161 145.288 267.161 145.783C267.161 146.231 267.083 146.648 266.932 147.033C266.776 147.408 266.531 147.799 266.203 148.2C265.88 148.606 265.317 149.184 264.515 149.929L263.286 151.075V151.179H267.432V152.867Z" fill="#0097D7"/>
<path d="M275.283 148.116C275.283 149.773 275.002 151.002 274.45 151.804C273.908 152.596 273.07 152.991 271.95 152.991C270.835 152.991 270.002 152.585 269.45 151.762C268.893 150.934 268.617 149.715 268.617 148.116C268.617 146.439 268.888 145.2 269.429 144.408C269.966 143.606 270.809 143.2 271.95 143.2C273.044 143.2 273.872 143.622 274.429 144.45C274.997 145.283 275.283 146.507 275.283 148.116ZM270.617 148.116C270.617 149.283 270.71 150.122 270.908 150.616C271.111 151.116 271.46 151.366 271.95 151.366C272.403 151.366 272.742 151.116 272.95 150.616C273.153 150.106 273.263 149.273 273.263 148.116C273.263 146.939 273.153 146.096 272.95 145.596C272.742 145.085 272.403 144.825 271.95 144.825C271.46 144.825 271.111 145.085 270.908 145.596C270.71 146.096 270.617 146.939 270.617 148.116Z" fill="#0097D7"/>
<path d="M283.218 152.867H276.572V151.471L278.947 149.054C279.651 148.335 280.119 147.835 280.343 147.554C280.562 147.268 280.718 147.002 280.802 146.762C280.895 146.528 280.947 146.283 280.947 146.033C280.947 145.648 280.838 145.361 280.635 145.179C280.427 144.986 280.145 144.887 279.802 144.887C279.427 144.887 279.062 144.981 278.718 145.158C278.369 145.325 278.005 145.564 277.635 145.867L276.531 144.575C277 144.174 277.39 143.887 277.697 143.721C278.015 143.559 278.354 143.429 278.718 143.346C279.078 143.268 279.489 143.221 279.947 143.221C280.526 143.221 281.052 143.335 281.51 143.554C281.963 143.762 282.322 144.064 282.572 144.45C282.817 144.84 282.947 145.288 282.947 145.783C282.947 146.231 282.869 146.648 282.718 147.033C282.562 147.408 282.317 147.799 281.989 148.2C281.666 148.606 281.104 149.184 280.302 149.929L279.072 151.075V151.179H283.218V152.867Z" fill="#0097D7"/>
<path d="M291.319 150.887H290.174V152.867H288.215V150.887H284.153V149.492L288.319 143.346H290.174V149.325H291.319V150.887ZM288.215 149.325V147.721C288.215 147.445 288.221 147.054 288.236 146.554C288.262 146.044 288.283 145.742 288.299 145.658H288.257C288.09 146.007 287.892 146.356 287.674 146.7L285.924 149.325H288.215Z" fill="#0097D7"/>
</svg>
