<svg width="300" height="120" viewBox="0 0 300 120" fill="none" xmlns="http://www.w3.org/2000/svg">
<path d="M132.342 105.133H130.653V97.4809C130.653 96.0005 129.965 94.249 126.629 94.249C124.502 94.249 122.208 95.5209 122.208 98.2941V105.133H120.52V93.3941H122.208V96.063L122.876 95.1039C124.085 93.2481 126.274 92.9771 127.463 92.9771C129.277 92.9771 132.342 93.4983 132.342 97.043" fill="#EDBE38"/>
<path d="M140.078 105.571C135.97 105.571 135.366 103.423 135.366 102.151C135.366 100.317 136.2 99.0863 140.391 98.6276L143.102 98.3357C144.082 98.2314 145.562 98.0646 145.562 96.5008C145.562 94.1237 142.726 94.1237 141.642 94.1237C139.119 94.1237 137.701 94.9578 137.472 96.605H135.929C136.346 94.082 138.139 92.9561 141.725 92.9561C143.727 92.9561 147.105 93.3731 147.105 96.1671V102.86C147.105 103.778 147.605 104.257 148.523 104.257C148.69 104.257 148.856 104.237 149.023 104.237V105.196C148.544 105.258 147.981 105.3 147.501 105.3C146.292 105.3 145.854 104.945 145.708 103.861L145.604 103.006L145.082 103.715C144.29 104.779 142.184 105.571 140.078 105.571ZM145.583 98.0646L144.978 98.7318C144.707 99.0446 144.186 99.1906 142.872 99.3574L140.182 99.691C138.639 99.8995 137.055 100.337 137.055 102.068C137.055 103.423 138.389 104.383 140.287 104.383C143.31 104.383 145.562 102.735 145.562 100.546V98.9612V98.0646H145.583Z" fill="#EDBE38"/>
<path d="M155.299 105.55C153.318 105.55 152.359 104.716 152.359 102.965V94.5409H149.815V93.3732H152.359V89.5366H154.069V93.3732H157.635V94.5409H154.069V102.548C154.069 103.674 154.841 104.237 156.321 104.237C156.717 104.237 157.134 104.216 157.635 104.132V105.446C156.947 105.529 156.196 105.55 155.299 105.55Z" fill="#EDBE38"/>
<path d="M164.995 105.55C163.16 105.55 160.095 105.029 160.095 101.505V93.373H161.805V101.025C161.805 102.485 162.514 104.237 165.829 104.237C168.436 104.237 170.25 102.589 170.25 100.191V93.373H171.939V105.133H170.25V102.422L169.562 103.402C168.373 105.279 166.184 105.55 164.995 105.55Z" fill="#EDBE38"/>
<path d="M177.214 105.133H175.525V93.3939H177.214V96.6259L177.902 95.4999C179.091 93.3939 180.717 92.9561 181.885 92.9561C182.323 92.9561 182.594 92.9561 182.906 93.0186V94.8744C182.469 94.791 182.072 94.7284 181.551 94.7284C178.882 94.7284 177.235 96.4382 177.235 99.1489" fill="#EDBE38"/>
<path d="M189.329 105.55C185.242 105.55 184.616 103.423 184.616 102.13C184.616 100.296 185.45 99.0653 189.662 98.6066L192.373 98.3147C193.395 98.2104 194.833 98.0436 194.833 96.4798C194.833 94.1027 191.977 94.1027 190.913 94.1027C188.369 94.1027 186.972 94.9368 186.743 96.584H185.221C185.596 94.061 187.41 92.9351 190.997 92.9351C193.019 92.9351 196.397 93.3521 196.397 96.1461V102.839C196.397 103.757 196.877 104.236 197.815 104.236C197.982 104.236 198.149 104.216 198.315 104.195V105.154C197.836 105.216 197.273 105.258 196.793 105.258C195.584 105.258 195.125 104.904 194.979 103.819L194.875 102.964L194.375 103.673C193.436 104.924 191.143 105.55 189.329 105.55ZM194.833 98.0645L194.249 98.7525C193.978 99.0653 193.436 99.2113 192.123 99.3781L189.454 99.7117C187.911 99.9202 186.347 100.358 186.347 102.089C186.347 103.465 187.681 104.424 189.579 104.424C192.581 104.424 194.854 102.777 194.854 100.587V99.0027V98.0645H194.833Z" fill="#EDBE38"/>
<path d="M202.298 88.7231H200.588V105.133H202.298V88.7231Z" fill="#EDBE38"/>
<path d="M220.585 105.55C218.729 105.55 216.936 104.8 216.143 103.694L215.518 102.819L215.476 103.903V105.154H213.787V88.7441H215.476V96.0838L216.164 95.0829C216.956 93.8318 218.625 93.102 220.605 93.102C224.442 93.102 227.028 95.6042 227.028 99.3365C227.007 103.048 224.421 105.55 220.585 105.55ZM220.272 94.4157C217.269 94.4157 215.33 96.334 215.33 99.3157C215.33 101.588 216.623 104.237 220.272 104.237C223.879 104.237 225.172 101.588 225.172 99.3157C225.172 96.334 223.254 94.4157 220.272 94.4157Z" fill="#EDBE38"/>
<path d="M236.39 105.571C231.302 105.571 229.488 102.151 229.488 99.274C229.488 95.4373 232.199 92.9561 236.39 92.9561C239.476 92.9561 242.77 94.7076 242.791 99.6284H231.323L231.344 100.004C231.552 102.777 234.034 104.257 236.265 104.257C237.203 104.257 239.434 104.049 240.477 102.047H242.27C241.019 104.612 238.454 105.571 236.39 105.571ZM236.265 94.2697C233.742 94.2697 231.782 95.7918 231.406 98.0646L231.344 98.4399H240.977L240.935 98.0646C240.581 95.7501 238.746 94.2697 236.265 94.2697Z" fill="#EDBE38"/>
<path d="M250.047 105.571C245.94 105.571 245.314 103.423 245.314 102.151C245.314 100.317 246.148 99.0863 250.36 98.6276L253.071 98.3357C254.363 98.1897 255.531 97.9604 255.531 96.5008C255.531 94.1237 252.695 94.1237 251.611 94.1237C249.067 94.1237 247.67 94.9578 247.441 96.605H245.919C246.315 94.082 248.108 92.9561 251.694 92.9561C253.717 92.9561 257.074 93.3731 257.074 96.1671V102.86C257.074 103.778 257.554 104.257 258.492 104.257C258.659 104.257 258.826 104.237 258.992 104.237V105.217C258.513 105.279 257.971 105.3 257.47 105.3C256.282 105.3 255.802 104.925 255.677 103.861L255.573 103.006L255.072 103.715C254.238 104.779 252.132 105.571 250.047 105.571ZM255.531 98.0646L254.947 98.7318C254.676 99.0446 254.155 99.1906 252.841 99.3574L250.151 99.691C248.546 99.8995 247.024 100.337 247.024 102.068C247.024 103.423 248.337 104.383 250.256 104.383C253.258 104.383 255.531 102.735 255.531 100.546V98.9612V98.0646Z" fill="#EDBE38"/>
<path d="M266.165 105.571C264.351 105.571 261.307 105.05 261.307 101.505V93.373H262.975V101.025C262.975 102.485 263.684 104.237 266.999 104.237C269.126 104.237 271.42 102.965 271.42 100.191V93.373H273.109V105.112H271.42V102.422L270.752 103.382C269.543 105.279 267.354 105.571 266.165 105.571Z" fill="#EDBE38"/>
<path d="M280.678 105.571C278.697 105.571 277.759 104.716 277.759 102.965V94.5409H275.194V93.3732H277.759V89.5366H279.447V93.3732H283.013V94.5409H279.447V102.548C279.447 103.674 280.219 104.237 281.699 104.237C282.096 104.237 282.513 104.195 283.013 104.132V105.446C282.304 105.529 281.553 105.571 280.678 105.571Z" fill="#EDBE38"/>
<path d="M287.871 110.367C287.392 110.367 286.912 110.346 286.412 110.283V108.97C286.453 108.991 286.495 108.991 286.516 108.991C286.808 109.011 287.1 109.032 287.454 109.032C289.102 109.032 289.56 108.594 290.353 106.947L290.895 105.8L290.978 105.654L290.895 105.508L285.369 93.373H287.329L291.52 102.985L291.833 103.694L292.146 102.985L296.274 93.373H298.172L291.875 107.468C290.77 109.95 289.956 110.367 287.871 110.367Z" fill="#EDBE38"/>
<path d="M137.013 35.3234C137.534 33.9681 138.139 32.446 138.139 31.2158C138.139 29.214 136.075 28.5468 132.28 27.6293V26.3574H145.395L165.037 77.6097H157.656L151.254 60.6368H132.05L126.045 77.6097H121.25M133.114 57.6551H150.399L141.788 34.4268L133.114 57.6551Z" fill="#EDBE38"/>
<path d="M173.106 34.4268C173.106 29.0889 171.897 28.943 165.412 27.6502V26.3574H186.952C196.251 26.3574 203.945 28.5676 203.945 39.5354C203.945 48.2095 197.461 51.0244 190.747 51.9418L206.135 77.6097H198.67L183.511 52.4006H179.695V77.6097H173.086M179.716 49.4188H181.781C187.181 49.4188 196.481 49.4188 196.481 38.7639C196.481 31.5285 191.059 29.3183 185.117 29.3183C180.008 29.3183 179.695 29.9438 179.695 34.4268V49.4188H179.716Z" fill="#EDBE38"/>
<path d="M226.152 35.3234C226.694 33.9681 227.299 32.446 227.299 31.2158C227.299 29.214 225.234 28.5468 221.439 27.6293V26.3574H234.534L254.176 77.6097H246.774L240.393 60.6368H221.189L215.184 77.6097H210.388M222.273 57.6551H239.559L230.947 34.4268L222.273 57.6551Z" fill="#EDBE38"/>
<path d="M262.328 35.0315C262.328 29.2349 261.348 28.943 254.718 27.6502V26.3574H270.877C287.016 26.3574 298.839 29.4851 298.839 52.0252C298.839 74.5654 286.495 77.6097 270.586 77.6097H262.349M268.959 68.9981C268.959 72.7305 268.959 74.6279 273.004 74.6279C285.265 74.6279 291.353 67.9347 291.353 52.0044C291.353 38.9098 287.788 29.3183 274.151 29.3183C269.585 29.3183 268.959 30.0898 268.959 35.0315V68.9981Z" fill="#EDBE38"/>
<path fill-rule="evenodd" clip-rule="evenodd" d="M44.663 77.8389C43.0157 78.11 39.8672 83.8858 42.3485 84.8241C45.4553 85.4704 47.8949 77.2968 44.663 77.8389ZM22.5816 49.9192C22.7275 49.9817 22.8526 49.9609 23.0195 50.0443C21.4348 49.3979 21.7267 49.5438 22.5816 49.9192ZM93.2671 27.525C91.5365 25.7109 89.368 22.0411 88.5548 20.9986C83.0083 13.93 76.8989 13.4713 68.0997 9.98913C38.5744 -1.70839 -1.62666 28.5467 1.31336 59.6984C3.50273 71.9172 6.46361 86.2002 17.2645 92.9352C19.3913 94.2697 20.1211 96.8343 22.3314 98.6067C43.0157 115.017 52.1694 115.017 73.667 108.574C87.1786 104.528 91.0569 99.9829 95.1646 90.8501C96.7493 87.3471 97.1246 84.4487 100.815 83.0309C106.487 80.8415 106.966 67.601 106.904 61.846C106.779 50.5238 101.566 36.2825 93.2671 27.525ZM20.5382 74.1691C19.0994 74.4819 19.9752 77.8806 18.8701 78.6938C14.1994 82.0717 17.0352 74.0023 16.3262 73.5227C15.659 73.064 9.50788 76.3376 12.01 72.0214C15.0334 70.1031 18.6824 69.7904 19.8918 66.2873C21.1637 62.6801 21.3097 68.9772 21.3722 69.3316C21.7684 71.3125 24.9169 71.8546 25.8344 73.9397C27.7944 78.3602 20.9343 74.0857 20.5382 74.1691ZM39.4919 87.8058C37.8238 83.8441 39.4502 74.8363 44.6004 74.3568C52.6907 73.5853 46.3728 92.9352 39.4919 87.8058ZM74.5428 85.7207C74.4176 94.7284 64.0963 95.479 58.4039 93.2896C57.5073 88.8692 67.6827 93.6858 70.2474 89.4739C73.8964 83.4687 62.595 85.9917 61.3648 81.9257C60.9478 80.4662 60.7184 75.4619 62.595 75.024C66.0146 74.2317 62.5742 82.2385 66.2857 81.0291C67.2865 80.6955 68.2457 73.7938 70.018 76.2751C70.7895 77.3593 68.8087 80.8623 70.1432 81.5921C72.3742 82.7806 72.2074 75.6912 74.1466 76.3168C75.8355 76.8381 74.5636 83.9692 74.5428 85.7207ZM94.6642 82.9266C91.8284 89.1194 88.1586 85.2619 84.739 84.6781C81.8198 84.1777 76.19 87.2011 76.8989 80.5704C77.1491 76.0874 77.7121 77.2342 78.2334 80.1951C78.6504 82.5096 82.779 83.0726 84.4262 81.0708C85.0518 80.3202 85.3854 74.5444 87.1369 76.7547C89.0343 79.09 85.9067 85.2619 91.745 83.8024C94.7684 83.0517 92.9127 76.2959 94.2054 76.1291C95.9152 75.9206 94.9352 82.3428 94.6642 82.9266ZM97.0203 54.9652C96.3531 54.9443 95.7901 55.0277 94.8518 54.9026C92.579 54.6107 89.3471 49.3979 87.6164 51.0243C87.0952 51.5039 87.5122 52.5464 87.1786 52.7966C85.6147 53.9017 80.2977 47.6255 78.7547 49.8775C78.296 50.5239 79.5053 55.9035 76.7738 52.5256C79.1717 55.4864 69.4759 50.1694 70.3308 54.6524C72.9372 54.9651 73.0832 57.7175 73.2917 59.7609C77.7747 57.7384 77.9207 69.8529 72.4785 66.4542C72.9789 70.6035 67.0363 72.6887 67.787 67.3508C63.4082 67.9971 65.5767 62.2631 67.5784 60.7618C63.9086 55.1737 55.589 63.6601 55.4014 68.2265C55.1511 74.0023 54.9218 80.7164 55.4431 85.95C55.7558 89.036 54.7967 92.9769 54.8175 96.4382C54.8384 97.3139 54.3171 101.38 54.9218 102.777C55.2345 103.465 59.3631 104.57 58.3414 105.675C57.4865 106.593 53.5247 105.592 51.8775 105.55C50.1051 105.508 43.7038 105.508 47.1443 103.152C51.7107 100.045 49.292 91.9969 50.0009 85.7832C50.2511 83.4479 51.0435 81.1542 50.6681 78.9232V78.11C49.3337 73.3976 52.6699 66.2874 46.2894 64.5776C44.9966 64.2231 41.6187 64.2022 42.9949 62.0963C45.8724 57.6967 31.0055 61.2414 35.6136 65.3282C37.9698 67.4133 36.7812 70.7912 32.757 71.5419C28.4408 72.3133 31.1514 68.9355 28.7744 67.6218C19.6833 62.5133 34.2374 57.2379 32.1106 61.3456C33.1948 59.1979 38.0532 58.9686 38.6995 57.4256C40.0549 54.1937 31.4642 57.9052 31.485 56.1537C31.485 55.2571 33.5076 54.84 33.5493 54.1103C33.8412 50.8366 26.7101 53.86 26.168 53.2554C26.0637 53.1511 26.3139 52.046 26.1263 51.8375C25.7718 51.4413 23.645 50.4404 22.5399 49.9192C18.2445 48.3136 15.4713 49.377 11.3636 50.9409C8.79894 51.9 11.5096 47.3128 12.427 46.8749C13.5113 46.3745 16.6807 45.4362 17.5564 45.7906C17.8901 45.9366 18.4947 46.6038 19.4539 46.2911L21.8101 45.0817C21.8935 45.6238 23.6033 47.6047 24.2914 46.9583C24.5624 46.6872 23.791 45.2485 24.5833 45.04C25.2505 44.8523 28.5867 49.6064 29.525 47.2919C29.6918 46.8749 28.8369 45.6655 29.0037 45.3319C29.2331 44.894 35.134 49.8566 35.4051 50.2945C37.094 53.0885 38.6787 49.0434 39.471 52.4422C40.5136 56.946 41.4102 52.5256 43.266 55.3405C44.6213 57.3839 51.6898 67.7469 51.7315 60.032C51.7524 54.8192 44.246 54.3813 44.2668 50.7115C44.2668 48.2511 40.1383 49.3353 39.5336 47.3545C39.4502 47.0625 40.0549 45.9991 39.9715 45.7281C39.3459 43.8515 37.2191 42.8923 35.3008 43.4136C33.7995 43.8098 33.2157 41.8914 34.2165 41.5787C31.4225 42.4544 31.9855 39.7646 31.3391 38.6387C31.2974 38.5761 21.7058 36.9497 24.6041 35.3859C25.6676 34.8229 30.1297 36.8246 30.9638 35.4484C30.9638 35.4484 30.6093 34.114 31.0472 33.8012C32.8821 32.5084 32.7153 39.2016 34.8004 38.2633C35.28 38.034 34.6961 34.385 36.2391 35.7403C36.2391 35.7403 37.3859 41.3285 38.5536 40.6612C39.8672 39.9314 37.8447 38.0965 39.5753 38.1174C41.2434 38.1799 41.014 43.351 42.5362 43.2259C42.7655 43.2051 43.0574 42.2042 43.2868 42.1417C44.3085 41.7872 44.5379 44.3519 44.6004 44.7898C44.9966 47.8549 45.7264 45.9991 47.2694 46.6664C48.2911 47.1043 48.4996 51.8792 50.0009 53.2137C50.8766 54.006 52.3571 55.966 52.5656 53.6307C52.9826 48.8975 51.9401 44.9357 48.2494 42.371C46.9358 41.4536 46.7273 41.7872 46.3102 38.4302C46.1434 37.0748 41.8689 36.4701 42.5362 35.094C43.12 33.8846 45.4136 36.1574 45.1634 34.1348C44.9549 32.2582 44.0583 33.9889 42.4736 30.3816C41.2642 27.6292 29.5876 28.1714 36.0306 24.7309C38.6787 23.3339 45.7056 29.5892 47.4362 31.4867C48.729 32.8837 47.4153 35.6152 48.583 37.4293C48.9166 37.9506 49.8758 38.1591 50.0634 38.5136C50.689 39.7229 49.8758 44.3727 52.7741 43.7472C53.3788 43.6221 53.9626 42.2459 53.9835 41.4119C54.1086 37.7629 51.7315 33.3216 51.8358 30.5484C51.8567 29.902 54.6507 33.4676 54.0877 29.5476C53.7958 27.6084 51.8983 28.9637 53.9626 24.8352C54.5882 23.5841 49.2503 19.4139 50.96 19.0594C52.2737 18.7883 53.5247 22.2288 54.6924 21.353C56.8401 19.7475 51.1894 14.4096 52.2528 15.1602C50.1469 13.7006 54.609 12.8874 54.8175 15.4313C54.7133 14.076 55.4431 12.2619 55.9018 13.3879C56.8192 15.5772 56.7775 18.2462 57.0277 21.2071C57.1529 22.8126 58.258 23.2922 58.6124 24.585C59.1129 26.4407 56.006 28.0254 57.4239 30.0688C58.2997 31.3199 61.052 28.0254 59.0295 32.2373C57.9243 34.531 55.6099 43.7889 59.9261 38.4302C62.0112 35.8655 62.3448 27.1497 64.6176 30.9237C66.4525 31.1531 65.1806 25.3982 66.8487 25.6484C67.1197 25.6901 67.4325 27.9212 67.4951 27.9837C69.3508 29.9646 70.7895 22.7292 72.3951 23.2505C73.6045 23.6467 71.3734 25.7526 73.0206 25.8986C75.8564 22.625 77.8581 26.0028 73.6253 27.108C71.6236 27.5041 73.7921 29.0054 73.7296 29.5476C73.5836 31.1114 69.0589 28.5675 68.8921 31.1948C68.8504 31.862 70.2057 32.2374 69.747 32.842C68.2248 34.7603 66.3691 34.2182 64.7427 37.1374C62.6367 40.9323 56.9026 41.8706 57.4239 47.1877C57.6741 49.5855 57.2154 52.1294 59.4256 49.0434C60.072 48.1468 60.5099 46.7498 61.7818 45.8532C64.3465 44.0183 64.7427 40.9532 65.4725 40.0357C67.1823 37.888 65.8895 41.12 66.3899 41.5995C67.5993 42.7047 69.9138 36.5952 70.7687 36.7412C71.6861 36.8872 71.0398 38.4093 71.3525 38.6387C72.6661 39.6812 75.4602 31.8829 77.5662 32.6335C79.0466 33.1548 76.0649 34.0306 76.607 35.3233C77.17 36.6995 78.8381 34.6561 79.1926 34.3433C80.7773 32.9046 84.4054 31.8203 85.4896 34.0306C86.4696 36.0323 91.3071 33.3216 90.4731 37.7838C90.2228 39.1599 84.9266 38.1174 83.9258 38.1799C82.9458 38.2425 73.9381 38.2008 73.8964 40.3902C73.8755 41.6412 76.2526 40.9114 76.336 41.8497C76.336 41.9749 72.7496 43.0383 72.0823 44.0183C71.144 45.4362 68.5793 44.06 66.7444 46.3328C65.4099 48.0009 63.0329 47.9174 61.8235 49.2936C60.1554 51.1702 56.569 54.7566 56.7567 57.1337C57.4031 65.5367 64.8469 45.2693 65.0138 51.7332C66.9112 52.5673 69.038 45.7489 70.4976 46.8332C70.8729 47.1042 70.31 48.0217 70.727 48.3345C71.6444 49.0017 73.2291 46.1242 75.0849 47.0625C77.587 48.2928 79.9641 42.6212 82.2577 45.04C83.4254 46.2493 86.553 44.6855 86.9492 45.457C87.1786 45.8949 86.1777 46.3953 86.3654 46.9583C86.9701 48.6055 92.1412 46.5413 92.0578 48.5847C91.9952 50.7532 96.8118 49.6689 96.645 51.7541C96.5825 52.5881 95.811 51.7541 95.5608 52.463C95.1854 53.4013 101.149 55.0903 97.0203 54.9652Z" fill="#EDBE38"/>
</svg>
