<svg width="1123" height="794" viewBox="0 0 1123 794" fill="none" xmlns="http://www.w3.org/2000/svg">
<path fill-rule="evenodd" clip-rule="evenodd" d="M860.247 614.069H262.272V179.632H860.247V614.069ZM298.742 382.925V500.61H341.265C350.536 500.61 358.063 499.231 363.848 496.473C369.633 493.715 373.866 489.98 376.548 485.268C379.229 480.556 380.57 475.25 380.57 469.35C380.57 463.144 379.344 457.896 376.892 453.605C374.441 449.315 371.395 446.02 367.756 443.721C364.116 441.423 360.496 440.159 356.895 439.929V438.78C360.266 437.86 363.388 436.443 366.262 434.527C369.173 432.612 371.51 430.007 373.272 426.712C375.073 423.418 375.973 419.242 375.973 414.185C375.973 408.439 374.67 403.21 372.065 398.498C369.46 393.747 365.495 389.974 360.17 387.177C354.845 384.342 348.084 382.925 339.886 382.925H298.742ZM341.265 487.968H312.993V447.054H341.955C347.088 447.054 351.532 448.089 355.286 450.157C359.04 452.188 361.933 454.908 363.963 458.317C365.993 461.688 367.009 465.366 367.009 469.35C367.009 474.522 365.036 478.927 361.09 482.567C357.182 486.168 350.574 487.968 341.265 487.968ZM339.426 434.642H312.993V395.567H339.886C347.701 395.567 353.409 397.387 357.01 401.026C360.611 404.627 362.412 409.013 362.412 414.185C362.412 418.323 361.377 421.924 359.308 424.988C357.278 428.053 354.52 430.428 351.034 432.114C347.586 433.799 343.717 434.642 339.426 434.642ZM403.986 382.925V500.61H475.931V487.968H418.237V447.974H471.334V435.332H418.237V395.567H475.011V382.925H403.986ZM500.698 382.925V500.61H569.654V487.968H514.948V382.925H500.698ZM605.971 500.61V382.925H591.72V500.61H605.971ZM690.514 398.785C695.418 402.003 698.214 406.523 698.904 412.346H712.695C712.503 406.408 710.665 401.103 707.178 396.429C703.731 391.755 699.057 388.078 693.157 385.396C687.258 382.676 680.515 381.316 672.93 381.316C665.422 381.316 658.622 382.695 652.531 385.453C646.478 388.173 641.651 392.004 638.05 396.946C634.487 401.85 632.706 407.596 632.706 414.185C632.706 422.115 635.387 428.532 640.751 433.435C646.114 438.339 653.393 442.112 662.587 444.756L677.068 448.893C681.205 450.042 685.055 451.383 688.618 452.916C692.18 454.448 695.054 456.44 697.237 458.892C699.421 461.344 700.513 464.523 700.513 468.431C700.513 472.721 699.248 476.476 696.72 479.694C694.192 482.873 690.763 485.363 686.434 487.164C682.105 488.926 677.221 489.807 671.781 489.807C667.107 489.807 662.74 489.118 658.679 487.739C654.657 486.321 651.324 484.176 648.681 481.303C646.076 478.391 644.581 474.713 644.198 470.27H629.488C629.947 476.706 631.92 482.356 635.406 487.221C638.931 492.087 643.758 495.879 649.887 498.599C656.055 501.319 663.353 502.679 671.781 502.679C680.822 502.679 688.503 501.166 694.824 498.139C701.183 495.113 706.01 491.033 709.305 485.9C712.637 480.766 714.304 475.02 714.304 468.661C714.304 463.144 713.174 458.49 710.914 454.697C708.653 450.904 705.78 447.801 702.294 445.388C698.846 442.936 695.226 441.002 691.433 439.584C687.679 438.167 684.27 437.056 681.205 436.251L669.252 433.033C667.069 432.459 664.675 431.712 662.07 430.792C659.465 429.834 656.974 428.628 654.599 427.172C652.224 425.678 650.27 423.82 648.738 421.598C647.244 419.338 646.497 416.637 646.497 413.496C646.497 409.741 647.57 406.389 649.715 403.439C651.898 400.49 654.925 398.172 658.794 396.486C662.702 394.801 667.26 393.958 672.47 393.958C679.596 393.958 685.61 395.567 690.514 398.785Z" fill="#EDBE38"/>
</svg>
