<svg width="843" height="256" viewBox="0 0 843 256" fill="none" xmlns="http://www.w3.org/2000/svg">
<path d="M233.954 149.546C230.678 149.546 227.725 149.027 225.095 147.988C222.464 146.95 220.226 145.404 218.381 143.35C216.535 141.297 215.105 138.736 214.089 135.667C213.073 132.599 212.567 129.011 212.567 124.904C212.567 120.844 213.073 117.233 214.089 114.071C215.105 110.912 216.535 108.257 218.381 106.111C220.226 103.965 222.464 102.339 225.095 101.231C227.725 100.124 230.678 99.5703 233.954 99.5703C238.429 99.5703 242.121 100.481 245.028 102.304C247.935 104.128 250.265 107 252.019 110.922L242.951 115.629C242.306 113.599 241.302 111.972 239.941 110.749C238.58 109.526 236.585 108.915 233.954 108.915C230.862 108.915 228.382 109.919 226.513 111.927C224.645 113.935 223.71 116.853 223.71 120.682V128.434C223.71 132.264 224.645 135.182 226.513 137.19C228.381 139.198 230.861 140.2 233.954 140.2C236.538 140.2 238.602 139.498 240.149 138.089C241.694 136.682 242.836 134.986 243.575 133.002L252.157 137.985C250.358 141.678 247.993 144.526 245.063 146.534C242.133 148.542 238.429 149.546 233.954 149.546Z" fill="#EDBE38"/>
<path d="M297.148 148.715H260.533V139.371L284.342 109.746H261.709V100.402H296.594V109.746L272.714 139.371H297.148V148.715Z" fill="#EDBE38"/>
<path d="M309.745 148.715V100.402H342.622V109.746H320.266V119.574H339.438V128.919H320.266V139.371H342.622V148.715H309.745Z" fill="#EDBE38"/>
<path d="M375.292 149.546C372.016 149.546 369.063 149.027 366.433 147.988C363.802 146.95 361.564 145.404 359.719 143.35C357.873 141.297 356.443 138.736 355.427 135.667C354.411 132.599 353.905 129.011 353.905 124.904C353.905 120.844 354.411 117.233 355.427 114.071C356.443 110.912 357.873 108.257 359.719 106.111C361.564 103.965 363.802 102.339 366.433 101.231C369.063 100.124 372.016 99.5703 375.292 99.5703C379.767 99.5703 383.459 100.481 386.366 102.304C389.273 104.128 391.603 107 393.357 110.922L384.289 115.629C383.644 113.599 382.64 111.972 381.279 110.749C379.918 109.526 377.923 108.915 375.292 108.915C372.2 108.915 369.72 109.919 367.851 111.927C365.983 113.935 365.048 116.853 365.048 120.682V128.434C365.048 132.264 365.983 135.182 367.851 137.19C369.719 139.198 372.199 140.2 375.292 140.2C377.876 140.2 379.94 139.498 381.487 138.089C383.032 136.682 384.174 134.986 384.913 133.002L393.495 137.985C391.696 141.678 389.331 144.526 386.401 146.534C383.471 148.542 379.767 149.546 375.292 149.546Z" fill="#EDBE38"/>
<path d="M432.95 128.919H414.538V148.715H404.018V100.402H414.538V119.574H432.95V100.402H443.472V148.715H432.95V128.919Z" fill="#EDBE38"/>
<path d="M472.772 100.402H462.251V148.715H472.772V100.402Z" fill="#EDBE38"/>
<path d="M506.295 125.873L501.657 116.184H501.45V148.716H491.552V100.402H503.042L516.262 123.244L520.9 132.933H521.107V100.402H531.005V148.716H519.515L506.295 125.873Z" fill="#EDBE38"/>
<path d="M557.723 148.715L542.149 100.402H552.809L560.007 123.589L563.814 138.748H564.021L567.69 123.589L574.889 100.402H585.201L569.49 148.715H557.723Z" fill="#EDBE38"/>
<path d="M596.276 148.715V100.402H629.154V109.746H606.798V119.574H625.97V128.919H606.798V139.371H629.154V148.715H596.276Z" fill="#EDBE38"/>
<path d="M658.502 149.546C654.256 149.546 650.656 148.817 647.704 147.363C644.75 145.908 642.236 144.025 640.159 141.713L647.081 134.714C650.357 138.372 654.394 140.201 659.194 140.201C661.777 140.201 663.693 139.676 664.939 138.624C666.185 137.572 666.807 136.178 666.807 134.439C666.807 133.113 666.438 132.005 665.7 131.113C664.962 130.222 663.461 129.616 661.201 129.295L656.425 128.678C651.304 128.031 647.553 126.483 645.177 124.035C642.8 121.587 641.612 118.332 641.612 114.264C641.612 112.092 642.028 110.106 642.858 108.303C643.689 106.501 644.876 104.955 646.423 103.661C647.968 102.368 649.86 101.362 652.098 100.646C654.335 99.9303 656.884 99.5723 659.746 99.5723C663.391 99.5723 666.599 100.151 669.368 101.306C672.136 102.461 674.513 104.149 676.497 106.366L669.506 113.438C668.352 112.114 666.956 111.03 665.318 110.184C663.679 109.339 661.615 108.917 659.124 108.917C656.77 108.917 655.016 109.328 653.863 110.15C652.709 110.971 652.133 112.113 652.133 113.575C652.133 115.22 652.583 116.407 653.482 117.138C654.382 117.87 655.846 118.394 657.877 118.714L662.653 119.475C667.636 120.26 671.327 121.797 673.727 124.083C676.126 126.37 677.327 129.615 677.327 133.817C677.327 136.127 676.912 138.251 676.082 140.192C675.25 142.133 674.039 143.796 672.447 145.181C670.855 146.568 668.882 147.642 666.529 148.402C664.177 149.164 661.501 149.546 658.502 149.546Z" fill="#EDBE38"/>
<path d="M710.967 109.746V148.715H700.446V109.746H687.365V100.402H724.049V109.746H710.967Z" fill="#EDBE38"/>
<path d="M152.144 124.058L197.774 78.4275L168.202 48.8555L122.572 94.4865L152.144 124.058Z" fill="#EDBE38"/>
<path d="M122.572 160.926L168.202 206.557L197.774 176.985L152.143 131.355L122.572 160.926Z" fill="#EDBE38"/>
<path d="M118.923 98.1357V157.278L148.495 127.707L118.923 98.1357Z" fill="#EDBE38"/>
</svg>
