<?xml version="1.0" encoding="UTF-8"?>
<svg xmlns="http://www.w3.org/2000/svg" width="278.18pt" height="74.953pt" version="1.2" viewBox="0 0 278.18 74.953">
    <g transform="translate(-19.641 -22.766)" fill="#">
        <path d="m140.11 32.801h1.9609l1.2148 1.5586 1.2422-1.5586h1.9024l-1.9805 2.7578h-2.3594zm8.3555 12.312v0.09766c0 3.0078-2 4.625-5.1797 4.625-3.1758 0-5.1953-1.6758-5.1953-4.8164v-4.0938c0-3.1211 2.0195-4.793 5.2383-4.793 3.1367 0 5.1367 1.6172 5.1367 4.6211v0.07813h-2.2656v-0.07813c0-1.7109-1.1055-2.6641-2.8711-2.6641-1.8476 0-2.9726 1.0117-2.9726 2.8359v4.0938c0 1.8477 1.125 2.8359 2.9297 2.8359 1.8086 0 2.9141-0.93359 2.9141-2.6445v-0.09766z"></path>
        <path d="m155.6 49.645c-3.1797 0-5.1992-1.6758-5.1992-4.8164v-3.7109c0-3.1211 2.0195-4.7969 5.2383-4.7969h3.9024v1.9609h-3.9024c-1.8476 0-2.9688 1.0078-2.9688 2.8359v0.875h5.918v1.9609h-5.918v0.875c0 1.8477 1.1211 2.8359 2.9297 2.8359h3.9414v1.9805z"></path>
        <path d="m167.15 44.203-2.3555-0.42188c-2.1719-0.39844-3.4844-1.6172-3.4844-3.6719 0-2.6445 1.8242-3.9766 4.9297-3.9766 3.082 0 4.9102 1.3477 4.9102 4.0312v0.25h-2.2656v-0.25c0-1.3672-0.9336-2.0742-2.6445-2.0742-1.7344 0-2.6094 0.61328-2.6094 1.8672 0 0.96875 0.6875 1.5625 1.7148 1.75l2.3594 0.42188c2.2656 0.41797 3.4844 1.6367 3.4844 3.6523 0 2.7227-1.8867 4.0547-4.9688 4.0547-3.0859 0-4.9688-1.3516-4.9688-4.0352v-0.24609h2.2656v0.24609c0 1.3711 0.98828 2.0547 2.7031 2.0547 1.7305 0 2.6445-0.57031 2.6445-1.9023 0-0.99219-0.6836-1.5625-1.7148-1.75"></path>
        <path d="m173.38 36.32h2.2656v5.9766h2.207l2.8203-5.9766h2.5078l-2.9688 6.0547c2.0586 0.32422 3.3516 1.6367 3.3516 4.207v3.0625h-2.2656v-3.0625c0-1.6953-0.91406-2.3242-2.2266-2.3242h-3.4258v5.3867h-2.2656z"></path>
        <path d="m189.06 35.559 1.6562-2.7578h2.3594l-2.207 2.7578zm-1.3711 8.3945h5.75v-3.1016c0-1.7891-1.1055-2.7578-2.8555-2.7578-1.7891 0-2.8945 0.96875-2.8945 2.7578zm-2.2656 5.6914v-8.793c0-3.082 2-4.7188 5.1602-4.7188 3.1172 0 5.1172 1.6367 5.1172 4.7188v8.793h-2.2617v-3.7109h-5.75v3.7109z"></path>
        <path d="m140.55 61.871h2.9141c1.3086 0 2.1484-0.64844 2.1484-2.3398 0-1.6953-0.85546-2.3242-2.1484-2.3242h-2.9141zm-2.2656-6.625h5.2539c2.6641 0 4.3945 1.2773 4.3945 4.2852s-1.7109 4.3008-4.3945 4.3008h-2.9883v4.7383h-2.2656z"></path>
        <path d="m155.26 63.129-2.3594-0.42188c-2.168-0.39844-3.4844-1.6172-3.4844-3.6719 0-2.6445 1.832-3.9766 4.9336-3.9766 3.0781 0 4.9062 1.3477 4.9062 4.0352v0.24609h-2.2617v-0.24609c0-1.3711-0.9336-2.0781-2.6445-2.0781-1.7344 0-2.6094 0.61328-2.6094 1.8672 0 0.96875 0.68359 1.5586 1.7109 1.75l2.3633 0.42188c2.2656 0.41797 3.4844 1.6367 3.4844 3.6523 0 2.7227-1.8867 4.0547-4.9688 4.0547-3.082 0-4.9688-1.3516-4.9688-4.0352v-0.24609h2.2617v0.24609c0 1.3711 0.99219 2.0547 2.707 2.0547 1.7305 0 2.6406-0.57031 2.6406-1.9023 0-0.99219-0.68359-1.5625-1.7109-1.75"></path>
        <path d="m165.31 63.754c-2.4961-0.34375-4.0156-1.9414-4.0156-4.6445v-3.8633h2.2656v3.8633c0 1.7891 1.1016 2.7617 2.8555 2.7617 1.7891 0 2.8906-0.97266 2.8906-2.7617v-3.8633h2.2656v3.8633c0 2.6875-1.5234 4.2852-3.9961 4.6445v4.8164h-2.2656z"></path>
        <path d="m184.04 64.039v0.09766c0 3.0039-2 4.625-5.1797 4.625-3.1758 0-5.1953-1.6758-5.1953-4.8164v-4.0938c0-3.1211 2.0195-4.793 5.2383-4.793 3.1367 0 5.1367 1.6172 5.1367 4.625v0.07422h-2.2656v-0.07422c0-1.7148-1.1055-2.668-2.8711-2.668-1.8476 0-2.9726 1.0078-2.9726 2.8359v4.0938c0 1.8477 1.125 2.8359 2.9297 2.8359 1.8086 0 2.9141-0.93359 2.9141-2.6445v-0.09766z"></path>
        <path d="m194.18 62.879h-5.75v5.6914h-2.2656v-13.324h2.2656v5.6719h5.75v-5.6719h2.2617v13.324h-2.2617z"></path>
        <path d="m203.93 68.57c-3.1797 0-5.1953-1.6758-5.1953-4.8164v-3.7109c0-3.1211 2.0156-4.7969 5.2344-4.7969h3.9024v1.9609h-3.9024c-1.8476 0-2.9688 1.0078-2.9688 2.8359v0.875h5.9219v1.9609h-5.9219v0.875c0 1.8477 1.1211 2.8359 2.9297 2.8359h3.9414v1.9805z"></path>
        <path d="m217.88 60.023c0-1.8242-1.1406-2.8164-2.9531-2.8164h-2.7969v9.3828h2.7617c1.8477 0 2.9883-0.96875 2.9883-2.7969zm2.2656 3.7695c0 3.1211-2.0352 4.7773-5.2539 4.7773h-5.0273v-13.324h5.0625c3.1836 0 5.2188 1.6562 5.2188 4.7773z"></path>
        <path d="m227.47 68.57c-3.1758 0-5.1953-1.6758-5.1953-4.8164v-3.7109c0-3.1211 2.0195-4.7969 5.2383-4.7969h3.9023v1.9609h-3.9023c-1.8477 0-2.9727 1.0078-2.9727 2.8359v0.875h5.918v1.9609h-5.918v0.875c0 1.8477 1.125 2.8359 2.9297 2.8359h3.9453v1.9805z"></path>
        <path d="m233.41 55.246h2.2656v11.344h6.6758v1.9805h-8.9414z"></path>
        <path d="m248.46 66.59h2.6289v1.9805h-7.5v-1.9805h2.625v-9.3828h-2.625v-1.9609h7.5v1.9609h-2.6289z"></path>
        <path d="m263.37 64.039v0.09766c0 3.0039-2 4.625-5.1758 4.625-3.1797 0-5.1953-1.6758-5.1953-4.8164v-4.0938c0-3.1211 2.0156-4.793 5.2344-4.793 3.1367 0 5.1367 1.6172 5.1367 4.625v0.07422h-2.2617v-0.07422c0-1.7148-1.1055-2.668-2.875-2.668-1.8477 0-2.9688 1.0078-2.9688 2.8359v4.0938c0 1.8477 1.1211 2.8359 2.9297 2.8359 1.8086 0 2.9141-0.93359 2.9141-2.6445v-0.09766z"></path>
        <path d="m265.5 55.246h2.2656v5.9766h2.207l2.8164-5.9766h2.5156l-2.9727 6.0547c2.0547 0.32422 3.3516 1.6367 3.3516 4.207v3.0625h-2.2656v-3.0625c0-1.6953-0.91406-2.3242-2.2266-2.3242h-3.4258v5.3867h-2.2656z"></path>
        <path d="m281.18 54.484 1.6524-2.7578h2.3633l-2.207 2.7578zm-1.3711 8.3945h5.75v-3.1016c0-1.7891-1.1055-2.7617-2.8555-2.7617-1.7891 0-2.8945 0.97266-2.8945 2.7617zm-2.2656 5.6914v-8.793c0-3.082 2-4.7227 5.1602-4.7227 3.1172 0 5.1172 1.6406 5.1172 4.7227v8.793h-2.2617v-3.7109h-5.75v3.7109z"></path>
        <path d="m143.89 82.051-2.3594-0.41797c-2.168-0.39844-3.4805-1.6172-3.4805-3.6719 0-2.6484 1.8281-3.9805 4.9258-3.9805 3.0859 0 4.9141 1.3516 4.9141 4.0352v0.25h-2.2656v-0.25c0-1.3711-0.9336-2.0742-2.6484-2.0742-1.7266 0-2.6055 0.60938-2.6055 1.8672 0 0.96875 0.6875 1.5586 1.7148 1.75l2.3594 0.41797c2.2656 0.42188 3.4805 1.6406 3.4805 3.6562 0 2.7188-1.8828 4.0547-4.9648 4.0547s-4.9688-1.3516-4.9688-4.0391v-0.24219h2.2656v0.24219c0 1.3711 0.99219 2.0586 2.7031 2.0586 1.7305 0 2.6445-0.57031 2.6445-1.9023 0-0.99219-0.68359-1.5625-1.7148-1.7539"></path>
        <path d="m152.39 80.797h2.9102c1.3164 0 2.1484-0.64844 2.1484-2.3398 0-1.6953-0.85547-2.3242-2.1484-2.3242h-2.9102zm-2.2656-6.625h5.2539c2.6641 0 4.3984 1.2773 4.3984 4.2852 0 3.0039-1.7188 4.2969-4.3984 4.2969h-2.9883v4.7422h-2.2656z"></path>
        <path d="m169.5 78.777c0-1.8281-1.1445-2.8359-2.9492-2.8359-1.8476 0-2.9883 1.0078-2.9883 2.8359v4.0938c0 1.8477 1.1406 2.8359 2.9492 2.8359 1.8438 0 2.9883-0.98828 2.9883-2.8359zm2.2656 4.0938c0 3.1406-2.0391 4.8164-5.2539 4.8164-3.1758 0-5.2148-1.6758-5.2148-4.8164v-4.0938c0-3.1211 2.0391-4.793 5.2539-4.793 3.1758 0 5.2148 1.6719 5.2148 4.793z"></path>
        <path d="m174.05 74.172h2.2656v11.344h6.6758v1.9805h-8.9414z"></path>
        <path d="m189.61 87.496c-3.1797 0-5.1953-1.6758-5.1953-4.8164v-3.7109c0-3.1211 2.0156-4.7969 5.2305-4.7969h3.9062v1.9609h-3.9062c-1.8438 0-2.9648 1.0078-2.9648 2.8359v0.875h5.918v1.9609h-5.918v0.875c0 1.8477 1.1211 2.8359 2.9297 2.8359h3.9414v1.9805z"></path>
        <path d="m197.38 70.652h1.9609l1.2188 1.5586 1.2383-1.5586h1.9024l-1.9805 2.7578h-2.3594zm8.3555 12.312v0.09375c0 3.0117-2 4.6289-5.1758 4.6289-3.1797 0-5.1953-1.6758-5.1953-4.8164v-4.0938c0-3.1211 2.0156-4.793 5.2344-4.793 3.1367 0 5.1367 1.6172 5.1367 4.6211v0.07813h-2.2617v-0.07813c0-1.7109-1.1055-2.6641-2.875-2.6641-1.8477 0-2.9688 1.0117-2.9688 2.8359v4.0938c0 1.8477 1.1211 2.8359 2.9297 2.8359 1.8086 0 2.9141-0.93359 2.9141-2.6484v-0.09375z"></path>
        <path d="m210.13 78.32v9.1758h-2.2656v-13.324h2.1133l5.8984 9.1758v-9.1758h2.2656v13.324h-2.1133z"></path>
        <path d="m228.63 78.777c0-1.8281-1.1445-2.8359-2.9531-2.8359-1.8438 0-2.9844 1.0078-2.9844 2.8359v4.0938c0 1.8477 1.1406 2.8359 2.9492 2.8359 1.8438 0 2.9883-0.98828 2.9883-2.8359zm2.2656 4.0938c0 3.1406-2.0391 4.8164-5.2539 4.8164-3.1797 0-5.2188-1.6758-5.2188-4.8164v-4.0938c0-3.1211 2.0391-4.793 5.2539-4.793 3.1797 0 5.2188 1.6719 5.2188 4.793z"></path>
        <path d="m238.8 82.051-2.3594-0.41797c-2.1719-0.39844-3.4844-1.6172-3.4844-3.6719 0-2.6484 1.8281-3.9805 4.9297-3.9805 3.082 0 4.9102 1.3516 4.9102 4.0352v0.25h-2.2656v-0.25c0-1.3711-0.92968-2.0742-2.6445-2.0742-1.7344 0-2.6094 0.60938-2.6094 1.8672 0 0.96875 0.6875 1.5586 1.7109 1.75l2.3633 0.41797c2.2656 0.42188 3.4844 1.6406 3.4844 3.6562 0 2.7188-1.8867 4.0547-4.9688 4.0547s-4.9688-1.3516-4.9688-4.0391v-0.24219h2.2656v0.24219c0 1.3711 0.98828 2.0586 2.7031 2.0586 1.7344 0 2.6445-0.57031 2.6445-1.9023 0-0.99219-0.68359-1.5625-1.7109-1.7539"></path>
        <path d="m243.93 74.172h10.414v1.9609h-4.3242v6.5469c0 1.8477 1.1445 2.8359 2.9726 2.8359h1.3516v1.9805h-1.3516c-3.1992 0-5.2188-1.6758-5.2188-4.8164v-6.5469h-3.8438z"></path>
        <path d="m51.312 74.777c-5.8945-9.9805-4.9062-23.469 2.4297-32.457 3.5586-4.5742 8.5703-7.8555 14.074-9.5547-16.375 2.707-30.273 13.098-38.176 27.508 7.7617 14.156 21.316 24.445 37.32 27.363-6.5234-2.2305-12.199-6.8867-15.648-12.859"></path>
        <path d="m84.988 32.797c8.3633 2.6055 15.348 9.2422 18.34 17.48 2.7383 7.2578 2.3086 15.625-1.0703 22.598l-1.082 1.9062c-3.4062 6.2031-9.3203 10.746-15.996 12.938 16.207-2.8047 29.949-13.148 37.785-27.445-7.8672-14.348-21.688-24.719-37.977-27.477"></path>
        <path d="m62.723 72.363c-3.125 1.4453-6.5 2.3594-9.9375 2.6602 0 0.05859-0.0039 0.17578-0.0039 0.23828 8.668 0.33984 16.703 5.375 21.707 12.332-0.33594-1.2734-1.0234-2.4141-1.3633-3.6836-0.66016-1.9883-1.0664-4.0547-1.2656-6.1406-3.5781-0.85156-6.7383-2.7695-9.1367-5.4062"></path>
        <path d="m58.762 55.211c-1.3867-0.99219-2.6836-2.1055-3.8672-3.3438-1.3203-1.168-2.1875-2.7266-3.3594-4.0273 3.25 6.8711 3.9336 14.992 1.3477 22.188-0.42969 1.3359-1.1016 2.5781-1.582 3.8906 2-3.1367 4.625-5.8398 7.6562-7.9727-0.59375-1.7891-0.92578-3.6914-0.92578-5.6758 0-1.7578 0.26172-3.4531 0.73047-5.0586"></path>
        <path d="m71.945 42.746c0.39844-3.1133 1.2734-6.1836 2.5312-9.0586-4.7812 6.6992-12.336 11.488-20.59 12.301-0.49219 0.03516-0.98438 0.05859-1.4453 0.25 3.3984 0.21484 6.7227 1.0742 9.8086 2.457 2.4648-2.9297 5.8438-5.0508 9.6953-5.9492"></path>
        <path d="m96.293 74.727c-2.4922-0.35156-4.918-1.0586-7.2188-2.0625-2.5742 2.707-5.9766 4.6133-9.8086 5.3047-0.34375 3.3203-1.2344 6.5898-2.5938 9.6328 0.40234-0.39844 0.74609-0.85547 1.0781-1.3125 4.9883-6.6094 12.98-10.656 21.176-11.23-0.84766-0.29688-1.75-0.24609-2.6328-0.33203"></path>
        <path d="m89.555 48.402c2.5273-1.043 5.207-1.707 7.9492-1.9023-0.14844-0.69141-1.0703-0.5-1.5898-0.69141-7.7539-1.1641-14.68-5.8281-19.242-12.117 1.0469 2.6914 2.0938 5.418 2.4648 8.3047 0.02734 0.1875 0.03516 0.375 0.0625 0.5625 4.1016 0.72656 7.7148 2.8398 10.355 5.8438"></path>
        <path d="m92.988 66.285c2.8594 2.1367 5.2773 4.8594 7.0391 8.1562l-0.07031-0.40234c-4.8281-8.4609-4.5-18.715 0.3125-27.207-1.8789 3.0195-4.3242 5.6602-7.1367 7.8086 0.58203 1.7734 0.90625 3.6641 0.90625 5.6289 0 2.1133-0.38281 4.1328-1.0508 6.0156"></path>
        <path d="m71.945 50.012c1.2305-0.47656 2.5625-0.75 3.9648-0.75 1.1406 0 2.2422 0.17578 3.2773 0.49609 0.30469-2.3828 0.32422-4.8008 0.01172-7.1992-1.0273-0.18359-2.082-0.29688-3.1641-0.29688-1.4062 0-2.7734 0.17969-4.0898 0.48438-0.30469 2.4141-0.32812 4.8555 0 7.2656"></path>
        <path d="m82.75 68.879c1.9414 1.5195 4.0703 2.7969 6.3242 3.7852 1.7227-1.8086 3.0625-3.9766 3.9141-6.3789-1.9375-1.4492-4.0859-2.6172-6.3672-3.5156-0.57422 2.457-1.9609 4.5938-3.8711 6.1094"></path>
        <path d="m86.738 58.359c2.2734-0.96875 4.4258-2.2188 6.3945-3.7188-0.76953-2.3281-1.9961-4.4375-3.5781-6.2383-2.2578 0.93359-4.3906 2.168-6.3477 3.6445 1.8164 1.6172 3.0938 3.8164 3.5312 6.3125"></path>
        <path d="m65.16 62.609c-2.1914 0.85938-4.2812 1.9805-6.2031 3.3359 0.79688 2.4062 2.0977 4.582 3.7656 6.418 2.1562-0.99609 4.1875-2.2461 6.0352-3.7383-1.7891-1.5352-3.082-3.6289-3.5977-6.0156"></path>
        <path d="m79.129 70.793c-1.0156 0.3125-2.0977 0.48047-3.2188 0.48047-1.3438 0-2.6289-0.25-3.8203-0.69531-0.37891 2.3789-0.45703 4.7969-0.23047 7.1914 1.3438 0.32031 2.7344 0.50391 4.1758 0.50391 1.1055 0 2.1797-0.11328 3.2305-0.30469 0.25-2.3867 0.21875-4.8008-0.13672-7.1758"></path>
        <path d="m68.301 52.328c-1.8633-1.4414-3.8984-2.668-6.0508-3.6328-1.582 1.8828-2.7773 4.0938-3.4883 6.5156 1.9414 1.3867 4.0625 2.5156 6.2812 3.3906 0.375-2.4492 1.5469-4.6328 3.2578-6.2734"></path>
        <path d="m74.289 62.871c-0.92578 0.87109-1.5898 1.9727-2.4766 2.8789-0.94141 1.0391-1.9688 1.9961-3.0547 2.875 0.97656 0.83984 2.1016 1.5 3.332 1.9531 0.32812-2.0508 0.85938-4.0703 1.6445-6 0.22656-0.55469 0.41797-1.1211 0.55469-1.707"></path>
        <path d="m72.676 60.539c-2.6133-0.3125-5.1836-0.97266-7.6328-1.9375-0.08203 0.54688-0.14062 1.0977-0.14062 1.668 0 0.80469 0.09375 1.5859 0.25781 2.3398 2.1523-0.84375 4.4023-1.4453 6.7031-1.7461 0.31641 0.0078 0.58984-0.09766 0.8125-0.32422"></path>
        <path d="m74.484 58.852c-0.46875-1.6953-1.3281-3.2695-1.7148-4.9961-0.37891-1.2656-0.65234-2.5508-0.82422-3.8438-1.3672 0.53125-2.6016 1.3203-3.6445 2.3164 2.3789 1.8398 4.4805 4.0352 6.1836 6.5234"></path>
        <path d="m78.766 65.121c-0.60547-0.76562-1.1641-1.582-1.8906-2.2383 0.32812 1.3047 0.9375 2.5234 1.3125 3.8203 0.42969 1.3398 0.73828 2.7109 0.94141 4.0898 1.3359-0.40625 2.5586-1.0664 3.6211-1.9102-1.4414-1.1289-2.7812-2.3867-3.9844-3.7617"></path>
        <path d="m83.207 52.047c-1.1523-1.0234-2.5117-1.8164-4.0195-2.2891-0.42188 3.3047-1.375 6.5352-2.7969 9.5547 1.8242-2.7812 4.1523-5.2461 6.8164-7.2656"></path>
        <path d="m79.773 60.949c2.375 0.35156 4.6719 0.96094 6.8477 1.8203 0.1875-0.80469 0.29297-1.6367 0.29297-2.5 0-0.65234-0.06641-1.2891-0.17578-1.9102-3.0352 1.293-6.2812 2.0898-9.6016 2.2617 0.84766 0.30469 1.7578 0.23047 2.6367 0.32812"></path>
    </g>
</svg>