<svg xmlns="http://www.w3.org/2000/svg" version="1.0"
viewBox = "0 0 1000 1000"
width="1000"
height="1000">
<g fill="None" fill-opacity="0.0" stroke="#000000" stroke-opacity="0.00" stroke-width="0.3"><path d="
M 0.00 459.00 
C 0.50 459.00 1.00 459.00 1.00 459.00
C -0.03 423.21 13.17 381.96 21.98 348.98 C 30.78 315.99 46.62 286.20 61.77 256.77 C 76.92 227.34 95.00 204.56 116.00 179.00
C 117.23 177.50 118.46 175.57 120.00 174.00
C 149.14 144.28 173.07 115.62 208.25 92.25 C 243.43 68.87 277.79 48.37 319.22 32.22 C 360.66 16.08 413.08 5.15 459.00 1.00
C 458.75 0.74 459.00 0.00 459.00 0.00
L 0.00 0.00
L 0.00 459.00 Z"/>
</g>
<g fill="None" fill-opacity="0.0" stroke="#F8F8F8" stroke-opacity="0.28" stroke-width="0.3"><path d="
M 459.00 1.00 
C 461.62 3.71 471.67 0.55 475.00 0.00
L 459.00 0.00
C 459.00 0.00 458.75 0.74 459.00 1.00 Z"/>
</g>
<g fill="None" fill-opacity="0.0" stroke="#" stroke-opacity="0.95" stroke-width="0.3"><path d="
M 459.00 1.00 
C 413.08 5.15 360.66 16.08 319.22 32.22 C 277.79 48.37 243.43 68.87 208.25 92.25 C 173.07 115.62 149.14 144.28 120.00 174.00
C 118.10 176.92 117.68 177.82 116.00 179.00
C 95.00 204.56 76.92 227.34 61.77 256.77 C 46.62 286.20 30.78 315.99 21.98 348.98 C 13.17 381.96 -0.03 423.21 1.00 459.00
C 3.71 461.61 0.55 471.68 0.00 475.00
L 0.00 525.00
C 0.50 528.43 3.76 538.33 1.00 541.00
C 4.20 576.35 11.17 617.62 21.92 650.08 C 32.67 682.54 44.86 713.38 60.92 742.08 C 76.99 770.77 93.55 794.89 114.25 819.75 C 134.95 844.61 154.69 864.95 179.75 885.25 C 204.80 905.55 228.40 923.60 257.25 938.75 C 286.09 953.91 316.49 969.00 349.08 977.92 C 381.66 986.85 423.45 1000.03 459.00 999.00
C 461.62 996.29 471.68 999.45 475.00 1000.00
L 525.00 1000.00
C 528.43 999.50 538.33 996.24 541.00 999.00
C 576.35 995.83 617.62 988.82 650.08 978.08 C 682.54 967.34 713.38 955.14 742.08 939.08 C 770.77 923.01 794.89 906.45 819.75 885.75 C 844.61 865.06 864.95 845.31 885.25 820.25 C 905.56 795.20 923.60 771.60 938.75 742.75 C 953.91 713.91 969.00 683.51 977.92 650.92 C 986.85 618.34 1000.03 576.55 999.00 541.00
C 996.29 538.38 999.45 528.33 1000.00 525.00
L 1000.00 475.00
C 999.50 471.57 996.24 461.67 999.00 459.00
C 989.51 353.24 950.23 259.63 884.00 179.00
C 882.28 177.79 881.90 176.93 880.00 174.00
C 858.63 152.21 840.77 128.75 815.70 110.30 C 790.63 91.84 767.10 73.47 738.77 59.23 C 710.44 44.99 680.76 29.63 648.78 21.22 C 616.79 12.82 575.75 -0.00 541.00 1.00
C 538.38 3.71 528.33 0.55 525.00 0.00
L 475.00 0.00
C 471.67 0.55 461.62 3.71 459.00 1.00
M 526.00 32.00 
C 567.64 36.03 617.00 44.54 655.22 58.78 C 693.45 73.01 726.80 88.24 759.23 110.77 C 791.66 133.30 817.45 153.57 843.75 182.25 C 870.05 210.93 889.34 238.76 908.92 273.08 C 928.51 307.39 942.87 344.43 953.32 384.68 C 963.78 424.93 970.58 481.94 967.67 525.67 C 964.76 569.40 955.18 616.24 941.22 655.22 C 927.27 694.21 911.63 726.46 889.23 759.23 C 866.83 792.00 846.37 817.30 817.75 843.75 C 789.13 870.21 761.22 889.27 726.92 908.92 C 692.63 928.58 655.56 942.84 615.32 953.32 C 575.08 963.81 518.06 970.56 474.33 967.67 C 430.60 964.78 383.76 955.17 344.78 941.22 C 305.79 927.28 273.54 911.63 240.77 889.23 C 208.00 866.83 182.70 846.37 156.25 817.75 C 129.79 789.13 110.73 761.21 91.08 726.92 C 71.42 692.64 57.17 655.55 46.68 615.32 C 36.19 575.09 29.41 518.05 32.33 474.33 C 35.25 430.61 44.80 383.73 58.78 344.78 C 72.76 305.83 88.31 273.47 110.77 240.77 C 133.23 208.07 153.50 182.54 182.25 156.25 C 211.00 129.96 238.50 110.35 273.08 91.08 C 307.65 71.80 343.81 56.32 384.68 46.68 C 425.55 37.03 480.77 27.62 526.00 32.00 Z"/>
</g>
<g fill="None" fill-opacity="0.0" stroke="#F8F8F8" stroke-opacity="0.28" stroke-width="0.3"><path d="
M 541.00 1.00 
C 541.25 0.74 541.00 0.00 541.00 0.00
L 525.00 0.00
C 528.33 0.55 538.38 3.71 541.00 1.00 Z"/>
</g>
<g fill="None" fill-opacity="0.0" stroke="#000000" stroke-opacity="0.00" stroke-width="0.3"><path d="
M 541.00 1.00 
C 575.75 -0.00 616.79 12.82 648.78 21.22 C 680.76 29.63 710.44 44.99 738.77 59.23 C 767.10 73.47 790.63 91.84 815.70 110.30 C 840.77 128.75 858.63 152.21 880.00 174.00
C 881.63 175.67 882.74 177.46 884.00 179.00
C 950.23 259.63 989.51 353.24 999.00 459.00
C 999.26 458.75 1000.00 459.00 1000.00 459.00
L 1000.00 0.00
L 541.00 0.00
C 541.00 0.00 541.25 0.74 541.00 1.00 Z"/>
</g>
<g fill="None" fill-opacity="0.0" stroke="#000000" stroke-opacity="0.00" stroke-width="0.3"><path d="
M 526.00 32.00 
C 480.77 27.62 425.55 37.03 384.68 46.68 C 343.81 56.32 307.65 71.80 273.08 91.08 C 238.50 110.35 211.00 129.96 182.25 156.25 C 153.50 182.54 133.23 208.07 110.77 240.77 C 88.31 273.47 72.76 305.83 58.78 344.78 C 44.80 383.73 35.25 430.61 32.33 474.33 C 29.41 518.05 36.19 575.09 46.68 615.32 C 57.17 655.55 71.42 692.64 91.08 726.92 C 110.73 761.21 129.79 789.13 156.25 817.75 C 182.70 846.37 208.00 866.83 240.77 889.23 C 273.54 911.63 305.79 927.28 344.78 941.22 C 383.76 955.17 430.60 964.78 474.33 967.67 C 518.06 970.56 575.08 963.81 615.32 953.32 C 655.56 942.84 692.63 928.58 726.92 908.92 C 761.22 889.27 789.13 870.21 817.75 843.75 C 846.37 817.30 866.83 792.00 889.23 759.23 C 911.63 726.46 927.27 694.21 941.22 655.22 C 955.18 616.24 964.76 569.40 967.67 525.67 C 970.58 481.94 963.78 424.93 953.32 384.68 C 942.87 344.43 928.51 307.39 908.92 273.08 C 889.34 238.76 870.05 210.93 843.75 182.25 C 817.45 153.57 791.66 133.30 759.23 110.77 C 726.80 88.24 693.45 73.01 655.22 58.78 C 617.00 44.54 567.64 36.03 526.00 32.00
M 546.00 136.00 
C 547.98 137.69 550.21 139.44 552.00 141.00
C 568.53 155.41 590.45 176.51 615.00 164.00 C 639.55 151.49 672.79 167.95 664.01 198.01 C 655.23 228.07 622.96 219.58 604.26 206.74 C 585.56 193.90 567.44 182.13 547.75 170.25 C 528.07 158.36 496.81 148.75 473.98 156.98 C 451.14 165.20 431.76 174.22 413.00 189.00
C 411.81 189.94 410.01 191.18 409.00 192.00
C 400.88 198.55 393.41 205.92 385.77 212.77 C 378.13 219.62 371.36 227.53 364.25 235.25 C 357.13 242.97 350.96 251.25 344.70 259.70 C 338.44 268.15 332.54 277.00 327.23 286.23 C 321.92 295.46 316.57 304.48 312.08 315.08 C 307.59 325.67 303.82 335.98 300.67 347.67 C 297.52 359.36 295.28 375.15 296.00 388.00 C 296.72 400.85 301.47 409.72 311.22 416.78 C 320.97 423.83 330.09 427.10 342.22 429.78 C 354.36 432.46 368.01 433.07 381.00 435.00 C 393.99 436.93 410.29 435.28 424.00 436.00 C 437.71 436.72 452.35 437.66 466.07 436.07 C 479.80 434.49 496.19 437.36 509.67 435.67 C 523.15 433.98 537.81 433.17 551.00 432.00 C 564.19 430.83 576.53 427.66 589.02 426.02 C 601.52 424.39 612.77 420.34 624.23 417.23 C 635.69 414.12 646.67 410.63 657.08 406.08 C 667.48 401.52 675.97 395.97 684.30 389.30 C 692.63 382.63 701.88 373.20 694.25 362.75 C 686.61 352.31 691.81 337.52 706.00 337.00 C 720.19 336.48 724.70 353.13 717.75 363.75 C 710.79 374.36 718.92 389.83 731.01 390.99 C 743.10 392.15 756.99 393.65 757.00 409.00 C 757.00 424.36 742.72 427.34 731.75 422.25 C 720.79 417.15 721.53 402.91 710.32 399.68 C 699.12 396.45 690.06 407.82 681.25 413.25 C 672.45 418.68 665.08 426.06 655.77 431.77 C 646.46 437.48 637.71 443.56 627.78 448.78 C 617.85 454.00 607.97 458.08 596.98 461.98 C 585.98 465.87 574.14 469.32 562.00 471.00 C 549.86 472.67 533.34 473.08 521.00 474.00 C 508.66 474.91 495.75 477.30 484.92 481.92 C 474.10 486.55 466.54 490.86 457.75 498.75 C 448.96 506.65 443.85 513.48 438.08 523.08 C 432.31 532.68 427.58 543.78 425.01 555.01 C 422.43 566.24 418.60 581.57 423.31 592.69 C 428.01 603.82 435.13 609.25 445.70 614.30 C 456.27 619.36 468.18 621.79 480.00 624.00 C 491.82 626.21 505.31 628.58 517.22 630.78 C 529.14 632.97 543.31 633.92 554.67 637.33 C 566.03 640.73 576.81 643.76 587.22 648.78 C 597.63 653.80 605.50 659.71 613.10 667.90 C 620.70 676.09 625.29 685.88 628.00 697.00 C 630.70 708.12 632.83 724.16 631.00 736.00 C 629.17 747.84 626.25 760.37 622.08 771.08 C 617.91 781.78 613.74 791.34 607.70 800.70 C 601.65 810.05 596.28 817.88 588.75 825.75 C 581.23 833.63 575.01 840.41 566.25 847.25 C 557.48 854.08 547.94 858.14 537.31 863.31 C 526.67 868.47 510.57 868.16 498.00 868.00 C 485.43 867.84 473.45 863.82 461.98 860.03 C 450.50 856.23 442.18 851.53 430.93 847.07 C 419.67 842.62 413.23 835.02 399.93 834.07 C 386.63 833.13 384.67 852.36 396.25 857.75 C 407.82 863.15 404.97 880.75 393.77 885.77 C 382.57 890.79 366.43 877.98 372.00 865.00 C 377.57 852.02 354.91 845.99 346.92 849.93 C 338.94 853.87 331.09 869.99 318.77 862.23 C 306.45 854.47 309.25 839.98 319.08 834.08 C 328.90 828.17 344.61 840.54 351.90 830.90 C 359.19 821.26 367.11 812.12 362.22 800.78 C 357.34 789.43 340.86 790.06 344.93 775.93 C 349.00 761.79 364.33 760.86 372.30 769.70 C 380.27 778.54 369.52 793.44 379.23 800.77 C 388.94 808.10 394.99 813.01 406.23 817.77 C 417.47 822.53 426.38 826.45 438.22 829.78 C 450.07 833.10 463.25 835.61 476.00 836.00 C 488.75 836.39 503.06 835.34 513.69 829.70 C 524.33 824.05 531.15 819.87 538.75 810.75 C 546.35 801.64 550.91 793.12 554.98 781.98 C 559.04 770.83 561.48 758.16 563.00 746.00 C 564.52 733.84 565.48 717.46 560.70 706.31 C 555.91 695.15 549.30 689.90 538.97 684.03 C 528.65 678.15 518.55 674.84 507.00 672.00 C 495.44 669.16 483.01 665.86 471.00 664.00 C 458.99 662.14 445.77 659.52 433.99 657.01 C 422.21 654.49 409.45 651.42 398.33 647.67 C 387.21 643.92 378.85 638.67 369.92 632.08 C 360.98 625.49 355.30 617.59 351.67 606.33 C 348.05 595.06 348.35 578.02 350.33 566.33 C 352.31 554.64 355.60 542.85 360.78 532.78 C 365.95 522.70 371.70 514.88 379.25 507.25 C 386.80 499.62 394.24 493.39 404.08 488.08 C 413.91 482.76 424.61 476.41 436.00 475.00
C 436.13 474.96 436.00 474.00 436.00 474.00
C 384.27 479.78 325.47 479.45 278.32 459.68 C 231.17 439.90 239.01 370.45 257.26 332.26 C 275.50 294.06 297.87 257.80 326.10 224.10 C 354.33 190.40 380.49 165.35 416.75 137.75 C 453.01 110.15 508.03 103.55 546.00 136.00 Z"/>
</g>
<g fill="None" fill-opacity="0.0" stroke="#" stroke-opacity="0.96" stroke-width="0.3"><path d="
M 436.00 474.00 
C 438.67 473.70 442.84 471.48 445.00 474.00
C 441.99 474.21 439.23 475.56 436.00 475.00
C 424.61 476.41 413.91 482.76 404.08 488.08 C 394.24 493.39 386.80 499.62 379.25 507.25 C 371.70 514.88 365.95 522.70 360.78 532.78 C 355.60 542.85 352.31 554.64 350.33 566.33 C 348.35 578.02 348.05 595.06 351.67 606.33 C 355.30 617.59 360.98 625.49 369.92 632.08 C 378.85 638.67 387.21 643.92 398.33 647.67 C 409.45 651.42 422.21 654.49 433.99 657.01 C 445.77 659.52 458.99 662.14 471.00 664.00 C 483.01 665.86 495.44 669.16 507.00 672.00 C 518.55 674.84 528.65 678.15 538.97 684.03 C 549.30 689.90 555.91 695.15 560.70 706.31 C 565.48 717.46 564.52 733.84 563.00 746.00 C 561.48 758.16 559.04 770.83 554.98 781.98 C 550.91 793.12 546.35 801.64 538.75 810.75 C 531.15 819.87 524.33 824.05 513.69 829.70 C 503.06 835.34 488.75 836.39 476.00 836.00 C 463.25 835.61 450.07 833.10 438.22 829.78 C 426.38 826.45 417.47 822.53 406.23 817.77 C 394.99 813.01 388.94 808.10 379.23 800.77 C 369.52 793.44 380.27 778.54 372.30 769.70 C 364.33 760.86 349.00 761.79 344.93 775.93 C 340.86 790.06 357.34 789.43 362.22 800.78 C 367.11 812.12 359.19 821.26 351.90 830.90 C 344.61 840.54 328.90 828.17 319.08 834.08 C 309.25 839.98 306.45 854.47 318.77 862.23 C 331.09 869.99 338.94 853.87 346.92 849.93 C 354.91 845.99 377.57 852.02 372.00 865.00 C 366.43 877.98 382.57 890.79 393.77 885.77 C 404.97 880.75 407.82 863.15 396.25 857.75 C 384.67 852.36 386.63 833.13 399.93 834.07 C 413.23 835.02 419.67 842.62 430.93 847.07 C 442.18 851.53 450.50 856.23 461.98 860.03 C 473.45 863.82 485.43 867.84 498.00 868.00 C 510.57 868.16 526.67 868.47 537.31 863.31 C 547.94 858.14 557.48 854.08 566.25 847.25 C 575.01 840.41 581.23 833.63 588.75 825.75 C 596.28 817.88 601.65 810.05 607.70 800.70 C 613.74 791.34 617.91 781.78 622.08 771.08 C 626.25 760.37 629.17 747.84 631.00 736.00 C 632.83 724.16 630.70 708.12 628.00 697.00 C 625.29 685.88 620.70 676.09 613.10 667.90 C 605.50 659.71 597.63 653.80 587.22 648.78 C 576.81 643.76 566.03 640.73 554.67 637.33 C 543.31 633.92 529.14 632.97 517.22 630.78 C 505.31 628.58 491.82 626.21 480.00 624.00 C 468.18 621.79 456.27 619.36 445.70 614.30 C 435.13 609.25 428.01 603.82 423.31 592.69 C 418.60 581.57 422.43 566.24 425.01 555.01 C 427.58 543.78 432.31 532.68 438.08 523.08 C 443.85 513.48 448.96 506.65 457.75 498.75 C 466.54 490.86 474.10 486.55 484.92 481.92 C 495.75 477.30 508.66 474.91 521.00 474.00 C 533.34 473.08 549.86 472.67 562.00 471.00 C 574.14 469.32 585.98 465.87 596.98 461.98 C 607.97 458.08 617.85 454.00 627.78 448.78 C 637.71 443.56 646.46 437.48 655.77 431.77 C 665.08 426.06 672.45 418.68 681.25 413.25 C 690.06 407.82 699.12 396.45 710.32 399.68 C 721.53 402.91 720.79 417.15 731.75 422.25 C 742.72 427.34 757.00 424.36 757.00 409.00 C 756.99 393.65 743.10 392.15 731.01 390.99 C 718.92 389.83 710.79 374.36 717.75 363.75 C 724.70 353.13 720.19 336.48 706.00 337.00 C 691.81 337.52 686.61 352.31 694.25 362.75 C 701.88 373.20 692.63 382.63 684.30 389.30 C 675.97 395.97 667.48 401.52 657.08 406.08 C 646.67 410.63 635.69 414.12 624.23 417.23 C 612.77 420.34 601.52 424.39 589.02 426.02 C 576.53 427.66 564.19 430.83 551.00 432.00 C 537.81 433.17 523.15 433.98 509.67 435.67 C 496.19 437.36 479.80 434.49 466.07 436.07 C 452.35 437.66 437.71 436.72 424.00 436.00 C 410.29 435.28 393.99 436.93 381.00 435.00 C 368.01 433.07 354.36 432.46 342.22 429.78 C 330.09 427.10 320.97 423.83 311.22 416.78 C 301.47 409.72 296.72 400.85 296.00 388.00 C 295.28 375.15 297.52 359.36 300.67 347.67 C 303.82 335.98 307.59 325.67 312.08 315.08 C 316.57 304.48 321.92 295.46 327.23 286.23 C 332.54 277.00 338.44 268.15 344.70 259.70 C 350.96 251.25 357.13 242.97 364.25 235.25 C 371.36 227.53 378.13 219.62 385.77 212.77 C 393.41 205.92 400.88 198.55 409.00 192.00
C 410.07 190.50 410.07 190.45 413.00 189.00
C 431.76 174.22 451.14 165.20 473.98 156.98 C 496.81 148.75 528.07 158.36 547.75 170.25 C 567.44 182.13 585.56 193.90 604.26 206.74 C 622.96 219.58 655.23 228.07 664.01 198.01 C 672.79 167.95 639.55 151.49 615.00 164.00 C 590.45 176.51 568.53 155.41 552.00 141.00
C 549.60 139.69 548.64 139.03 546.00 136.00
C 508.03 103.55 453.01 110.15 416.75 137.75 C 380.49 165.35 354.33 190.40 326.10 224.10 C 297.87 257.80 275.50 294.06 257.26 332.26 C 239.01 370.45 231.17 439.90 278.32 459.68 C 325.47 479.45 384.27 479.78 436.00 474.00
M 432.00 437.00 
C 428.91 439.19 423.84 437.43 420.00 438.00
C 423.09 435.82 428.16 437.57 432.00 437.00 Z"/>
</g>
<g fill="None" fill-opacity="0.0" stroke="#FBFBFB" stroke-opacity="0.31" stroke-width="0.3"><path d="
M 552.00 141.00 
C 550.21 139.44 547.98 137.69 546.00 136.00
C 548.64 139.03 549.60 139.69 552.00 141.00 Z"/>
</g>
<g fill="None" fill-opacity="0.0" stroke="#FBFBFB" stroke-opacity="0.37" stroke-width="0.3"><path d="
M 116.00 179.00 
C 117.68 177.82 118.10 176.92 120.00 174.00
C 118.46 175.57 117.23 177.50 116.00 179.00 Z"/>
</g>
<g fill="None" fill-opacity="0.0" stroke="#FBFBFB" stroke-opacity="0.37" stroke-width="0.3"><path d="
M 884.00 179.00 
C 882.74 177.46 881.63 175.67 880.00 174.00
C 881.90 176.93 882.28 177.79 884.00 179.00 Z"/>
</g>
<g fill="None" fill-opacity="0.0" stroke="#FAFAFA" stroke-opacity="0.48" stroke-width="0.3"><path d="
M 409.00 192.00 
C 410.01 191.18 411.81 189.94 413.00 189.00
C 410.07 190.45 410.07 190.50 409.00 192.00 Z"/>
</g>
<g fill="None" fill-opacity="0.0" stroke="#" stroke-opacity="0.53" stroke-width="0.3"><path d="
M 432.00 437.00 
C 428.16 437.57 423.09 435.82 420.00 438.00
C 423.84 437.43 428.91 439.19 432.00 437.00 Z"/>
</g>
<g fill="None" fill-opacity="0.0" stroke="#F8F8F8" stroke-opacity="0.28" stroke-width="0.3"><path d="
M 0.00 475.00 
C 0.55 471.68 3.71 461.61 1.00 459.00
C 1.00 459.00 0.50 459.00 0.00 459.00
L 0.00 475.00 Z"/>
</g>
<g fill="None" fill-opacity="0.0" stroke="#F8F8F8" stroke-opacity="0.28" stroke-width="0.3"><path d="
M 1000.00 475.00 
L 1000.00 459.00
C 1000.00 459.00 999.26 458.75 999.00 459.00
C 996.24 461.67 999.50 471.57 1000.00 475.00 Z"/>
</g>
<g fill="None" fill-opacity="0.0" stroke="#F8F8F8" stroke-opacity="0.47" stroke-width="0.3"><path d="
M 436.00 474.00 
C 436.00 474.00 436.13 474.96 436.00 475.00
C 439.23 475.56 441.99 474.21 445.00 474.00
C 442.84 471.48 438.67 473.70 436.00 474.00 Z"/>
</g>
<g fill="None" fill-opacity="0.0" stroke="#F8F8F8" stroke-opacity="0.28" stroke-width="0.3"><path d="
M 0.00 541.00 
C 0.50 541.00 1.00 541.00 1.00 541.00
C 3.76 538.33 0.50 528.43 0.00 525.00
L 0.00 541.00 Z"/>
</g>
<g fill="None" fill-opacity="0.0" stroke="#F8F8F8" stroke-opacity="0.28" stroke-width="0.3"><path d="
M 999.00 541.00 
C 999.26 541.25 1000.00 541.00 1000.00 541.00
L 1000.00 525.00
C 999.45 528.33 996.29 538.38 999.00 541.00 Z"/>
</g>
<g fill="None" fill-opacity="0.0" stroke="#000000" stroke-opacity="0.00" stroke-width="0.3"><path d="
M 0.00 1000.00 
L 459.00 1000.00
C 459.00 999.50 459.00 999.00 459.00 999.00
C 423.45 1000.03 381.66 986.85 349.08 977.92 C 316.49 969.00 286.09 953.91 257.25 938.75 C 228.40 923.60 204.80 905.55 179.75 885.25 C 154.69 864.95 134.95 844.61 114.25 819.75 C 93.55 794.89 76.99 770.77 60.92 742.08 C 44.86 713.38 32.67 682.54 21.92 650.08 C 11.17 617.62 4.20 576.35 1.00 541.00
C 1.00 541.00 0.50 541.00 0.00 541.00
L 0.00 1000.00 Z"/>
</g>
<g fill="None" fill-opacity="0.0" stroke="#000000" stroke-opacity="0.00" stroke-width="0.3"><path d="
M 541.00 999.00 
C 541.25 999.26 541.00 1000.00 541.00 1000.00
L 1000.00 1000.00
L 1000.00 541.00
C 1000.00 541.00 999.26 541.25 999.00 541.00
C 1000.03 576.55 986.85 618.34 977.92 650.92 C 969.00 683.51 953.91 713.91 938.75 742.75 C 923.60 771.60 905.56 795.20 885.25 820.25 C 864.95 845.31 844.61 865.06 819.75 885.75 C 794.89 906.45 770.77 923.01 742.08 939.08 C 713.38 955.14 682.54 967.34 650.08 978.08 C 617.62 988.82 576.35 995.83 541.00 999.00 Z"/>
</g>
<g fill="None" fill-opacity="0.0" stroke="#F8F8F8" stroke-opacity="0.28" stroke-width="0.3"><path d="
M 459.00 999.00 
C 459.00 999.00 459.00 999.50 459.00 1000.00
L 475.00 1000.00
C 471.68 999.45 461.62 996.29 459.00 999.00 Z"/>
</g>
<g fill="None" fill-opacity="0.0" stroke="#F8F8F8" stroke-opacity="0.28" stroke-width="0.3"><path d="
M 525.00 1000.00 
L 541.00 1000.00
C 541.00 1000.00 541.25 999.26 541.00 999.00
C 538.33 996.24 528.43 999.50 525.00 1000.00 Z"/>
</g>
<g fill="#000000" fill-opacity="0.00" stroke="None">
<path d="
M 0.00 459.00 
C 0.50 459.00 1.00 459.00 1.00 459.00
C -0.03 423.21 13.17 381.96 21.98 348.98 C 30.78 315.99 46.62 286.20 61.77 256.77 C 76.92 227.34 95.00 204.56 116.00 179.00
C 117.23 177.50 118.46 175.57 120.00 174.00
C 149.14 144.28 173.07 115.62 208.25 92.25 C 243.43 68.87 277.79 48.37 319.22 32.22 C 360.66 16.08 413.08 5.15 459.00 1.00
C 458.75 0.74 459.00 0.00 459.00 0.00
L 0.00 0.00
L 0.00 459.00 Z"/>
</g>
<g fill="#F8F8F8" fill-opacity="0.28" stroke="None">
<path d="
M 459.00 1.00 
C 461.62 3.71 471.67 0.55 475.00 0.00
L 459.00 0.00
C 459.00 0.00 458.75 0.74 459.00 1.00 Z"/>
</g>
<g fill="#" fill-opacity="0.95" stroke="None">
<path d="
M 459.00 1.00 
C 413.08 5.15 360.66 16.08 319.22 32.22 C 277.79 48.37 243.43 68.87 208.25 92.25 C 173.07 115.62 149.14 144.28 120.00 174.00
C 118.10 176.92 117.68 177.82 116.00 179.00
C 95.00 204.56 76.92 227.34 61.77 256.77 C 46.62 286.20 30.78 315.99 21.98 348.98 C 13.17 381.96 -0.03 423.21 1.00 459.00
C 3.71 461.61 0.55 471.68 0.00 475.00
L 0.00 525.00
C 0.50 528.43 3.76 538.33 1.00 541.00
C 4.20 576.35 11.17 617.62 21.92 650.08 C 32.67 682.54 44.86 713.38 60.92 742.08 C 76.99 770.77 93.55 794.89 114.25 819.75 C 134.95 844.61 154.69 864.95 179.75 885.25 C 204.80 905.55 228.40 923.60 257.25 938.75 C 286.09 953.91 316.49 969.00 349.08 977.92 C 381.66 986.85 423.45 1000.03 459.00 999.00
C 461.62 996.29 471.68 999.45 475.00 1000.00
L 525.00 1000.00
C 528.43 999.50 538.33 996.24 541.00 999.00
C 576.35 995.83 617.62 988.82 650.08 978.08 C 682.54 967.34 713.38 955.14 742.08 939.08 C 770.77 923.01 794.89 906.45 819.75 885.75 C 844.61 865.06 864.95 845.31 885.25 820.25 C 905.56 795.20 923.60 771.60 938.75 742.75 C 953.91 713.91 969.00 683.51 977.92 650.92 C 986.85 618.34 1000.03 576.55 999.00 541.00
C 996.29 538.38 999.45 528.33 1000.00 525.00
L 1000.00 475.00
C 999.50 471.57 996.24 461.67 999.00 459.00
C 989.51 353.24 950.23 259.63 884.00 179.00
C 882.28 177.79 881.90 176.93 880.00 174.00
C 858.63 152.21 840.77 128.75 815.70 110.30 C 790.63 91.84 767.10 73.47 738.77 59.23 C 710.44 44.99 680.76 29.63 648.78 21.22 C 616.79 12.82 575.75 -0.00 541.00 1.00
C 538.38 3.71 528.33 0.55 525.00 0.00
L 475.00 0.00
C 471.67 0.55 461.62 3.71 459.00 1.00
M 526.00 32.00 
C 567.64 36.03 617.00 44.54 655.22 58.78 C 693.45 73.01 726.80 88.24 759.23 110.77 C 791.66 133.30 817.45 153.57 843.75 182.25 C 870.05 210.93 889.34 238.76 908.92 273.08 C 928.51 307.39 942.87 344.43 953.32 384.68 C 963.78 424.93 970.58 481.94 967.67 525.67 C 964.76 569.40 955.18 616.24 941.22 655.22 C 927.27 694.21 911.63 726.46 889.23 759.23 C 866.83 792.00 846.37 817.30 817.75 843.75 C 789.13 870.21 761.22 889.27 726.92 908.92 C 692.63 928.58 655.56 942.84 615.32 953.32 C 575.08 963.81 518.06 970.56 474.33 967.67 C 430.60 964.78 383.76 955.17 344.78 941.22 C 305.79 927.28 273.54 911.63 240.77 889.23 C 208.00 866.83 182.70 846.37 156.25 817.75 C 129.79 789.13 110.73 761.21 91.08 726.92 C 71.42 692.64 57.17 655.55 46.68 615.32 C 36.19 575.09 29.41 518.05 32.33 474.33 C 35.25 430.61 44.80 383.73 58.78 344.78 C 72.76 305.83 88.31 273.47 110.77 240.77 C 133.23 208.07 153.50 182.54 182.25 156.25 C 211.00 129.96 238.50 110.35 273.08 91.08 C 307.65 71.80 343.81 56.32 384.68 46.68 C 425.55 37.03 480.77 27.62 526.00 32.00 Z"/>
</g>
<g fill="#F8F8F8" fill-opacity="0.28" stroke="None">
<path d="
M 541.00 1.00 
C 541.25 0.74 541.00 0.00 541.00 0.00
L 525.00 0.00
C 528.33 0.55 538.38 3.71 541.00 1.00 Z"/>
</g>
<g fill="#000000" fill-opacity="0.00" stroke="None">
<path d="
M 541.00 1.00 
C 575.75 -0.00 616.79 12.82 648.78 21.22 C 680.76 29.63 710.44 44.99 738.77 59.23 C 767.10 73.47 790.63 91.84 815.70 110.30 C 840.77 128.75 858.63 152.21 880.00 174.00
C 881.63 175.67 882.74 177.46 884.00 179.00
C 950.23 259.63 989.51 353.24 999.00 459.00
C 999.26 458.75 1000.00 459.00 1000.00 459.00
L 1000.00 0.00
L 541.00 0.00
C 541.00 0.00 541.25 0.74 541.00 1.00 Z"/>
</g>
<g fill="#000000" fill-opacity="0.00" stroke="None">
<path d="
M 526.00 32.00 
C 480.77 27.62 425.55 37.03 384.68 46.68 C 343.81 56.32 307.65 71.80 273.08 91.08 C 238.50 110.35 211.00 129.96 182.25 156.25 C 153.50 182.54 133.23 208.07 110.77 240.77 C 88.31 273.47 72.76 305.83 58.78 344.78 C 44.80 383.73 35.25 430.61 32.33 474.33 C 29.41 518.05 36.19 575.09 46.68 615.32 C 57.17 655.55 71.42 692.64 91.08 726.92 C 110.73 761.21 129.79 789.13 156.25 817.75 C 182.70 846.37 208.00 866.83 240.77 889.23 C 273.54 911.63 305.79 927.28 344.78 941.22 C 383.76 955.17 430.60 964.78 474.33 967.67 C 518.06 970.56 575.08 963.81 615.32 953.32 C 655.56 942.84 692.63 928.58 726.92 908.92 C 761.22 889.27 789.13 870.21 817.75 843.75 C 846.37 817.30 866.83 792.00 889.23 759.23 C 911.63 726.46 927.27 694.21 941.22 655.22 C 955.18 616.24 964.76 569.40 967.67 525.67 C 970.58 481.94 963.78 424.93 953.32 384.68 C 942.87 344.43 928.51 307.39 908.92 273.08 C 889.34 238.76 870.05 210.93 843.75 182.25 C 817.45 153.57 791.66 133.30 759.23 110.77 C 726.80 88.24 693.45 73.01 655.22 58.78 C 617.00 44.54 567.64 36.03 526.00 32.00
M 546.00 136.00 
C 547.98 137.69 550.21 139.44 552.00 141.00
C 568.53 155.41 590.45 176.51 615.00 164.00 C 639.55 151.49 672.79 167.95 664.01 198.01 C 655.23 228.07 622.96 219.58 604.26 206.74 C 585.56 193.90 567.44 182.13 547.75 170.25 C 528.07 158.36 496.81 148.75 473.98 156.98 C 451.14 165.20 431.76 174.22 413.00 189.00
C 411.81 189.94 410.01 191.18 409.00 192.00
C 400.88 198.55 393.41 205.92 385.77 212.77 C 378.13 219.62 371.36 227.53 364.25 235.25 C 357.13 242.97 350.96 251.25 344.70 259.70 C 338.44 268.15 332.54 277.00 327.23 286.23 C 321.92 295.46 316.57 304.48 312.08 315.08 C 307.59 325.67 303.82 335.98 300.67 347.67 C 297.52 359.36 295.28 375.15 296.00 388.00 C 296.72 400.85 301.47 409.72 311.22 416.78 C 320.97 423.83 330.09 427.10 342.22 429.78 C 354.36 432.46 368.01 433.07 381.00 435.00 C 393.99 436.93 410.29 435.28 424.00 436.00 C 437.71 436.72 452.35 437.66 466.07 436.07 C 479.80 434.49 496.19 437.36 509.67 435.67 C 523.15 433.98 537.81 433.17 551.00 432.00 C 564.19 430.83 576.53 427.66 589.02 426.02 C 601.52 424.39 612.77 420.34 624.23 417.23 C 635.69 414.12 646.67 410.63 657.08 406.08 C 667.48 401.52 675.97 395.97 684.30 389.30 C 692.63 382.63 701.88 373.20 694.25 362.75 C 686.61 352.31 691.81 337.52 706.00 337.00 C 720.19 336.48 724.70 353.13 717.75 363.75 C 710.79 374.36 718.92 389.83 731.01 390.99 C 743.10 392.15 756.99 393.65 757.00 409.00 C 757.00 424.36 742.72 427.34 731.75 422.25 C 720.79 417.15 721.53 402.91 710.32 399.68 C 699.12 396.45 690.06 407.82 681.25 413.25 C 672.45 418.68 665.08 426.06 655.77 431.77 C 646.46 437.48 637.71 443.56 627.78 448.78 C 617.85 454.00 607.97 458.08 596.98 461.98 C 585.98 465.87 574.14 469.32 562.00 471.00 C 549.86 472.67 533.34 473.08 521.00 474.00 C 508.66 474.91 495.75 477.30 484.92 481.92 C 474.10 486.55 466.54 490.86 457.75 498.75 C 448.96 506.65 443.85 513.48 438.08 523.08 C 432.31 532.68 427.58 543.78 425.01 555.01 C 422.43 566.24 418.60 581.57 423.31 592.69 C 428.01 603.82 435.13 609.25 445.70 614.30 C 456.27 619.36 468.18 621.79 480.00 624.00 C 491.82 626.21 505.31 628.58 517.22 630.78 C 529.14 632.97 543.31 633.92 554.67 637.33 C 566.03 640.73 576.81 643.76 587.22 648.78 C 597.63 653.80 605.50 659.71 613.10 667.90 C 620.70 676.09 625.29 685.88 628.00 697.00 C 630.70 708.12 632.83 724.16 631.00 736.00 C 629.17 747.84 626.25 760.37 622.08 771.08 C 617.91 781.78 613.74 791.34 607.70 800.70 C 601.65 810.05 596.28 817.88 588.75 825.75 C 581.23 833.63 575.01 840.41 566.25 847.25 C 557.48 854.08 547.94 858.14 537.31 863.31 C 526.67 868.47 510.57 868.16 498.00 868.00 C 485.43 867.84 473.45 863.82 461.98 860.03 C 450.50 856.23 442.18 851.53 430.93 847.07 C 419.67 842.62 413.23 835.02 399.93 834.07 C 386.63 833.13 384.67 852.36 396.25 857.75 C 407.82 863.15 404.97 880.75 393.77 885.77 C 382.57 890.79 366.43 877.98 372.00 865.00 C 377.57 852.02 354.91 845.99 346.92 849.93 C 338.94 853.87 331.09 869.99 318.77 862.23 C 306.45 854.47 309.25 839.98 319.08 834.08 C 328.90 828.17 344.61 840.54 351.90 830.90 C 359.19 821.26 367.11 812.12 362.22 800.78 C 357.34 789.43 340.86 790.06 344.93 775.93 C 349.00 761.79 364.33 760.86 372.30 769.70 C 380.27 778.54 369.52 793.44 379.23 800.77 C 388.94 808.10 394.99 813.01 406.23 817.77 C 417.47 822.53 426.38 826.45 438.22 829.78 C 450.07 833.10 463.25 835.61 476.00 836.00 C 488.75 836.39 503.06 835.34 513.69 829.70 C 524.33 824.05 531.15 819.87 538.75 810.75 C 546.35 801.64 550.91 793.12 554.98 781.98 C 559.04 770.83 561.48 758.16 563.00 746.00 C 564.52 733.84 565.48 717.46 560.70 706.31 C 555.91 695.15 549.30 689.90 538.97 684.03 C 528.65 678.15 518.55 674.84 507.00 672.00 C 495.44 669.16 483.01 665.86 471.00 664.00 C 458.99 662.14 445.77 659.52 433.99 657.01 C 422.21 654.49 409.45 651.42 398.33 647.67 C 387.21 643.92 378.85 638.67 369.92 632.08 C 360.98 625.49 355.30 617.59 351.67 606.33 C 348.05 595.06 348.35 578.02 350.33 566.33 C 352.31 554.64 355.60 542.85 360.78 532.78 C 365.95 522.70 371.70 514.88 379.25 507.25 C 386.80 499.62 394.24 493.39 404.08 488.08 C 413.91 482.76 424.61 476.41 436.00 475.00
C 436.13 474.96 436.00 474.00 436.00 474.00
C 384.27 479.78 325.47 479.45 278.32 459.68 C 231.17 439.90 239.01 370.45 257.26 332.26 C 275.50 294.06 297.87 257.80 326.10 224.10 C 354.33 190.40 380.49 165.35 416.75 137.75 C 453.01 110.15 508.03 103.55 546.00 136.00 Z"/>
</g>
<g fill="#" fill-opacity="0.96" stroke="None">
<path d="
M 436.00 474.00 
C 438.67 473.70 442.84 471.48 445.00 474.00
C 441.99 474.21 439.23 475.56 436.00 475.00
C 424.61 476.41 413.91 482.76 404.08 488.08 C 394.24 493.39 386.80 499.62 379.25 507.25 C 371.70 514.88 365.95 522.70 360.78 532.78 C 355.60 542.85 352.31 554.64 350.33 566.33 C 348.35 578.02 348.05 595.06 351.67 606.33 C 355.30 617.59 360.98 625.49 369.92 632.08 C 378.85 638.67 387.21 643.92 398.33 647.67 C 409.45 651.42 422.21 654.49 433.99 657.01 C 445.77 659.52 458.99 662.14 471.00 664.00 C 483.01 665.86 495.44 669.16 507.00 672.00 C 518.55 674.84 528.65 678.15 538.97 684.03 C 549.30 689.90 555.91 695.15 560.70 706.31 C 565.48 717.46 564.52 733.84 563.00 746.00 C 561.48 758.16 559.04 770.83 554.98 781.98 C 550.91 793.12 546.35 801.64 538.75 810.75 C 531.15 819.87 524.33 824.05 513.69 829.70 C 503.06 835.34 488.75 836.39 476.00 836.00 C 463.25 835.61 450.07 833.10 438.22 829.78 C 426.38 826.45 417.47 822.53 406.23 817.77 C 394.99 813.01 388.94 808.10 379.23 800.77 C 369.52 793.44 380.27 778.54 372.30 769.70 C 364.33 760.86 349.00 761.79 344.93 775.93 C 340.86 790.06 357.34 789.43 362.22 800.78 C 367.11 812.12 359.19 821.26 351.90 830.90 C 344.61 840.54 328.90 828.17 319.08 834.08 C 309.25 839.98 306.45 854.47 318.77 862.23 C 331.09 869.99 338.94 853.87 346.92 849.93 C 354.91 845.99 377.57 852.02 372.00 865.00 C 366.43 877.98 382.57 890.79 393.77 885.77 C 404.97 880.75 407.82 863.15 396.25 857.75 C 384.67 852.36 386.63 833.13 399.93 834.07 C 413.23 835.02 419.67 842.62 430.93 847.07 C 442.18 851.53 450.50 856.23 461.98 860.03 C 473.45 863.82 485.43 867.84 498.00 868.00 C 510.57 868.16 526.67 868.47 537.31 863.31 C 547.94 858.14 557.48 854.08 566.25 847.25 C 575.01 840.41 581.23 833.63 588.75 825.75 C 596.28 817.88 601.65 810.05 607.70 800.70 C 613.74 791.34 617.91 781.78 622.08 771.08 C 626.25 760.37 629.17 747.84 631.00 736.00 C 632.83 724.16 630.70 708.12 628.00 697.00 C 625.29 685.88 620.70 676.09 613.10 667.90 C 605.50 659.71 597.63 653.80 587.22 648.78 C 576.81 643.76 566.03 640.73 554.67 637.33 C 543.31 633.92 529.14 632.97 517.22 630.78 C 505.31 628.58 491.82 626.21 480.00 624.00 C 468.18 621.79 456.27 619.36 445.70 614.30 C 435.13 609.25 428.01 603.82 423.31 592.69 C 418.60 581.57 422.43 566.24 425.01 555.01 C 427.58 543.78 432.31 532.68 438.08 523.08 C 443.85 513.48 448.96 506.65 457.75 498.75 C 466.54 490.86 474.10 486.55 484.92 481.92 C 495.75 477.30 508.66 474.91 521.00 474.00 C 533.34 473.08 549.86 472.67 562.00 471.00 C 574.14 469.32 585.98 465.87 596.98 461.98 C 607.97 458.08 617.85 454.00 627.78 448.78 C 637.71 443.56 646.46 437.48 655.77 431.77 C 665.08 426.06 672.45 418.68 681.25 413.25 C 690.06 407.82 699.12 396.45 710.32 399.68 C 721.53 402.91 720.79 417.15 731.75 422.25 C 742.72 427.34 757.00 424.36 757.00 409.00 C 756.99 393.65 743.10 392.15 731.01 390.99 C 718.92 389.83 710.79 374.36 717.75 363.75 C 724.70 353.13 720.19 336.48 706.00 337.00 C 691.81 337.52 686.61 352.31 694.25 362.75 C 701.88 373.20 692.63 382.63 684.30 389.30 C 675.97 395.97 667.48 401.52 657.08 406.08 C 646.67 410.63 635.69 414.12 624.23 417.23 C 612.77 420.34 601.52 424.39 589.02 426.02 C 576.53 427.66 564.19 430.83 551.00 432.00 C 537.81 433.17 523.15 433.98 509.67 435.67 C 496.19 437.36 479.80 434.49 466.07 436.07 C 452.35 437.66 437.71 436.72 424.00 436.00 C 410.29 435.28 393.99 436.93 381.00 435.00 C 368.01 433.07 354.36 432.46 342.22 429.78 C 330.09 427.10 320.97 423.83 311.22 416.78 C 301.47 409.72 296.72 400.85 296.00 388.00 C 295.28 375.15 297.52 359.36 300.67 347.67 C 303.82 335.98 307.59 325.67 312.08 315.08 C 316.57 304.48 321.92 295.46 327.23 286.23 C 332.54 277.00 338.44 268.15 344.70 259.70 C 350.96 251.25 357.13 242.97 364.25 235.25 C 371.36 227.53 378.13 219.62 385.77 212.77 C 393.41 205.92 400.88 198.55 409.00 192.00
C 410.07 190.50 410.07 190.45 413.00 189.00
C 431.76 174.22 451.14 165.20 473.98 156.98 C 496.81 148.75 528.07 158.36 547.75 170.25 C 567.44 182.13 585.56 193.90 604.26 206.74 C 622.96 219.58 655.23 228.07 664.01 198.01 C 672.79 167.95 639.55 151.49 615.00 164.00 C 590.45 176.51 568.53 155.41 552.00 141.00
C 549.60 139.69 548.64 139.03 546.00 136.00
C 508.03 103.55 453.01 110.15 416.75 137.75 C 380.49 165.35 354.33 190.40 326.10 224.10 C 297.87 257.80 275.50 294.06 257.26 332.26 C 239.01 370.45 231.17 439.90 278.32 459.68 C 325.47 479.45 384.27 479.78 436.00 474.00
M 432.00 437.00 
C 428.91 439.19 423.84 437.43 420.00 438.00
C 423.09 435.82 428.16 437.57 432.00 437.00 Z"/>
</g>
<g fill="#FBFBFB" fill-opacity="0.31" stroke="None">
<path d="
M 552.00 141.00 
C 550.21 139.44 547.98 137.69 546.00 136.00
C 548.64 139.03 549.60 139.69 552.00 141.00 Z"/>
</g>
<g fill="#FBFBFB" fill-opacity="0.37" stroke="None">
<path d="
M 116.00 179.00 
C 117.68 177.82 118.10 176.92 120.00 174.00
C 118.46 175.57 117.23 177.50 116.00 179.00 Z"/>
</g>
<g fill="#FBFBFB" fill-opacity="0.37" stroke="None">
<path d="
M 884.00 179.00 
C 882.74 177.46 881.63 175.67 880.00 174.00
C 881.90 176.93 882.28 177.79 884.00 179.00 Z"/>
</g>
<g fill="#FAFAFA" fill-opacity="0.48" stroke="None">
<path d="
M 409.00 192.00 
C 410.01 191.18 411.81 189.94 413.00 189.00
C 410.07 190.45 410.07 190.50 409.00 192.00 Z"/>
</g>
<g fill="#" fill-opacity="0.53" stroke="None">
<path d="
M 432.00 437.00 
C 428.16 437.57 423.09 435.82 420.00 438.00
C 423.84 437.43 428.91 439.19 432.00 437.00 Z"/>
</g>
<g fill="#F8F8F8" fill-opacity="0.28" stroke="None">
<path d="
M 0.00 475.00 
C 0.55 471.68 3.71 461.61 1.00 459.00
C 1.00 459.00 0.50 459.00 0.00 459.00
L 0.00 475.00 Z"/>
</g>
<g fill="#F8F8F8" fill-opacity="0.28" stroke="None">
<path d="
M 1000.00 475.00 
L 1000.00 459.00
C 1000.00 459.00 999.26 458.75 999.00 459.00
C 996.24 461.67 999.50 471.57 1000.00 475.00 Z"/>
</g>
<g fill="#F8F8F8" fill-opacity="0.47" stroke="None">
<path d="
M 436.00 474.00 
C 436.00 474.00 436.13 474.96 436.00 475.00
C 439.23 475.56 441.99 474.21 445.00 474.00
C 442.84 471.48 438.67 473.70 436.00 474.00 Z"/>
</g>
<g fill="#F8F8F8" fill-opacity="0.28" stroke="None">
<path d="
M 0.00 541.00 
C 0.50 541.00 1.00 541.00 1.00 541.00
C 3.76 538.33 0.50 528.43 0.00 525.00
L 0.00 541.00 Z"/>
</g>
<g fill="#F8F8F8" fill-opacity="0.28" stroke="None">
<path d="
M 999.00 541.00 
C 999.26 541.25 1000.00 541.00 1000.00 541.00
L 1000.00 525.00
C 999.45 528.33 996.29 538.38 999.00 541.00 Z"/>
</g>
<g fill="#000000" fill-opacity="0.00" stroke="None">
<path d="
M 0.00 1000.00 
L 459.00 1000.00
C 459.00 999.50 459.00 999.00 459.00 999.00
C 423.45 1000.03 381.66 986.85 349.08 977.92 C 316.49 969.00 286.09 953.91 257.25 938.75 C 228.40 923.60 204.80 905.55 179.75 885.25 C 154.69 864.95 134.95 844.61 114.25 819.75 C 93.55 794.89 76.99 770.77 60.92 742.08 C 44.86 713.38 32.67 682.54 21.92 650.08 C 11.17 617.62 4.20 576.35 1.00 541.00
C 1.00 541.00 0.50 541.00 0.00 541.00
L 0.00 1000.00 Z"/>
</g>
<g fill="#000000" fill-opacity="0.00" stroke="None">
<path d="
M 541.00 999.00 
C 541.25 999.26 541.00 1000.00 541.00 1000.00
L 1000.00 1000.00
L 1000.00 541.00
C 1000.00 541.00 999.26 541.25 999.00 541.00
C 1000.03 576.55 986.85 618.34 977.92 650.92 C 969.00 683.51 953.91 713.91 938.75 742.75 C 923.60 771.60 905.56 795.20 885.25 820.25 C 864.95 845.31 844.61 865.06 819.75 885.75 C 794.89 906.45 770.77 923.01 742.08 939.08 C 713.38 955.14 682.54 967.34 650.08 978.08 C 617.62 988.82 576.35 995.83 541.00 999.00 Z"/>
</g>
<g fill="#F8F8F8" fill-opacity="0.28" stroke="None">
<path d="
M 459.00 999.00 
C 459.00 999.00 459.00 999.50 459.00 1000.00
L 475.00 1000.00
C 471.68 999.45 461.62 996.29 459.00 999.00 Z"/>
</g>
<g fill="#F8F8F8" fill-opacity="0.28" stroke="None">
<path d="
M 525.00 1000.00 
L 541.00 1000.00
C 541.00 1000.00 541.25 999.26 541.00 999.00
C 538.33 996.24 528.43 999.50 525.00 1000.00 Z"/>
</g>
</svg>