<svg width="175" height="58" viewBox="0 0 175 58" fill="none" xmlns="http://www.w3.org/2000/svg">
<path d="M142.125 57.0127C137.836 56.333 133.825 54.7614 130.317 52.386C128.881 51.4135 127.552 50.2937 128.003 50.4354C128.968 50.7389 133.353 50.8687 141.084 50.8229L149.647 50.7729L150.445 50.3724C151.738 49.7238 151.888 49.3159 151.888 46.4516C151.888 44.2352 151.861 44.0056 151.525 43.4672C150.776 42.2637 151.088 42.2997 140.669 42.21C133.111 42.146 131.32 42.0892 131.106 41.9101C130.651 41.5329 130.783 40.8899 131.441 40.2671C131.771 39.9549 134.879 37.5456 138.348 34.913C141.817 32.28 145.428 29.4621 146.373 28.6506C149.32 26.1192 150.66 24.3491 151.435 21.9637C151.997 20.2323 152.141 16.8357 151.738 14.8445C150.735 9.89648 147.564 7.2198 141.404 6.12218C138.575 5.61831 132.191 5.6291 129.081 6.14421L128.52 6.2387L129.401 5.56914C134.594 1.61793 141.868 -0.46855 148.506 0.08916C154.029 0.55325 158.792 2.31099 163.308 5.55199L164.325 6.28197L162.971 6.38524C161.369 6.5105 160.429 6.92164 160.014 7.68218C159.755 8.15572 159.726 8.91622 159.68 16.4433C159.627 25.0862 159.755 28.3212 160.297 32.0112C160.7 34.7583 160.965 35.6286 161.575 36.2141C162.045 36.665 162.153 36.6924 163.633 36.744C166.201 36.832 166.757 36.4085 167.229 33.9996C167.97 30.2195 168.281 25.0009 168.295 16.1232L168.303 10.2815L168.712 10.7615C169.579 11.7795 171.401 14.6739 172.144 16.2132C176.494 25.2239 175.825 35.7824 170.369 44.2044C169.389 45.7181 169.092 46.005 169.092 45.441C169.092 44.2124 167.624 42.2195 166.146 41.4423C165.438 41.0703 165.141 41.0135 163.89 41.0125C162.635 41.0125 162.333 41.0675 161.537 41.4595C159.163 42.6247 157.956 45.4639 158.787 47.9275C159.321 49.5109 160.791 50.9528 162.282 51.3556C162.638 51.4526 163.034 51.5599 163.16 51.599C163.447 51.685 162.329 52.4965 160.423 53.5884C157.845 55.0657 154.687 56.2238 151.486 56.8659C149.613 57.2416 144.109 57.3287 142.123 57.0131L142.125 57.0127ZM45.1341 56.0409C38.7719 54.9267 32.7214 50.8025 29.504 45.3865L28.8313 44.2542L28.5156 44.7125C28.342 44.9646 27.6021 45.7618 26.8713 46.4845C25.753 47.5903 25.2816 47.925 23.8948 48.5972C21.3346 49.8377 18.7493 50.372 15.309 50.372C6.77891 50.372 1.84679 47.086 0.295665 40.3691C0.0391148 39.2576 0 38.3701 0 33.6467C0 29.0112 0.04307 27.9924 0.292017 26.7685C1.25109 22.0506 3.90139 18.767 7.85851 17.3936C9.64419 16.7738 10.9772 16.5667 13.2842 16.5506C16.9532 16.5246 19.4139 17.3001 21.3479 19.0904L22.3003 19.9724L22.3535 13.1254C22.404 6.65753 22.4247 6.24262 22.7269 5.63811C23.2644 4.56312 23.8939 4.35765 26.6482 4.35765C29.3309 4.35765 29.8521 4.53345 30.4094 5.6425C30.7097 6.23888 30.7344 6.68628 30.8095 12.8767L30.8895 19.4751L31.6897 18.5C34.6259 14.9223 39.5018 12.041 44.4207 10.9775C46.6343 10.4989 51.0897 10.4567 53.2764 10.894C60.2108 12.2799 66.0372 16.5847 69.313 22.7428L70.0609 24.1485L70.4176 23.2708C72.1606 18.9823 75.7668 16.8829 82.0269 16.5121C84.4535 16.3693 85.5108 16.5761 86.1701 17.3275C86.8218 18.0697 86.9854 18.7751 86.9854 20.8433C86.9854 24.161 86.722 24.443 83.6197 24.4436C80.4206 24.4436 79.1007 24.9308 78.4443 26.3503C78.1116 27.0695 78.1026 27.3067 78.0243 37.4885C77.9333 49.3078 78.0067 48.6741 76.637 49.2806C75.996 49.5649 75.6423 49.5946 73.5674 49.5445C70.0072 49.4585 69.705 49.1727 69.5741 45.7743L69.4985 43.8141L68.8215 45.0022C65.585 50.6819 59.4687 54.9238 52.9081 56.0386C51.0393 56.3561 46.9383 56.358 45.1339 56.0386L45.1341 56.0409ZM53.142 50.2015C58.5604 49.4476 61.5855 47.2551 62.7715 43.2223C63.0102 42.4102 63.0529 41.2756 63.1013 34.4624C63.1373 29.378 63.0947 26.2453 62.9842 25.5224C62.3562 21.475 60.1389 18.9361 56.0642 17.5987C53.9897 16.9178 51.9707 16.6069 48.8954 16.4941C44.5691 16.3359 40.8743 16.7785 39.7301 17.5924C38.9005 18.1826 38.7329 18.7285 38.7325 20.8428C38.7322 22.461 38.7813 22.8443 39.0428 23.277C39.6233 24.2362 39.9161 24.2611 45.2143 23.798C48.53 23.5083 51.5524 23.768 52.9166 24.4567C53.6579 24.8315 54.2796 25.5716 54.4901 26.3295C54.5811 26.6569 54.6558 27.6187 54.6564 28.4671L54.6574 30.0095L49.6558 30.0905C45.4685 30.1565 44.4193 30.2224 43.211 30.4887C37.4621 31.7533 34.7143 35.2569 35.0229 40.9297C35.0735 41.8538 35.2332 43.0061 35.3781 43.4903C36.5308 47.3367 39.7654 49.546 45.2945 50.2623C46.3844 50.403 52.0022 50.3595 53.142 50.2015ZM46.1157 43.1613C44.4642 42.7494 43.6703 41.8614 43.5029 40.2394C43.344 38.6983 44.0088 37.4968 45.364 36.8771C46.0343 36.5702 46.449 36.5376 50.3948 36.4817L54.6951 36.4197L54.6269 38.5542C54.5707 40.3238 54.5015 40.7985 54.2234 41.3292C53.3977 42.905 52.6178 43.2124 49.2954 43.2709C47.887 43.2989 46.4561 43.2428 46.1157 43.1587V43.1613ZM17.0833 42.367C18.9634 42.1539 20.0793 41.711 20.9484 40.8418C22.1509 39.6394 22.2213 39.2798 22.2925 33.9669C22.3358 30.7256 22.2947 29.06 22.1617 28.4454C21.529 25.5568 19.6245 24.4502 15.2847 24.4491C11.648 24.4491 9.88362 25.2429 8.89886 27.3249L8.48251 28.2052V33.4898V38.7751L9.00166 39.8297C9.77115 41.3929 10.9369 42.0807 13.284 42.3566C14.8921 42.5479 15.5096 42.5479 17.0832 42.3846L17.0833 42.367ZM99.2364 50.1956C92.6259 49.3876 88.841 46.8012 87.2405 41.9981C86.5924 40.0533 86.4791 38.5606 86.5465 32.8629C86.606 27.8242 86.6388 27.3006 86.9725 26.0444C88.2583 21.2041 91.2986 18.2422 96.1808 17.0736C100.14 16.1259 104.989 16.3552 108.448 17.6539C111.231 18.6995 113.444 20.9114 114.547 23.7514C115.251 25.5659 115.482 26.8766 115.583 29.6454C115.726 33.5848 115.331 35.3414 114.141 36.0621C113.663 36.3522 113.126 36.3722 104.273 36.4478L94.9098 36.5268L94.8596 37.1335C94.7229 38.7875 95.5103 40.4032 96.8292 41.1763C99.2322 42.5842 104.059 42.8517 109.434 41.8744C111.877 41.4306 113.262 41.3259 113.688 41.5536C114.292 41.8768 114.548 42.6347 114.635 44.3575C114.768 46.9784 114.354 48.2727 113.19 48.874C112.481 49.2407 110.827 49.6967 109.154 49.9872C107.409 50.2897 101.097 50.4215 99.2364 50.1956ZM107.634 28.634C107.634 25.2009 105.343 23.6349 100.627 23.843C96.7891 24.0122 95.1532 25.3443 94.8848 28.5183L94.7828 29.7256H101.208H107.634L107.634 28.634ZM121.049 42.0943C119.47 39.1348 118.251 35.2539 117.869 31.9635C117.576 29.4406 117.754 25.3177 118.261 22.9124C119.046 19.1862 120.486 15.816 122.707 12.5064L123.879 10.7597L123.97 12.3601C124.058 13.9037 124.327 14.8137 124.777 15.0919C125.245 15.3811 126.114 15.4307 127.196 15.2304C127.837 15.1117 128.971 14.9025 129.718 14.7649C133.206 14.1222 138.257 14.136 140.294 14.7933C142.578 15.5313 143.427 17.7763 142.36 20.2573C141.825 21.5008 140.442 22.6977 133.184 28.2004C129.587 30.9274 126.15 33.6404 125.546 34.2297C124.173 35.5703 123 37.352 122.533 38.8023C122.336 39.4157 122.09 40.7232 121.986 41.7074L121.798 43.4982L121.049 42.0932L121.049 42.0943Z" fill="#EDBE38"/>
</svg>
