<svg xmlns="http://www.w3.org/2000/svg" version="1.1" xmlns:xlink="http://www.w3.org/1999/xlink" xmlns:svgjs="http://svgjs.com/svgjs" width="170" height="170"><svg width="170" height="170" viewBox="0 0 170 170" fill="none" xmlns="http://www.w3.org/2000/svg">
<mask id="SvgjsMask1000" style="mask-type:luminance" maskUnits="userSpaceOnUse" x="0" y="0" width="170" height="170">
<path d="M0 0H170V169.965H0V0Z" fill="white"></path>
</mask>
<g mask="url(#mask0_1024_77)">
<path d="M118.047 143.105C123.555 142.052 128.554 139.502 132.6 135.898L138.617 141.848C129.234 150.722 117.674 157.285 104.787 160.65C110.602 155.992 115.192 149.975 118.047 143.105ZM37.604 136.068C41.615 139.57 46.512 142.052 51.952 143.105C54.842 149.905 59.364 155.958 65.075 160.65C52.36 157.285 40.902 150.79 31.552 142.052L37.604 136.068ZM52.394 26.725C47.124 27.54 42.295 29.682 38.25 32.81L32.47 27.098C41.752 18.665 53.04 12.445 65.552 9.248C59.805 13.872 55.284 19.89 52.394 26.725ZM131.682 33.252C127.907 30.158 123.385 27.948 118.422 26.928C115.532 20.128 110.975 14.11 105.264 9.418C117.537 12.715 128.622 18.905 137.767 27.235L131.682 33.252ZM126.717 114.818C124.507 114.852 122.264 114.682 120.087 114.308C117.572 104.992 112.064 96.595 104.312 90.508C106.895 89.59 109.582 89.115 112.335 89.115C125.527 89.115 136.237 99.825 136.237 113.015C136.237 113.152 136.204 113.255 136.204 113.39C133.144 114.24 129.982 114.715 126.717 114.818ZM112.302 136.918C99.28 136.918 88.705 126.445 88.434 113.525C88.434 113.355 88.467 113.185 88.467 113.015C88.467 112.845 88.434 112.675 88.434 112.505V103.87C93.432 102.985 97.75 100.165 100.605 96.185C109.275 103.225 114.545 113.662 114.852 124.745C114.954 128.928 114.342 133.008 113.185 136.85C112.845 136.885 112.574 136.918 112.302 136.918ZM88.4 132.192C93.635 138.72 101.524 143.038 110.397 143.582C105.842 152.15 98.055 158.882 88.4 162.078V132.192ZM81.6 132.225V162.248C71.977 159.018 64.192 152.185 59.635 143.582C68.51 143.038 76.364 138.755 81.6 132.225ZM55.182 124.915C55.25 122.605 55.487 120.325 55.964 118.115C55.964 118.082 55.964 118.048 55.997 118.015C57.8 109.48 62.525 101.728 69.394 96.118C72.25 100.13 76.602 102.952 81.6 103.87V114.002C81.055 126.718 70.584 136.918 57.732 136.918C57.425 136.918 57.154 136.885 56.847 136.885C55.725 133.075 55.114 129.03 55.182 124.915ZM33.864 113.015C33.864 99.825 44.574 89.115 57.765 89.115C60.485 89.115 63.137 89.59 65.654 90.475C57.902 96.628 52.394 105.06 49.912 114.41C47.837 114.715 45.764 114.885 43.69 114.852C40.29 114.785 36.992 114.24 33.864 113.322C33.864 113.185 33.864 113.085 33.864 113.015ZM43.554 55.182C45.832 55.115 48.11 55.285 50.354 55.625C52.802 64.805 58.14 73.1 65.722 79.22C62.967 80.308 60.044 80.885 57.052 80.885C43.894 80.885 33.15 70.175 33.15 57.018C36.447 55.965 39.95 55.285 43.554 55.182ZM81.6 38.76C76.567 31.995 68.815 27.335 59.942 26.485C64.43 17.918 72.08 11.185 81.6 7.888V38.76ZM88.4 37.842V7.785C98.055 10.915 106.012 17.748 110.67 26.418C101.66 26.895 93.704 31.212 88.4 37.842ZM115.192 43.145C115.497 55.012 110.024 66.505 100.674 73.985C97.817 69.938 93.432 67.048 88.365 66.13V56.985C88.365 43.792 99.075 33.082 112.267 33.082C112.675 33.082 113.084 33.115 113.492 33.15C114.512 36.345 115.124 39.712 115.192 43.145ZM136.204 56.985C136.204 70.175 125.494 80.885 112.302 80.885C109.615 80.885 107.032 80.41 104.515 79.56C112.302 73.44 117.877 64.975 120.427 55.59C122.57 55.285 124.712 55.115 126.854 55.148C130.05 55.25 133.177 55.725 136.17 56.61C136.17 56.78 136.204 56.882 136.204 56.985ZM55.59 43.282C55.657 39.745 56.27 36.345 57.255 33.082C70.345 33.218 80.92 43.86 80.92 56.985C80.92 60.452 80.172 63.75 78.744 66.878C75.037 68.17 71.842 70.55 69.53 73.678C60.52 66.13 55.317 54.945 55.59 43.282ZM85 97.41C78.165 97.41 72.59 91.835 72.59 85C72.59 78.165 78.165 72.59 85 72.59C91.834 72.59 97.41 78.165 97.41 85C97.41 91.835 91.834 97.41 85 97.41ZM162.077 81.6H130.525C137.462 76.432 142.154 68.442 142.867 59.33C151.742 63.885 158.814 71.842 162.077 81.6ZM134.945 49.402C132.362 48.858 129.744 48.518 127.024 48.45C125.255 48.415 123.487 48.485 121.754 48.655C121.957 46.785 122.025 44.88 121.992 42.975C121.924 40.155 121.55 37.435 120.937 34.748C127.5 37.298 132.667 42.67 134.945 49.402ZM49.98 34.135C49.3 37.06 48.892 40.052 48.824 43.112C48.79 44.948 48.857 46.818 49.027 48.62C47.157 48.415 45.254 48.348 43.35 48.382C40.222 48.45 37.195 48.925 34.237 49.64C36.652 42.295 42.534 36.448 49.98 34.135ZM26.485 59.908C27.335 68.782 31.994 76.568 38.794 81.635H8.32999C11.457 72.25 18.087 64.532 26.485 59.908ZM8.125 88.4H39.542C32.605 93.535 27.914 101.525 27.2 110.602C18.36 106.08 11.424 98.192 8.125 88.4ZM35.087 120.53C37.842 121.108 40.664 121.482 43.554 121.55C43.894 121.55 44.234 121.55 44.574 121.55C45.934 121.55 47.294 121.482 48.654 121.345C48.552 122.468 48.45 123.59 48.415 124.712C48.347 128.35 48.722 131.92 49.504 135.355C42.737 132.905 37.4 127.432 35.087 120.53ZM120.495 135.422C121.277 131.92 121.652 128.315 121.55 124.575C121.515 123.488 121.447 122.4 121.345 121.345C122.842 121.482 124.337 121.585 125.834 121.585C126.174 121.585 126.514 121.585 126.854 121.585C129.607 121.515 132.294 121.175 134.912 120.665C132.6 127.5 127.262 132.94 120.495 135.422ZM142.867 110.772C142.187 101.592 137.495 93.568 130.525 88.365H162.282C158.95 98.328 151.844 106.285 142.867 110.772ZM160.752 65.382C155.924 59.398 149.634 54.638 142.494 51.748C141.61 46.682 139.467 42.025 136.407 38.115L142.527 32.062C151.095 41.378 157.454 52.768 160.752 65.382ZM27.675 31.825L33.354 37.468C29.92 41.615 27.607 46.682 26.724 52.225C19.787 55.285 13.702 60.078 9.077 66.095C12.307 53.108 18.835 41.378 27.675 31.825ZM9.17999 104.312C14.007 110.432 20.332 115.225 27.54 118.185C28.355 122.945 30.26 127.33 33.014 131.07L26.792 137.225C18.495 127.975 12.342 116.755 9.17999 104.312ZM143.344 137.02L137.155 130.865C139.807 127.195 141.644 122.945 142.46 118.355C149.532 115.532 155.787 110.942 160.615 105.06C157.42 117.095 151.402 128.01 143.344 137.02ZM170 85.34C170 85.238 170 85.102 170 85C170 61.608 160.48 40.358 145.112 24.99C145.077 24.922 145.044 24.855 145.01 24.82C144.942 24.752 144.874 24.752 144.805 24.685C129.437 9.418 108.29 0 85 0H84.965H84.932C61.777 0 40.732 9.35 25.397 24.445C25.33 24.515 25.227 24.548 25.16 24.615C25.092 24.685 25.092 24.752 25.057 24.785C9.58699 40.188 0 61.505 0 85C0 108.018 9.214 128.928 24.14 144.262C24.207 144.33 24.242 144.432 24.31 144.5C24.377 144.568 24.445 144.568 24.514 144.635C39.814 160.175 61.03 169.83 84.49 169.965C84.524 169.965 84.557 169.965 84.592 169.965C84.625 169.965 84.66 169.965 84.66 169.965C84.762 169.965 84.864 169.965 84.965 169.965C108.697 169.965 130.185 160.175 145.622 144.432C145.69 144.365 145.792 144.365 145.86 144.295C145.927 144.228 145.962 144.092 146.03 144.025C160.717 128.86 169.795 108.255 169.932 85.545C170 85.475 170 85.408 170 85.34Z" fill="#F2B963"></path>
</g>
</svg><style>@media (prefers-color-scheme: light) { :root { filter: none; } }
</style></svg>