<svg width="79" height="38" viewBox="0 0 79 38" fill="none" xmlns="http://www.w3.org/2000/svg">
<path d="M18.1949 0.612468L18.7624 15.6914H15.2369L14.7506 0.897387H14.71L12.1975 15.6914H6.11905L3.84989 0.897387H3.80929L3.34343 15.6914H0L0.567432 0.612468H7.31449L9.25961 15.4061H9.30032L11.4682 0.612468H18.1949Z" fill="#EDBE38"/>
<path d="M28.2466 10.5162C28.2466 8.98773 27.4563 7.80563 26.1394 7.80563C24.8018 7.80563 24.0117 8.82491 24.0117 10.5162C24.0117 12.2279 24.8018 13.2262 26.1394 13.2262C27.4563 13.2262 28.2466 12.0648 28.2466 10.5162ZM28.1048 5.36053H31.4681V15.6918H28.1048V12.0443H28.0641C28.0641 14.449 26.7472 15.8955 24.4982 15.8955C22.0463 15.8955 20.5674 13.8988 20.5674 10.5162C20.5674 7.15365 22.0463 5.15702 24.4982 5.15702C26.7472 5.15702 28.0641 6.58333 28.0641 9.0082H28.1048V5.36053Z" fill="#EDBE38"/>
<path d="M40.2628 5.36053H43.626V15.6918H40.2628V12.0034H40.2221C40.2221 14.449 39.0673 15.8955 37.1222 15.8955C34.9542 15.8955 33.6777 14.2859 33.6777 11.5554V5.36053H37.0413V11.3924C37.0413 12.5537 37.5885 13.2467 38.5404 13.2467C39.6145 13.2467 40.2628 12.3702 40.2628 10.9034V5.36053Z" fill="#EDBE38"/>
<path d="M53.8385 5.50292L52.8662 8.47789C52.4811 8.23343 51.9746 8.11107 51.5083 8.11107C50.1104 8.11107 49.2998 9.27245 49.2998 11.2901V15.6914H45.9365V5.36009H49.2998V9.84327H49.3405C49.3405 6.88877 50.4345 5.15658 52.2782 5.15658C52.8458 5.15658 53.4333 5.27869 53.8385 5.50292Z" fill="#EDBE38"/>
<path d="M54.9131 15.6914V5.36009H58.2766V15.6914H54.9131ZM54.9131 3.60791V0.795753H58.2766V3.60791H54.9131Z" fill="#EDBE38"/>
<path d="M67.5161 7.64306H64.5377V11.9222C64.5377 12.7373 65.0844 13.2262 66.0165 13.2262C66.5026 13.2262 66.9689 13.1041 67.3336 12.9001V15.3861C66.6447 15.7123 65.7734 15.8955 64.9424 15.8955C62.5924 15.8955 61.1742 14.6118 61.1742 12.4112V7.64306H59.8369V5.36053H61.3564V2.01874H64.7197V2.87448C64.7197 4.26033 63.5242 5.15702 61.4575 5.32007V5.36053H67.5161V7.64306Z" fill="#EDBE38"/>
<path d="M69.016 13.4093H78.3768V15.6914H68.7324V10.3731L77.708 7.68308V7.64262H68.8337V5.36009H77.9917V10.6785L69.016 13.3686V13.4093Z" fill="#EDBE38"/>
<path d="M1.27677 32.0089H8.30726V33.1094H0V18.0304H1.27677V32.0089Z" fill="#EDBE38"/>
<path d="M10.8002 27.5266H17.3042C17.142 25.2238 15.9469 23.8792 14.0623 23.8792C12.1578 23.8792 10.9624 25.2238 10.8002 27.5266ZM18.5403 28.3419H10.7799C10.8408 30.8279 12.0566 32.2947 14.0623 32.2947C15.8453 32.2947 17.0611 31.2964 17.3245 29.6052H18.5403C18.2566 31.9281 16.5749 33.3135 14.0623 33.3135C11.2258 33.3135 9.56445 31.3778 9.56445 28.1175C9.56445 24.8165 11.2258 22.8805 14.0623 22.8805C16.8786 22.8805 18.5403 24.8165 18.5403 28.1175V28.3419Z" fill="#EDBE38"/>
<path d="M28.9152 28.0766C28.9152 25.4883 27.6184 23.8991 25.4099 23.8991C23.2015 23.8991 21.9047 25.4681 21.9047 28.0766C21.9047 30.7049 23.2015 32.2538 25.4099 32.2538C27.6184 32.2538 28.9152 30.6847 28.9152 28.0766ZM28.7936 23.084H30.0094V33.3745C30.0094 36.2681 28.287 38 25.3694 38C22.7152 38 21.0336 36.5939 20.912 34.21L22.0669 34.1488C22.1682 35.9013 23.4042 36.9607 25.3694 36.9607C27.5174 36.9607 28.7936 35.677 28.7936 33.4966V29.8696H28.7531C28.7531 32.0091 27.355 33.2931 25.0251 33.2931C22.2896 33.2931 20.6689 31.3569 20.6689 28.0766C20.6689 24.8161 22.2896 22.8801 25.0251 22.8801C27.355 22.8801 28.7531 24.1641 28.7531 26.3034H28.7936V23.084Z" fill="#EDBE38"/>
<path d="M41.0119 28.0969C41.0119 25.4888 39.7151 23.8996 37.5066 23.8996C35.2981 23.8996 34.0013 25.4685 34.0013 28.0969C34.0013 30.7258 35.2981 32.2745 37.5066 32.2745C39.7151 32.2745 41.0119 30.6851 41.0119 28.0969ZM40.8903 23.0844H42.1061V33.11H40.8903V29.8906H40.8498C40.8498 32.0298 39.4517 33.3135 37.1216 33.3135C34.3864 33.3135 32.7656 31.3778 32.7656 28.0969C32.7656 24.8165 34.3864 22.8805 37.1216 22.8805C39.4517 22.8805 40.8498 24.1645 40.8498 26.3039H40.8903V23.0844Z" fill="#EDBE38"/>
<path d="M45.4697 33.1094V17.4187H46.6856V33.1094H45.4697Z" fill="#EDBE38"/>
<path d="M48.8896 31.7395C48.8896 30.8601 49.5988 30.1472 50.4731 30.1472H50.6452C51.5198 30.1472 52.2287 30.8601 52.2287 31.7395C52.2287 32.6191 51.5198 33.332 50.6452 33.332H50.4731C49.5988 33.332 48.8896 32.6191 48.8896 31.7395Z" fill="#EDBE38"/>
</svg>
