<svg width="873" height="428" viewBox="0 0 873 428" fill="none" xmlns="http://www.w3.org/2000/svg">
<path d="M39.7 297.9H10.4L4 312.1H0L23.2 261.7H26.9L50.1 312.1H46.1L39.7 297.9ZM38.3 294.8L25.1 265.7L11.9 294.8H38.3Z" fill="#EDBE38"/>
<path d="M59.2 261.7H79.0999C84.2999 261.7 89 262.8 93 264.9C97.1 267.1 100.2 270.1 102.5 273.9C104.7 277.7 105.9 282.1 105.9 286.9C105.9 291.7 104.8 296.1 102.5 299.9C100.2 303.7 97.1 306.7 93 308.9C88.9 311.1 84.2999 312.1 79.0999 312.1H59.2V261.7ZM78.8999 308.7C83.4999 308.7 87.7 307.8 91.2 305.9C94.8 304.1 97.4999 301.5 99.3999 298.2C101.3 294.9 102.3 291.1 102.3 286.8C102.3 282.5 101.3 278.7 99.3999 275.4C97.4999 272.1 94.7 269.5 91.2 267.7C87.7 265.9 83.4999 264.9 78.8999 264.9H62.8999V308.7H78.8999Z" fill="#EDBE38"/>
<path d="M157.4 261.7L134.9 312.1H131.2L108.7 261.7H112.7L133.1 307.3L153.5 261.7H157.4Z" fill="#EDBE38"/>
<path d="M173.1 309.1C169.1 306.9 166 303.8 163.7 299.9C161.4 296 160.3 291.7 160.3 286.9C160.3 282.1 161.4 277.8 163.7 273.9C166 270 169.1 266.9 173.1 264.7C177.1 262.5 181.5 261.4 186.5 261.4C191.5 261.4 195.9 262.5 199.9 264.7C203.9 266.9 207 269.9 209.3 273.8C211.6 277.7 212.7 282 212.7 286.9C212.7 291.8 211.6 296.1 209.3 300C207 303.9 203.9 306.9 199.9 309.1C195.9 311.3 191.5 312.4 186.5 312.4C181.5 312.4 177.1 311.3 173.1 309.1ZM197.9 306.1C201.3 304.2 204 301.5 206 298.1C208 294.7 209 290.9 209 286.8C209 282.7 208 278.8 206 275.5C204 272.1 201.3 269.5 197.9 267.5C194.5 265.6 190.7 264.6 186.5 264.6C182.3 264.6 178.4 265.6 175 267.5C171.6 269.4 168.9 272.1 166.9 275.5C164.9 278.9 164 282.7 164 286.8C164 290.9 165 294.8 166.9 298.1C168.8 301.4 171.6 304.1 175 306.1C178.4 308 182.3 309 186.5 309C190.7 309 194.5 308.1 197.9 306.1Z" fill="#EDBE38"/>
<path d="M240.4 287.2L229.1 298.8V312H225.4V261.6H229.1V294L260.6 261.6H265.1L242.9 284.5L266.6 312H262.1L240.4 287.2Z" fill="#EDBE38"/>
<path d="M312.5 297.9H283.3L276.9 312.1H272.9L296.1 261.7H299.8L323 312.1H319L312.5 297.9ZM311.2 294.8L298 265.7L284.8 294.8H311.2ZM303.9 249.1H309.1L297.8 257.6H293.9L303.9 249.1Z" fill="#EDBE38"/>
<path d="M339.3 265H321.2V261.7H361.2V265H343.1V312.1H339.4L339.3 265Z" fill="#EDBE38"/>
<path d="M411.2 261.7V312.1H408.2L373.9 268.3V312.1H370.2V261.7H373.3L407.6 305.5V261.7H411.2Z" fill="#EDBE38"/>
<path d="M436.5 249.1H441.7L430.4 257.6H426.5L436.5 249.1ZM428.7 261.7H432.4V312.1H428.7V261.7Z" fill="#EDBE38"/>
<path d="M483.4 287.2L472.1 298.8V312H468.4V261.6H472.1V294L503.6 261.6H508.1L485.9 284.5L509.6 312H505.1L483.4 287.2Z" fill="#EDBE38"/>
<path d="M555.6 297.9H526.4L520 312.1H516L539.2 261.7H542.9L566.1 312.1H562.1L555.6 297.9ZM554.2 294.8L541 265.7L527.8 294.8H554.2Z" fill="#EDBE38"/>
<path d="M616.2 261.7V312.1H613.2L578.9 268.3V312.1H575.2V261.7H578.3L612.6 305.5V261.7H616.2Z" fill="#EDBE38"/>
<path d="M641.7 309.1C637.7 306.9 634.6 303.8 632.3 300C630 296.2 628.9 291.8 628.9 286.9C628.9 282 630 277.7 632.3 273.8C634.6 269.9 637.7 266.9 641.7 264.7C645.7 262.5 650.1 261.4 655 261.4C658.7 261.4 662 262 665.1 263.2C668.2 264.4 670.8 266.1 672.9 268.4L670.6 270.8C666.6 266.8 661.4 264.8 655.1 264.8C650.9 264.8 647 265.8 643.6 267.7C640.2 269.6 637.4 272.3 635.5 275.7C633.5 279.1 632.5 282.9 632.5 287C632.5 291.1 633.5 295 635.5 298.3C637.5 301.6 640.2 304.3 643.6 306.3C647.1 308.2 650.9 309.2 655.1 309.2C661.3 309.2 666.5 307.2 670.6 303.2L672.9 305.6C670.7 307.9 668.1 309.7 665 310.9C661.9 312.1 658.6 312.7 655 312.7C650.1 312.4 645.7 311.3 641.7 309.1Z" fill="#EDBE38"/>
<path d="M720.1 308.7V312H685.3V261.6H719V264.9H689V284.8H715.8V288H689V308.7H720.1Z" fill="#EDBE38"/>
<path d="M733.4 261.7H737.1V308.8H766.1V312.1H733.4V261.7Z" fill="#EDBE38"/>
<path d="M814 297.9H784.8L778.4 312.1H774.4L797.6 261.7H801.3L824.5 312.1H820.5L814 297.9ZM812.6 294.8L799.4 265.7L786.2 294.8H812.6ZM805.4 249.1H810.6L799.3 257.6H795.4L805.4 249.1Z" fill="#EDBE38"/>
<path d="M868.6 312.1L856.6 295.3C854.8 295.5 853.2 295.7 851.7 295.7H837.3V312.2H833.6V261.8H851.7C858 261.8 863 263.3 866.6 266.3C870.2 269.3 872 273.5 872 278.8C872 282.8 871 286.1 868.9 288.8C866.9 291.5 863.9 293.4 860.1 294.5L872.7 312.1H868.6ZM851.6 292.3C857 292.3 861.1 291.1 863.9 288.7C866.7 286.3 868.1 282.9 868.1 278.6C868.1 274.3 866.7 270.9 863.9 268.5C861.1 266.1 857 264.9 851.6 264.9H837.2V292.2L851.6 292.3ZM862.4 249.1L853.3 257.6H849.3L840.2 249.1H843.8L851.3 255.3L858.8 249.1H862.4Z" fill="#EDBE38"/>
<path d="M305 407.6L298.5 414.2V421.8H296.4V392.9H298.5V411.5L316.5 392.9H319.1L306.4 406.1L320 421.9H317.4L305 407.6Z" fill="#EDBE38"/>
<path d="M335.8 392L330.6 396.9H328.3L323.1 392H325.2L329.5 395.5L333.8 392H335.8ZM329.4 401.4C330.8 400.6 332.5 400.1 334.5 400.1V402.1H334C331.6 402.1 329.7 402.9 328.4 404.3C327 405.8 326.4 407.9 326.4 410.5V421.9H324.4V400.4H326.4V405.1C327 403.5 328 402.3 329.4 401.4Z" fill="#EDBE38"/>
<path d="M358.2 411.6H339.7C339.7 413.3 340.2 414.8 341 416.1C341.8 417.4 342.9 418.4 344.2 419.1C345.5 419.8 347.1 420.2 348.8 420.2C350.2 420.2 351.5 420 352.7 419.4C353.9 418.9 354.9 418.1 355.7 417.2L356.9 418.6C356 419.7 354.8 420.6 353.4 421.2C352 421.8 350.4 422.1 348.8 422.1C346.7 422.1 344.7 421.6 343.1 420.7C341.4 419.8 340.1 418.5 339.2 416.8C338.3 415.1 337.8 413.3 337.8 411.1C337.8 408.9 338.3 407.1 339.1 405.5C340 403.8 341.2 402.5 342.8 401.6C344.4 400.7 346.1 400.2 348.1 400.2C350.1 400.2 351.8 400.7 353.4 401.6C354.9 402.5 356.2 403.8 357.1 405.5C358 407.2 358.4 409 358.4 411.1L358.2 411.6ZM343.9 403C342.7 403.7 341.7 404.6 341 405.8C340.3 407 339.9 408.4 339.7 410H356.2C356.1 408.5 355.7 407.1 355 405.9C354.3 404.7 353.3 403.7 352.1 403.1C350.9 402.5 349.5 402.1 348 402.1C346.5 402.1 345.1 402.3 343.9 403Z" fill="#EDBE38"/>
<path d="M381.6 402.5C383.2 404.1 384 406.3 384 409.3V421.9H381.9V409.5C381.9 407.1 381.3 405.2 380.1 404C378.9 402.7 377.2 402.1 375 402.1C372.5 402.1 370.5 402.9 369 404.4C367.5 405.9 366.8 407.9 366.8 410.5V421.9H364.7V400.4H366.7V405.1C367.4 403.6 368.6 402.4 370 401.6C371.4 400.8 373.2 400.3 375.2 400.3C377.9 400.2 380 400.9 381.6 402.5Z" fill="#EDBE38"/>
<path d="M400.1 410.4L394.5 415.5V421.9H392.4V391.3H394.5V412.9L408.3 400.3H410.9L401.6 409L411.8 421.8H409.2L400.1 410.4Z" fill="#EDBE38"/>
<path d="M418.7 420.6C417.1 419.7 415.8 418.4 414.8 416.7C413.9 415 413.4 413.2 413.4 411.1C413.4 409 413.9 407.1 414.8 405.5C415.7 403.8 417 402.5 418.7 401.6C420.4 400.7 422.2 400.2 424.2 400.2C426.2 400.2 428.1 400.7 429.7 401.6C431.3 402.5 432.6 403.8 433.6 405.5C434.5 407.2 435 409 435 411.1C435 413.2 434.5 415.1 433.6 416.7C432.7 418.4 431.4 419.7 429.7 420.6C428.1 421.5 426.2 422 424.2 422C422.2 422 420.4 421.6 418.7 420.6ZM428.7 419C430 418.2 431 417.2 431.8 415.8C432.6 414.4 432.9 412.9 432.9 411.1C432.9 409.3 432.5 407.8 431.8 406.4C431 405 430 403.9 428.7 403.2C427.4 402.5 425.9 402 424.3 402C422.7 402 421.2 402.4 419.9 403.2C418.6 404 417.6 405 416.8 406.4C416 407.8 415.7 409.3 415.7 411.1C415.7 412.9 416.1 414.4 416.8 415.8C417.6 417.2 418.6 418.3 419.9 419C421.2 419.8 422.7 420.2 424.3 420.2C425.9 420.2 427.4 419.8 428.7 419Z" fill="#EDBE38"/>
<path d="M458.1 400.3L448.4 421.8H446.3L436.6 400.3H438.8L447.4 419.6L456.1 400.3H458.1Z" fill="#EDBE38"/>
<path d="M475.3 402.2C476.7 403.6 477.5 405.6 477.5 408.2V421.9H475.5V418.1C474.8 419.4 473.8 420.3 472.5 421.1C471.2 421.9 469.6 422.1 467.7 422.1C465.3 422.1 463.4 421.5 462 420.4C460.6 419.3 459.9 417.8 459.9 415.9C459.9 414 460.5 412.7 461.8 411.6C463.1 410.5 465.1 409.9 467.9 409.9H475.3V408.2C475.3 406.2 474.8 404.7 473.7 403.6C472.6 402.6 471 402 468.9 402C467.5 402 466.1 402.2 464.8 402.7C463.5 403.2 462.4 403.9 461.5 404.7L460.5 403.2C461.6 402.2 462.9 401.5 464.4 401C465.9 400.5 467.5 400.2 469.2 400.2C471.9 400.2 473.9 400.8 475.3 402.2ZM472.6 419.1C473.8 418.3 474.8 417.1 475.4 415.5V411.5H468.1C466 411.5 464.4 411.9 463.5 412.7C462.5 413.5 462.1 414.5 462.1 415.9C462.1 417.3 462.6 418.4 463.7 419.2C464.8 420 466.2 420.4 468.1 420.4C469.8 420.4 471.4 419.9 472.6 419.1ZM472.5 392H475.5L469 396.9H466.8L472.5 392Z" fill="#EDBE38"/>
<path d="M486.9 419.1C487.2 419.4 487.4 419.9 487.4 420.3C487.4 420.6 487.4 420.9 487.3 421.2C487.2 421.5 487.1 421.9 487 422.2L485.4 427.8H483.9L485.3 422C484.9 421.9 484.6 421.7 484.3 421.4C484 421.1 483.9 420.7 483.9 420.3C483.9 419.8 484.1 419.4 484.4 419.1C484.7 418.8 485.1 418.6 485.6 418.6C486.1 418.6 486.6 418.7 486.9 419.1Z" fill="#EDBE38"/>
<path d="M505.3 421.2C503.7 420.7 502.5 420 501.6 419.2L502.6 417.5C503.5 418.2 504.6 418.9 506 419.4C507.4 419.9 508.8 420.1 510.3 420.1C512.5 420.1 514.1 419.7 515.1 419C516.1 418.3 516.6 417.3 516.6 416C516.6 415.1 516.3 414.4 515.8 413.8C515.3 413.2 514.5 412.9 513.7 412.6C512.9 412.3 511.7 412.1 510.3 411.8C508.6 411.5 507.2 411.2 506.2 410.8C505.2 410.4 504.3 409.9 503.5 409.1C502.8 408.3 502.4 407.2 502.4 405.8C502.4 404.1 503.1 402.7 504.5 401.6C505.9 400.5 507.9 399.9 510.5 399.9C511.9 399.9 513.2 400.1 514.6 400.5C516 400.9 517.1 401.4 517.9 402L516.9 403.7C516 403.1 515 402.6 513.9 402.3C512.8 402 511.6 401.8 510.4 401.8C508.4 401.8 506.9 402.2 505.9 402.9C504.9 403.6 504.4 404.6 504.4 405.8C504.4 406.8 504.7 407.5 505.3 408C505.9 408.5 506.6 408.9 507.4 409.2C508.2 409.5 509.4 409.7 510.9 410C512.6 410.3 513.9 410.6 515 411C516 411.3 516.9 411.9 517.6 412.7C518.3 413.5 518.7 414.5 518.7 415.9C518.7 417.7 518 419.1 516.5 420.2C515 421.3 512.9 421.8 510.2 421.8C508.5 422 506.9 421.8 505.3 421.2Z" fill="#EDBE38"/>
<path d="M523.1 421.5C522.8 421.2 522.6 420.7 522.6 420.2C522.6 419.7 522.8 419.3 523.1 419C523.4 418.7 523.9 418.5 524.3 418.5C524.7 418.5 525.2 418.7 525.5 419C525.8 419.3 526 419.7 526 420.2C526 420.7 525.8 421.1 525.5 421.5C525.2 421.9 524.7 422 524.3 422C523.9 422 523.4 421.9 523.1 421.5Z" fill="#EDBE38"/>
<path d="M537.9 401.4C539.3 400.6 541 400.1 543 400.1V402.1H542.5C540.1 402.1 538.2 402.9 536.9 404.3C535.6 405.7 534.9 407.9 534.9 410.5V421.9H532.8V400.4H534.8V405.1C535.4 403.5 536.5 402.3 537.9 401.4Z" fill="#EDBE38"/>
<path d="M547.2 421.5C546.9 421.2 546.7 420.7 546.7 420.2C546.7 419.7 546.9 419.3 547.2 419C547.5 418.7 548 418.5 548.4 418.5C548.8 418.5 549.3 418.7 549.6 419C549.9 419.3 550.1 419.7 550.1 420.2C550.1 420.7 549.9 421.1 549.6 421.5C549.3 421.8 548.8 422 548.4 422C548 422 547.5 421.9 547.2 421.5Z" fill="#EDBE38"/>
<path d="M559.1 420.6C557.5 419.7 556.2 418.4 555.2 416.7C554.3 415 553.8 413.2 553.8 411.1C553.8 409 554.3 407.1 555.2 405.5C556.1 403.8 557.4 402.5 559.1 401.6C560.8 400.7 562.6 400.2 564.6 400.2C566.6 400.2 568.5 400.7 570.1 401.6C571.7 402.5 573 403.8 574 405.5C574.9 407.2 575.4 409 575.4 411.1C575.4 413.2 574.9 415.1 574 416.7C573.1 418.4 571.8 419.7 570.1 420.6C568.4 421.5 566.6 422 564.6 422C562.6 422 560.7 421.6 559.1 420.6ZM569 419C570.3 418.2 571.3 417.2 572.1 415.8C572.9 414.4 573.2 412.9 573.2 411.1C573.2 409.3 572.8 407.8 572.1 406.4C571.3 405 570.3 403.9 569 403.2C567.7 402.4 566.2 402 564.6 402C563 402 561.5 402.4 560.2 403.2C558.9 404 557.9 405 557.1 406.4C556.3 407.8 556 409.3 556 411.1C556 412.9 556.4 414.4 557.1 415.8C557.9 417.2 558.9 418.3 560.2 419C561.5 419.8 563 420.2 564.6 420.2C566.2 420.2 567.7 419.8 569 419Z" fill="#EDBE38"/>
<path d="M579.6 421.5C579.3 421.2 579.1 420.7 579.1 420.2C579.1 419.7 579.3 419.3 579.6 419C579.9 418.7 580.4 418.5 580.8 418.5C581.2 418.5 581.7 418.7 582 419C582.3 419.3 582.5 419.7 582.5 420.2C582.5 420.7 582.3 421.1 582 421.5C581.7 421.8 581.2 422 580.8 422C580.4 422 579.9 421.9 579.6 421.5Z" fill="#EDBE38"/>
<path d="M524.7 4V177H351.7V4H524.7ZM528.7 0H347.7V181H528.7V0Z" fill="#EDBE38"/>
<path d="M371.7 18V163.8" stroke="#EDBE38" stroke-width="4" stroke-miterlimit="10" stroke-linecap="round"/>
<path d="M439.4 18V69.8" stroke="#EDBE38" stroke-width="4" stroke-miterlimit="10" stroke-linecap="round"/>
<path d="M439.4 163.8V102C439.4 102 472.7 90 493.7 114C506.3 128.4 506.5 163.8 506.5 163.8" stroke="#EDBE38" stroke-width="4" stroke-miterlimit="10" stroke-linecap="round"/>
<path d="M506.5 18C506.5 18 509.7 62 455.7 79C401.7 96 371.7 90.5 371.7 90.5" stroke="#EDBE38" stroke-width="4" stroke-miterlimit="10" stroke-linecap="round"/>
<path d="M199.7 353.5H676.7" stroke="#EDBE38" stroke-width="3" stroke-miterlimit="10" stroke-linecap="round"/>
</svg>
