<svg width="760" height="763" viewBox="0 0 760 763" fill="none" xmlns="http://www.w3.org/2000/svg">
<g clip-path="url(#clip0_1035_12)">
<path d="M353.76 63.4798C353.21 62.4298 352.81 61.1298 352.74 59.9498C351.67 42.6298 349.2 25.1898 347.83 8.04977C347.817 7.83644 347.913 7.70977 348.12 7.66977C354.013 6.50977 360.01 5.80311 366.11 5.54977C366.244 5.54416 366.375 5.59058 366.478 5.67967C366.58 5.76876 366.645 5.89388 366.66 6.02977C367.42 12.2898 367.56 18.6098 368.39 24.7398C370.03 36.8864 371.327 49.4864 372.28 62.5398C372.407 64.2064 372.143 65.6998 371.49 67.0198C368.67 72.6998 364.03 77.9698 360.04 82.8098C359.76 83.1498 359.403 83.3464 358.97 83.3998L346.63 84.8398C346.263 84.8798 346.03 84.7231 345.93 84.3698C344.49 79.0198 342.82 71.7598 343.9 66.7398C343.967 66.4198 344.163 66.2264 344.49 66.1598L353.31 64.4298C353.411 64.4108 353.506 64.3682 353.587 64.3055C353.668 64.2429 353.733 64.1619 353.777 64.0693C353.821 63.9767 353.842 63.875 353.839 63.7725C353.836 63.6701 353.809 63.5698 353.76 63.4798Z" fill="#EDBE38"/>
<path d="M396.01 69.62L393.13 82.95C393.063 83.2766 392.863 83.42 392.53 83.38L381.03 82.12C380.657 82.0733 380.517 81.8666 380.61 81.5C382.59 73.96 385.02 65.71 387.9 56.75C391.253 46.3233 394.833 34.8133 398.64 22.22C399.767 18.4733 400.993 15.0566 402.32 11.97C402.453 11.6766 402.68 11.5066 403 11.46L420.28 9.15996C420.64 9.1133 420.89 9.25663 421.03 9.58996C423.74 16.23 422.83 24.41 423.8 31.27C424.393 35.4566 424.803 39.7166 425.03 44.05C425.177 46.75 425.373 49.1566 425.62 51.27C425.913 53.7433 426.143 56.2333 426.31 58.74C426.963 68.4933 427.707 77.7533 428.54 86.52C428.6 87.1733 428.303 87.4666 427.65 87.4L412.08 85.93C411.791 85.9019 411.513 85.8044 411.27 85.6458C411.028 85.4872 410.829 85.2724 410.69 85.02C409.73 83.2866 409.203 81.3033 409.11 79.07C408.97 75.6633 408.51 72.6 407.73 69.88C407.677 69.6992 407.568 69.5398 407.419 69.4248C407.27 69.3098 407.088 69.2451 406.9 69.24L396.88 68.95C396.407 68.93 396.117 69.1533 396.01 69.62ZM404.71 38.2C402.677 44.44 400.99 50.99 399.65 57.85C399.623 57.9766 399.673 58.05 399.8 58.07L407.45 59.12C407.61 59.14 407.687 59.07 407.68 58.91C407.453 51.67 406.82 44.7933 405.78 38.28C405.54 36.78 405.183 36.7533 404.71 38.2Z" fill="#EDBE38"/>
<path d="M467.78 54.9701C467.78 53.9167 467.56 53.8667 467.12 54.8201C462.64 64.5901 459.77 75.3801 456.99 85.2801C456.423 87.2867 455.5 89.2134 454.22 91.0601C453.967 91.4334 453.613 91.61 453.16 91.59C449.853 91.43 446.727 90.3667 443.78 88.4001C443.5 88.2067 443.313 87.9467 443.22 87.6201C442.42 84.7701 444.1 79.9101 445.37 76.1501C448.31 67.4634 450.863 59.5734 453.03 52.4801C454.617 47.2734 456.153 42.6167 457.64 38.5101C459.39 33.6901 460.38 28.9801 462.89 24.2901C463.063 23.9701 463.33 23.7967 463.69 23.7701C470.47 23.2601 477.07 21.4801 483.74 20.3001C484.107 20.2334 484.323 20.3834 484.39 20.7501C484.89 23.4834 485.143 26.2134 485.15 28.9401C485.163 35.3134 485.13 41.6134 485.05 47.8401C485.023 50.0934 485.197 52.3601 485.57 54.6401C485.63 55.0201 485.763 55.0501 485.97 54.7301C486.817 53.3967 487.487 52.0034 487.98 50.5501C490.093 44.2434 492.2 37.6567 494.3 30.7901C494.667 29.6101 494.93 28.4234 495.09 27.2301C495.098 27.1774 495.117 27.1271 495.146 27.082C495.174 27.037 495.212 26.9983 495.256 26.9684C495.3 26.9384 495.35 26.9177 495.402 26.9077C495.454 26.8977 495.508 26.8985 495.56 26.9101C499.873 27.8901 503.807 29.3901 507.36 31.4101C507.747 31.6301 507.873 31.9534 507.74 32.3801C500.62 56.0334 493.217 79.2667 485.53 102.08C485.41 102.433 485.167 102.563 484.8 102.47C479.09 100.93 473.21 99.7201 468.31 96.3801C468.023 96.1867 467.88 95.9201 467.88 95.5801L467.78 54.9701Z" fill="#EDBE38"/>
<path d="M218.8 96.21C219.153 97.55 219.553 98.8167 220 100.01C223.413 109.263 226.697 118.187 229.85 126.78C229.905 126.93 229.904 127.094 229.847 127.243C229.79 127.392 229.681 127.515 229.54 127.59L219.62 132.89C219.57 132.917 219.515 132.933 219.458 132.937C219.401 132.941 219.345 132.934 219.291 132.915C219.237 132.896 219.188 132.867 219.147 132.828C219.105 132.789 219.072 132.742 219.05 132.69C217.243 128.657 215.71 125.01 214.45 121.75C207.963 104.93 201.407 87.2567 194.78 68.73C193.933 66.3767 193.153 63.8967 192.44 61.29C192.34 60.9367 192.457 60.68 192.79 60.52L208.66 52.77C209.34 52.4367 209.907 52.5767 210.36 53.19C214.427 58.6433 218.597 64.46 222.87 70.64C224.11 72.4333 225.5 74.0733 227.04 75.56C227.453 75.96 227.58 75.8833 227.42 75.33C224.89 66.45 222.29 56.66 221.33 47.33C221.29 46.9767 221.43 46.7267 221.75 46.58C226.87 44.12 232.04 41.3 237.66 40.47C237.853 40.4402 238.051 40.4712 238.228 40.5587C238.405 40.6463 238.552 40.7863 238.65 40.96L274.51 105.51C274.71 105.877 274.633 106.167 274.28 106.38C269.193 109.5 264.157 111.847 259.17 113.42C258.989 113.479 258.795 113.479 258.613 113.419C258.432 113.36 258.273 113.245 258.16 113.09C252.55 105.44 247.66 96.19 241.77 85.52C241.297 84.6667 241.087 84.7267 241.14 85.7C241.287 88.4133 241.71 91.0933 242.41 93.74C244.59 102.04 246.687 110.13 248.7 118.01C248.787 118.337 248.687 118.593 248.4 118.78C246.313 120.127 244.27 121.207 242.27 122.02C241.844 122.189 241.382 122.239 240.932 122.165C240.482 122.091 240.063 121.896 239.72 121.6C238.887 120.887 238.153 120.117 237.52 119.29C231.473 111.363 225.443 103.563 219.43 95.89C218.703 94.9567 218.493 95.0633 218.8 96.21Z" fill="#EDBE38"/>
<path d="M513.71 98.7702L505.78 109.32C505.677 109.458 505.53 109.558 505.363 109.605C505.195 109.652 505.015 109.643 504.85 109.58C501.35 108.24 498 106.504 494.8 104.37C494.5 104.17 494.427 103.907 494.58 103.58C495.507 101.6 496.613 99.8536 497.9 98.3402C511.16 82.7536 525.22 66.2069 540.08 48.7002C540.92 47.7069 541.967 47.3836 543.22 47.7302L559.27 52.1402C559.61 52.2336 559.763 52.4569 559.73 52.8102C559.397 55.9169 558.823 58.6736 558.01 61.0802C553.897 73.1736 549.797 86.0569 545.71 99.7302C542.95 108.95 539.89 118.027 536.53 126.96C536.513 127.004 536.488 127.043 536.456 127.076C536.423 127.109 536.385 127.135 536.342 127.152C536.3 127.169 536.254 127.177 536.209 127.175C536.164 127.173 536.12 127.161 536.08 127.14L521.11 119.22C520.803 119.054 520.663 118.797 520.69 118.45C521.07 113.87 522.8 109.13 524.51 104.81C524.683 104.37 524.567 104.034 524.16 103.8L514.94 98.5202C514.453 98.2402 514.043 98.3236 513.71 98.7702ZM528.65 92.2802C531.67 85.1136 533.83 78.5602 535.13 72.6202C535.303 71.8136 535.12 71.7202 534.58 72.3402C530.02 77.5336 525.627 82.9802 521.4 88.6802C521.287 88.8336 521.313 88.9502 521.48 89.0302L528.29 92.4102C528.457 92.4969 528.577 92.4536 528.65 92.2802Z" fill="#EDBE38"/>
<path d="M193.75 147.89C193.51 151.83 193.13 156.2 191.49 159.81C191.357 160.117 191.123 160.263 190.79 160.25C182.23 159.86 172.51 157.65 166.26 151.81C162.047 147.87 157.59 142.87 152.89 136.81C147.143 129.39 141.243 121.837 135.19 114.15C133.89 112.503 132.733 110.693 131.72 108.72C131.56 108.4 131.62 108.13 131.9 107.91L144.56 98.07C144.84 97.85 145.1 97.87 145.34 98.13C148.74 101.703 151.853 105.287 154.68 108.88C161.093 117.013 167.22 124.613 173.06 131.68C176.78 136.173 181.497 138.733 187.21 139.36C187.697 139.413 187.813 139.233 187.56 138.82C185.68 135.767 183.703 132.973 181.63 130.44C177.323 125.187 173.24 119.983 169.38 114.83C163.99 107.64 157.88 100.64 152.23 93.48C152.01 93.2067 152.01 92.93 152.23 92.65C155.82 88.09 161.02 84.58 165.86 81.29C166.173 81.0767 166.443 81.1167 166.67 81.41C180.243 98.61 193.91 115.82 207.67 133.04C209.43 135.24 211.127 137.637 212.76 140.23C212.869 140.404 212.916 140.609 212.894 140.814C212.873 141.018 212.783 141.21 212.64 141.36C209.14 145.02 204.733 148.37 199.42 151.41C199.093 151.603 198.79 151.57 198.51 151.31L194.41 147.62C194.003 147.253 193.783 147.343 193.75 147.89Z" fill="#EDBE38"/>
<path d="M305.3 570.93C305.453 571.45 305.49 571.97 305.41 572.49C303.51 585.01 302.75 597.803 303.13 610.87C303.23 614.13 302.87 617.993 302.05 622.46C301.997 622.76 301.817 622.893 301.51 622.86C299.123 622.62 296.87 622.303 294.75 621.91C291.317 621.27 289.933 619.273 290.6 615.92C291.18 613.02 291.66 610.17 291.64 607.21C291.547 593.123 291.56 579.627 291.68 566.72C291.707 563.733 292.187 559.923 293.12 555.29C294.02 550.87 293.77 546.3 294.47 541.73C294.763 539.85 294.843 538.04 294.71 536.3C294.2 529.75 296.45 523.16 297.26 516.65C298.19 509.2 300.75 501.73 300.77 493.91C300.77 493.403 300.603 493.34 300.27 493.72C298.63 495.607 297.637 497.63 297.29 499.79C296.27 506.09 294.887 512.83 293.14 520.01C291.26 527.723 290.033 534.18 289.46 539.38C288.713 546.2 288.26 552.793 288.1 559.16C288.067 560.513 287.957 561.903 287.77 563.33C286.81 570.65 287.45 577.69 286.56 585.18C285.8 591.51 286.51 597.5 285.53 603.68C285.037 606.787 285.193 610.077 286 613.55C286.087 613.917 285.983 614.217 285.69 614.45L282.78 616.79C282.513 617.003 282.213 617.067 281.88 616.98C273.107 614.713 265.673 612.05 259.58 608.99C253.84 606.11 246.483 601.977 237.51 596.59C220.137 586.163 205.587 574.653 193.86 562.06C190.16 558.08 185.96 554.89 182.44 550.81C178.553 546.317 174.567 541.66 170.48 536.84C167.53 533.37 168.7 530.49 170.27 526.91C174.017 518.357 178.43 510.74 183.51 504.06C189.397 496.32 193.893 489.37 197 483.21C198.16 480.9 200.84 478.56 203.04 477.18C207.027 474.68 210.757 472.06 214.23 469.32C215.883 468.013 217.97 467.447 220.49 467.62C224.37 467.88 228.11 468.18 231.85 466.42C235.67 464.62 239.85 462.59 242.24 459.24C242.467 458.927 242.39 458.75 242.01 458.71C238.08 458.27 233.93 460.96 230.5 462.45C230.073 462.637 229.73 462.533 229.47 462.14C228.06 459.97 226.88 457.57 227.49 454.85C229.03 447.96 228.84 441.05 226.21 434.38C226.07 434.02 225.81 433.877 225.43 433.95C214.28 436.22 205.38 443.67 194.19 445.48C194.118 445.49 194.045 445.485 193.975 445.467C193.905 445.449 193.84 445.416 193.783 445.373C193.726 445.329 193.678 445.274 193.644 445.212C193.609 445.149 193.587 445.081 193.58 445.01C192.5 435.51 193.48 425.75 194.5 416.17C194.54 415.783 194.37 415.547 193.99 415.46C183.65 413.06 173.337 411.16 163.05 409.76C162.67 409.713 162.5 409.497 162.54 409.11C162.827 406.097 163.8 403.483 165.46 401.27C170.3 394.843 175.25 387.927 180.31 380.52C183.26 376.21 186.73 372.33 190.16 368.41C190.758 367.727 191.075 366.843 191.047 365.935C191.019 365.028 190.648 364.165 190.01 363.52C185.87 359.333 181.613 355.09 177.24 350.79C175.68 349.25 174.83 347.413 174.69 345.28C174.67 344.96 174.807 344.737 175.1 344.61C185.34 340.12 197.08 340.83 207.65 336.7C208.01 336.56 208.137 336.303 208.03 335.93C207.543 334.263 207.19 333.207 206.97 332.76C204.403 327.56 201.94 322.49 199.58 317.55C199.287 316.937 199.47 316.547 200.13 316.38C209.5 313.96 219.03 317.47 228.43 314.94C228.495 314.923 228.556 314.892 228.609 314.849C228.661 314.805 228.702 314.751 228.731 314.689C228.76 314.627 228.774 314.559 228.774 314.49C228.774 314.421 228.759 314.353 228.73 314.29L222.18 300.6C222.154 300.545 222.142 300.484 222.144 300.423C222.146 300.362 222.162 300.303 222.191 300.249C222.221 300.196 222.262 300.15 222.312 300.115C222.362 300.081 222.42 300.058 222.48 300.05C228.94 299.15 235.22 299.04 241.69 300.31C247.243 301.403 253.07 302.23 259.17 302.79C259.523 302.823 259.703 302.663 259.71 302.31C259.803 293.883 260.373 285.857 261.42 278.23C262.25 272.14 258.69 263.45 256.52 257.38C255.727 255.187 255.347 252.827 255.38 250.3C255.47 242.15 255.53 234.68 254.52 226.99C254.147 224.19 254.003 221.51 254.09 218.95C254.33 212.043 254.447 205.237 254.44 198.53C254.44 189.54 260.2 181.93 264.64 174.67C267.66 169.72 261.17 164.59 264.13 159.39C266.957 154.417 270.353 150.137 274.32 146.55C278.353 142.897 281.94 138.753 285.08 134.12C287.64 130.36 290.83 126 294.72 123.8C298.05 121.92 303.06 122.75 306.97 122.87C307.39 122.883 307.767 122.763 308.1 122.51C313.34 118.53 320.227 115.683 328.76 113.97C331.347 113.45 333.547 113.413 335.36 113.86C338.88 114.72 342.31 115.3 345.99 115.26C351.5 115.2 357.59 114.97 362.55 116.84C364.84 117.71 366.98 118.6 369.45 118.95C376.81 119.99 383.563 120.35 389.71 120.03C392.17 119.903 394.403 120.097 396.41 120.61C404.41 122.66 411.64 124.23 418.32 129.41C426.38 135.67 434.06 141.47 438.44 149.91C438.593 150.21 438.817 150.447 439.11 150.62C446.18 154.68 449.83 159.54 454.18 165.94C455.073 167.267 455.847 168.623 456.5 170.01C458.16 173.58 458.75 177.72 460.01 181.44C461.97 187.21 462.7 193.38 464.6 199.24C466.653 205.607 468.297 212.11 469.53 218.75C469.91 220.823 470.117 222.847 470.15 224.82C470.2 227.51 469.94 230.29 470.82 232.92C471.793 235.8 473.14 238.69 474.86 241.59C477.36 245.82 474.35 250.99 478.26 254.52C481.58 257.52 484.23 261.3 486.21 265.86C486.343 266.173 486.583 266.333 486.93 266.34C499.03 266.48 511.29 269.69 522.73 272.33C526.543 273.21 530.273 274.427 533.92 275.98C534.038 276.028 534.133 276.119 534.189 276.236C534.244 276.352 534.255 276.485 534.22 276.61C532.89 281.14 529.04 285.77 526.44 289.8C526.346 289.949 526.311 290.128 526.343 290.299C526.374 290.47 526.47 290.621 526.61 290.72C528.63 292.153 530.983 293.287 533.67 294.12C537.683 295.353 541.837 296.613 546.13 297.9C548.137 298.5 550.073 299.35 551.94 300.45C552.253 300.63 552.347 300.89 552.22 301.23C549.22 309.4 542.54 315.12 539.25 323.03C539.09 323.416 539.076 323.846 539.21 324.239C539.345 324.632 539.619 324.96 539.98 325.16C546.073 328.56 551.577 332.08 556.49 335.72C560.443 338.653 563.627 342.257 566.04 346.53C566.213 346.843 566.17 347.123 565.91 347.37C560.37 352.65 552.99 356.1 547.14 360.33C545.847 361.27 544.647 362.443 543.54 363.85C543.446 363.97 543.389 364.113 543.373 364.263C543.357 364.414 543.384 364.565 543.45 364.7C544.99 367.84 547.333 371.173 550.48 374.7C556.29 381.23 562.2 387.83 565.93 395.44C565.991 395.564 566.01 395.705 565.985 395.84C565.959 395.975 565.891 396.098 565.79 396.19C559.35 402.01 551.02 404.79 542.96 407.77C542.56 407.917 542.443 408.187 542.61 408.58C545.497 415.527 548 422.4 550.12 429.2C550.84 431.52 552.253 433.25 554.36 434.39C566.667 441.057 580.067 449.003 594.56 458.23C597.487 460.09 598.3 462.717 597 466.11C595.307 470.563 593.663 474.883 592.07 479.07C588.75 487.79 583.6 495.72 578.38 503.94C560.79 531.65 540.37 558.38 515.8 578.1C507.593 584.687 499.423 590.827 491.29 596.52C481.77 603.18 471.42 608.28 460.15 612.45C456.383 613.85 452.353 615.453 448.06 617.26C442 619.813 435.74 621.747 429.28 623.06C425.133 623.9 420.72 624.937 416.04 626.17C411.18 627.45 407.33 628.19 404.49 628.39C396.59 628.93 388.517 629.62 380.27 630.46C377.17 630.78 367.23 630.757 350.45 630.39C350.083 630.377 349.813 630.207 349.64 629.88C347.99 626.77 348.39 622.58 348.93 619.2C349.237 617.293 349.287 615.303 349.08 613.23C348.46 607.123 348.32 601.907 348.66 597.58C348.98 593.5 349.203 589.553 349.33 585.74C349.61 577.06 350.77 568.74 351.4 560.39C351.72 556.197 352.263 552.27 353.03 548.61C353.79 544.977 354.303 541 354.57 536.68C354.97 530.4 356.58 524.4 357.53 518.3C358.37 512.9 360.15 507.47 361.42 502.03C361.873 500.103 361.303 498.29 359.71 496.59C359.41 496.27 359.177 496.313 359.01 496.72C351.82 514.21 349.95 532.47 347.1 551.49C346.56 555.117 346.153 559.103 345.88 563.45C344.6 583.88 342.76 602.15 344.46 622.91C344.607 624.717 344.53 626.717 344.23 628.91C344.17 629.33 343.93 629.537 343.51 629.53C339.67 629.47 334.01 630.74 333.73 625C333.47 619.6 334.61 613.37 334.68 609.2C334.747 604.893 334.573 600.827 334.16 597C333.847 594.1 333.837 591.34 334.13 588.72C334.93 581.47 334.33 574.2 335.26 566.65C337.83 545.8 340.06 525.38 344.79 504.78C345.437 501.973 345.843 499.06 346.01 496.04C346.03 495.693 345.877 495.463 345.55 495.35C342.297 494.25 339.08 493.99 335.9 494.57C335.823 494.584 335.75 494.616 335.687 494.663C335.623 494.709 335.571 494.769 335.534 494.839C335.497 494.909 335.475 494.987 335.471 495.066C335.467 495.146 335.48 495.226 335.51 495.3C336.61 497.9 337.623 500.48 338.55 503.04C340.59 508.65 336.13 516.83 332.54 520.86C332.273 521.16 332.23 521.49 332.41 521.85C336.49 529.96 337.77 535.43 331.93 543.24C330.997 544.487 330.4 545.973 330.14 547.7C329.707 550.587 329.077 553.333 328.25 555.94C327.65 557.82 329.1 560.23 330.12 561.72C332.54 565.27 331.63 571.39 329.68 574.59C327.273 578.53 323.613 581.393 318.7 583.18C318.257 583.336 317.776 583.354 317.32 583.23C314.64 582.47 312.07 581.413 309.61 580.06C309.21 579.84 308.91 579.527 308.71 579.12C307.57 576.793 306.687 574.337 306.06 571.75C305.973 571.397 305.82 571.073 305.6 570.78C305.576 570.747 305.542 570.724 305.503 570.715C305.464 570.705 305.422 570.71 305.386 570.728C305.35 570.746 305.322 570.776 305.306 570.813C305.29 570.85 305.288 570.891 305.3 570.93ZM362.86 328.63L357.27 323.04C357.01 322.78 356.72 322.747 356.4 322.94C352.513 325.26 348.447 327.18 344.2 328.7C343.827 328.833 343.607 329.097 343.54 329.49L343.15 331.69C343.09 332.03 343.213 332.28 343.52 332.44C347.94 334.74 353.29 335.08 358.2 334.85C360.04 334.77 361.74 335.76 363.15 336.84C367.28 340 371.12 343.42 375.43 346.48C380.163 349.847 383.803 354.677 386.35 360.97C386.47 361.263 386.38 361.467 386.08 361.58C382.81 362.77 379.01 362.63 375.57 362.3C375.423 362.286 375.277 362.322 375.155 362.402C375.033 362.482 374.943 362.601 374.9 362.74C374.053 365.42 373.917 367.98 374.49 370.42C376.44 378.68 380.08 388.63 385.53 394.75C385.823 395.09 386.167 395.15 386.56 394.93C392.28 391.703 398.237 388.357 404.43 384.89C409.41 382.103 413.21 379.35 415.83 376.63C420.33 371.957 423.06 367.2 424.02 362.36C424.74 358.73 427.08 356.95 429.87 354.96C430.183 354.733 430.5 354.733 430.82 354.96C433.087 356.567 434.04 358.3 433.68 360.16C432.58 365.8 429.08 371.33 425.96 376.17C424.533 378.37 422.813 380.503 420.8 382.57C415.38 388.11 409.71 393.493 403.79 398.72C399.663 402.373 396.17 406.447 393.31 410.94C393.285 410.98 393.269 411.026 393.263 411.073C393.258 411.12 393.263 411.168 393.278 411.213C393.293 411.258 393.319 411.299 393.352 411.333C393.385 411.367 393.425 411.393 393.47 411.41C395.89 412.33 399.19 413.6 401.59 411.82C417.39 400.05 431.97 387.58 442.23 370.93C443.03 369.63 443.34 367.79 442.93 366.31C441.843 362.39 441.89 358.573 443.07 354.86C443.52 353.45 443.42 351.12 442.92 349.73C440.66 343.41 439.98 336.38 443.07 330.23C443.322 329.726 443.739 329.326 444.25 329.1C451.17 326.06 459.77 322.32 464.42 316.4C467.42 312.58 470.553 308.36 473.82 303.74C477.32 298.79 480.36 292.29 479.74 286.17C479.4 282.86 478.48 279.66 478.46 276.29C478.41 269.73 476.68 262.83 472.02 258.08C471.72 257.78 471.36 257.6 470.94 257.54C467.03 256.99 462.86 255.71 459.04 257.41C451.56 260.74 446.05 266.87 440.62 272.85C440.313 273.19 439.933 273.35 439.48 273.33L436.04 273.18C435.673 273.16 435.483 272.967 435.47 272.6C435.317 268.12 435.343 265.15 435.55 263.69C436.77 255.103 437.573 247.023 437.96 239.45C437.98 239.083 438.163 238.833 438.51 238.7L443.56 236.75C444.033 236.563 444.13 236.257 443.85 235.83L440.26 230.4C440.033 230.06 440.073 229.747 440.38 229.46C441.913 228.033 443.137 226.42 444.05 224.62C444.081 224.559 444.097 224.492 444.096 224.423C444.096 224.355 444.078 224.288 444.046 224.228C444.013 224.168 443.967 224.116 443.91 224.078C443.853 224.04 443.788 224.017 443.72 224.01C441.233 223.757 439.097 224.56 437.31 226.42C437.023 226.72 436.707 226.76 436.36 226.54C432.7 224.193 428.763 221.79 424.55 219.33C421.18 217.36 414.73 210.76 414.37 205.45C413.99 199.723 413.007 194.043 411.42 188.41C411.08 187.203 410.987 185.963 411.14 184.69C411.18 184.35 411.327 184.067 411.58 183.84L415.17 180.56C415.477 180.28 415.46 180.023 415.12 179.79L409.61 175.95C409.243 175.697 409.203 175.4 409.49 175.06L411.61 172.49C411.749 172.322 411.934 172.2 412.141 172.139C412.348 172.079 412.567 172.082 412.77 172.15C416.343 173.297 419.97 174.13 423.65 174.65C424.283 174.743 424.39 174.547 423.97 174.06C420.96 170.58 415.77 169.48 411.5 168.36C410.737 168.158 410.049 167.738 409.523 167.151C408.997 166.564 408.655 165.837 408.54 165.06L406.84 153.5C406.829 153.431 406.803 153.366 406.763 153.309C406.722 153.252 406.669 153.205 406.608 153.172C406.546 153.138 406.478 153.119 406.407 153.115C406.336 153.111 406.266 153.123 406.2 153.15L398.61 156.35C397.568 156.792 396.444 157.01 395.31 156.99C387.29 156.83 378.47 158.49 371.75 153.12C367.23 149.513 363.003 146.33 359.07 143.57C359.001 143.521 358.922 143.488 358.839 143.473C358.756 143.457 358.671 143.46 358.588 143.481C358.506 143.502 358.428 143.54 358.361 143.593C358.294 143.647 358.239 143.714 358.2 143.79L354.91 150.27C354.71 150.65 354.397 150.847 353.97 150.86C352.477 150.9 351.067 151.22 349.74 151.82C349.447 151.953 349.2 152.147 349 152.4C346.133 156.167 342.68 157.327 338.64 155.88C337.227 155.373 336.163 154.34 335.45 152.78C335.317 152.487 335.093 152.37 334.78 152.43L331.81 152.99C331.423 153.063 331.16 152.917 331.02 152.55L328.62 146.41C328.453 145.997 328.23 145.963 327.95 146.31C326.87 147.677 325.907 149.073 325.06 150.5C323.02 153.94 320.1 156.4 317.86 159.68C317.573 160.1 317.177 160.3 316.67 160.28C309.87 160.02 302.6 159.6 296.39 161.13C295.13 161.437 294.057 162.117 293.17 163.17C288.297 168.97 284.257 175.853 281.05 183.82C277.463 192.727 275.033 200.537 273.76 207.25C273.05 210.98 272.89 214.57 274.17 218.23C275.183 221.13 275.977 223.89 276.55 226.51C276.73 227.325 276.594 228.176 276.17 228.89C275.21 230.483 274.187 231.98 273.1 233.38C270.16 237.15 273.41 241.03 277.59 240.97C278.65 240.95 279.757 241.04 280.91 241.24C285.877 242.093 290.287 243.017 294.14 244.01C296.58 244.643 299.073 245.82 301.62 247.54C301.96 247.767 302.3 247.767 302.64 247.54L309.5 242.96C309.82 242.747 310.08 242.803 310.28 243.13C312.86 247.33 314.247 251.797 314.44 256.53C314.807 265.277 314.097 272.977 312.31 279.63C311.02 284.44 310.69 289.2 309.55 293.91C308.977 296.303 308.627 298.737 308.5 301.21C308.287 305.557 307.333 309.583 305.64 313.29C302.55 320.02 305.19 327.37 309.14 333.19C309.34 333.483 309.62 333.643 309.98 333.67C315 334.01 318.89 333.7 322.7 330.88C328.42 326.65 333.24 322.25 340.87 321.87C341.257 321.85 341.59 321.707 341.87 321.44L345.34 318.09C345.613 317.823 345.67 317.517 345.51 317.17L344.6 315.16C344.453 314.84 344.21 314.633 343.87 314.54L336.63 312.57C336.557 312.551 336.492 312.512 336.44 312.457C336.389 312.403 336.353 312.335 336.338 312.261C336.323 312.186 336.328 312.109 336.353 312.036C336.378 311.964 336.422 311.9 336.48 311.85L342.82 306.65C343.06 306.45 343.34 306.37 343.66 306.41C347.32 306.89 350.447 308.777 353.04 312.07C356.587 316.563 359.783 320.683 362.63 324.43C363.463 325.523 363.773 326.847 363.56 328.4C363.487 328.953 363.253 329.03 362.86 328.63ZM272.86 254.62C272.904 254.623 272.948 254.616 272.99 254.601C273.031 254.585 273.069 254.561 273.1 254.53L275.33 252.31C275.364 252.273 275.39 252.229 275.403 252.18C275.416 252.131 275.418 252.08 275.407 252.031C275.396 251.982 275.373 251.936 275.341 251.897C275.308 251.859 275.267 251.829 275.22 251.81L268.26 249.04C268.215 249.023 268.166 249.016 268.117 249.021C268.069 249.026 268.023 249.042 267.982 249.069C267.941 249.095 267.907 249.131 267.882 249.172C267.857 249.214 267.843 249.261 267.84 249.31L267.45 254.07C267.447 254.111 267.453 254.151 267.466 254.19C267.479 254.229 267.499 254.264 267.526 254.295C267.553 254.326 267.586 254.351 267.623 254.369C267.659 254.387 267.699 254.397 267.74 254.4L272.86 254.62ZM291.37 258.67C284.35 255.37 277.08 259.28 271.57 263.82C271.283 264.053 271.303 264.26 271.63 264.44C273.383 265.42 275.057 265.78 276.65 265.52C283.763 264.36 291.283 264.333 299.21 265.44C299.757 265.52 299.85 265.35 299.49 264.93C297.157 262.203 294.45 260.117 291.37 258.67ZM278.32 285.6L271.24 283C270.853 282.86 270.59 282.983 270.45 283.37C268.42 288.9 266.74 295.16 272.33 299.27C274.817 301.097 277.097 303.14 279.17 305.4C279.529 305.791 279.764 306.278 279.848 306.801C279.932 307.324 279.859 307.859 279.64 308.34C277.69 312.6 277.5 316.84 278.82 321.45C280.1 325.91 281.12 330.96 283.52 334.61C284.65 336.33 286.87 336.58 288.73 336.48C289.003 336.467 289.187 336.33 289.28 336.07C291.033 331.07 292.543 325.997 293.81 320.85C294.77 316.94 297.94 314.71 298.65 310.85C299.68 305.31 301.22 296.04 298.08 291.59C297.187 290.323 296.283 289.05 295.37 287.77C294.946 287.176 294.773 286.44 294.887 285.72C295.001 285 295.394 284.353 295.98 283.92C298.587 281.987 301.217 279.71 303.87 277.09C304.143 276.817 304.127 276.56 303.82 276.32C299.05 272.7 294.19 270.46 288.4 273.14C285.333 274.56 282.387 276.063 279.56 277.65C279.247 277.83 279.09 278.1 279.09 278.46L279.13 285.04C279.13 285.613 278.86 285.8 278.32 285.6ZM221.69 419.1C221.917 419.82 222.123 420.51 222.31 421.17C222.417 421.523 222.653 421.727 223.02 421.78C225.013 422.047 226.76 421.68 228.26 420.68C230.447 419.22 233.103 418.44 236.23 418.34C236.57 418.327 236.753 418.49 236.78 418.83C237.66 429.817 238.227 440.377 238.48 450.51C238.482 450.575 238.502 450.638 238.539 450.692C238.575 450.746 238.625 450.789 238.684 450.816C238.744 450.843 238.809 450.853 238.874 450.845C238.938 450.837 238.999 450.811 239.05 450.77C243.49 447.05 248.097 444.117 252.87 441.97C253.19 441.83 253.333 441.587 253.3 441.24L252.9 437.35C252.84 436.73 253.063 436.6 253.57 436.96C258.04 440.13 261.04 437.61 264.74 435.32C266.073 434.493 268.303 434.05 271.43 433.99C271.77 433.983 271.98 434.147 272.06 434.48C272.573 436.667 272.897 438.873 273.03 441.1C273.477 448.367 273.97 455.44 274.51 462.32C274.516 462.402 274.542 462.482 274.585 462.552C274.628 462.622 274.687 462.681 274.757 462.724C274.828 462.767 274.907 462.793 274.989 462.799C275.071 462.805 275.154 462.792 275.23 462.76C281.343 460.16 287.243 457.96 292.93 456.16C296 455.2 299.38 456.15 300.64 459.41C302.83 465.06 303.52 471.4 304.23 477.38C304.283 477.84 304.54 478.063 305 478.05C307.733 477.99 310.06 477.333 311.98 476.08C315.54 473.76 321.61 467.29 326.29 470.37C330.8 473.34 334.83 477.76 338.25 481.75C338.643 482.209 339.14 482.569 339.699 482.801C340.258 483.032 340.864 483.128 341.467 483.082C342.071 483.035 342.656 482.846 343.174 482.532C343.692 482.217 344.129 481.785 344.45 481.27C349.36 473.37 357.13 467.95 361.96 459.96C361.991 459.908 362.032 459.864 362.08 459.828C362.129 459.793 362.183 459.767 362.241 459.753C362.299 459.739 362.359 459.737 362.417 459.747C362.475 459.757 362.53 459.778 362.58 459.81C368.05 463.34 372.2 467.79 376.57 472.52C376.85 472.82 377.147 472.84 377.46 472.58C383.73 467.39 389.3 460.31 394.44 453.87C394.523 453.766 394.637 453.69 394.765 453.651C394.893 453.612 395.031 453.611 395.16 453.65C400.33 455.23 405.24 460.31 409.13 464.02C411.797 466.56 414.833 468.38 418.24 469.48C418.4 469.533 418.572 469.538 418.736 469.493C418.899 469.449 419.047 469.357 419.16 469.23C425.27 462.32 426.58 452.85 432.92 446.22C433.021 446.116 433.156 446.051 433.3 446.037C433.445 446.022 433.59 446.059 433.71 446.14C436.823 448.233 439.61 450.523 442.07 453.01C446.257 457.257 450.73 461.777 455.49 466.57C455.546 466.625 455.613 466.667 455.687 466.694C455.761 466.72 455.84 466.73 455.918 466.722C455.995 466.714 456.07 466.689 456.136 466.649C456.202 466.609 456.258 466.555 456.3 466.49C459.907 460.89 463.37 454.573 466.69 447.54C466.917 447.067 466.767 446.84 466.24 446.86L460.66 447.06C460.207 447.08 460.03 446.867 460.13 446.42L460.5 444.73C460.6 444.29 460.85 444.173 461.25 444.38C462.21 444.873 463.213 445.367 464.26 445.86C467.24 447.26 467.84 444.38 468.51 442.39C468.637 442.01 468.893 441.767 469.28 441.66C470.433 441.353 471.463 441.447 472.37 441.94C481.79 447.1 491.82 456 500.85 462.94C501.163 463.18 501.423 463.137 501.63 462.81C504.717 458.01 506.34 452.743 506.5 447.01C506.65 441.9 507.14 435.65 509.6 431.22C509.767 430.92 510.013 430.82 510.34 430.92L540.67 440.15C540.828 440.198 540.999 440.188 541.149 440.121C541.3 440.055 541.421 439.938 541.49 439.79C542.49 437.703 542.777 435.697 542.35 433.77C540.33 424.737 536.33 415.76 530.35 406.84C528.95 404.74 531.83 401.65 533.73 401.03C539.31 399.19 545.29 397.9 549.79 394.08C549.912 393.973 550.006 393.837 550.062 393.685C550.118 393.533 550.134 393.369 550.11 393.21C549.87 391.597 549.41 390.24 548.73 389.14C543.01 379.89 534.43 372.45 525.96 365.49C525.68 365.263 525.613 364.983 525.76 364.65C527.167 361.477 528.917 359.287 531.01 358.08C537.07 354.567 543.64 350.46 550.72 345.76C550.98 345.587 551.013 345.377 550.82 345.13C543.85 336.2 532.84 332.45 522.26 329.39C522.219 329.378 522.181 329.357 522.148 329.329C522.116 329.301 522.09 329.267 522.072 329.228C522.054 329.189 522.044 329.147 522.044 329.104C522.044 329.061 522.053 329.019 522.07 328.98C523.43 325.807 525.253 322.77 527.54 319.87C531.42 314.943 534.727 310.413 537.46 306.28C537.49 306.234 537.51 306.181 537.516 306.126C537.523 306.071 537.517 306.015 537.499 305.963C537.48 305.911 537.45 305.863 537.41 305.825C537.371 305.786 537.323 305.757 537.27 305.74C528.87 302.96 520.53 300.55 512.25 298.51C511.837 298.41 511.723 298.167 511.91 297.78C514.59 292.187 516.88 286.683 518.78 281.27C518.839 281.109 518.831 280.93 518.756 280.773C518.681 280.615 518.546 280.492 518.38 280.43C508.74 276.93 497.79 274.98 487.73 277.4C487.37 277.487 487.187 277.713 487.18 278.08C487.02 289.96 484.8 302.65 477.63 312.07C475.08 315.41 471.95 318.29 468.93 321.27C466.717 323.463 464.607 325.78 462.6 328.22C460.693 330.54 458.253 333.12 455.28 335.96C452.56 338.547 451.527 341.8 452.18 345.72C452.727 348.973 453.34 352.027 454.02 354.88C454.147 355.413 454.403 355.483 454.79 355.09L459.38 350.34C459.425 350.293 459.48 350.259 459.542 350.239C459.603 350.22 459.669 350.216 459.732 350.228C459.796 350.239 459.855 350.267 459.905 350.307C459.956 350.348 459.995 350.4 460.02 350.46C460.787 352.3 460.91 354.19 460.39 356.13C459.543 359.277 458.697 362.543 457.85 365.93C456.32 372.04 451.99 376.67 447.78 380.96C445.627 383.153 443.437 385.52 441.21 388.06C433.77 396.527 427.323 402.88 421.87 407.12C416.36 411.4 410.54 415.49 404.43 419.16C394.98 424.85 387.47 433.49 384.62 444.26C384.513 444.647 384.263 444.88 383.87 444.96C381.803 445.36 379.677 445.76 377.49 446.16C375.16 446.59 373.58 448.08 371.77 449.48C367.1 453.11 361.05 453.06 356.95 457.44C356.71 457.693 356.443 457.72 356.15 457.52L351.52 454.24C351.22 454.027 350.887 453.93 350.52 453.95C346.66 454.17 342.85 454.59 338.97 453.77C336.737 453.297 334.473 453.043 332.18 453.01C319.46 452.85 307.07 452.91 295.73 447.45C293.443 446.35 291.38 444.76 289.54 442.68C285.08 437.65 280.16 432.76 279.85 425.71C279.83 425.21 279.6 425.077 279.16 425.31C278.907 425.443 278.647 425.567 278.38 425.68C277.82 425.92 277.62 425.743 277.78 425.15C279.193 419.83 279.793 414.79 279.58 410.03C279.34 404.53 281.02 399.23 282.23 393.94C282.863 391.18 282.86 388.52 282.22 385.96C280.86 380.57 284.43 376.78 281.38 371.33C279.78 368.47 278.273 365.52 276.86 362.48C276.7 362.127 276.653 361.76 276.72 361.38C277.07 359.32 278.81 354.81 278.19 353.01C274.04 340.74 270.62 328.49 265.93 316.7C265.874 316.562 265.779 316.443 265.657 316.356C265.535 316.27 265.39 316.219 265.24 316.21L262.01 316.07C261.463 316.05 261.32 315.8 261.58 315.32L262.94 312.74C263.147 312.353 263.037 312.117 262.61 312.03C254.443 310.263 245.7 308.743 236.38 307.47C235.953 307.41 235.76 307.597 235.8 308.03C235.947 309.37 236.28 310.68 236.8 311.96C238.273 315.56 239.893 319.277 241.66 323.11C241.706 323.211 241.727 323.321 241.72 323.432C241.713 323.542 241.679 323.649 241.62 323.744C241.562 323.838 241.481 323.916 241.385 323.971C241.289 324.026 241.181 324.057 241.07 324.06C234.21 324.327 227.813 324.31 221.88 324.01C219.14 323.87 216.323 324.033 213.43 324.5C213.003 324.567 212.9 324.787 213.12 325.16L223.51 342.37C223.743 342.75 223.66 343.04 223.26 343.24C220.893 344.44 218.333 345.193 215.58 345.5C206.227 346.547 197.53 348.387 189.49 351.02C188.997 351.18 188.927 351.45 189.28 351.83C192.593 355.323 196.347 358.58 200.54 361.6C201.94 362.607 203.167 363.89 204.22 365.45C204.453 365.79 204.443 366.123 204.19 366.45C195.51 377.8 186.76 389.06 179.14 401.11C179.094 401.181 179.066 401.262 179.056 401.346C179.046 401.43 179.056 401.515 179.084 401.595C179.112 401.675 179.157 401.748 179.217 401.807C179.277 401.867 179.35 401.912 179.43 401.94C187.357 404.687 195.817 406.38 204.81 407.02C205.021 407.035 205.219 407.131 205.362 407.287C205.505 407.443 205.583 407.648 205.58 407.86C205.54 412.82 205.187 418.083 204.52 423.65C204.273 425.73 204.207 427.71 204.32 429.59C204.347 429.99 204.553 430.14 204.94 430.04C209.54 428.833 214.41 427.277 219.55 425.37C222.19 424.39 221.36 421.22 221.35 419.16C221.35 418.413 221.463 418.393 221.69 419.1ZM339.13 354.55C336.5 358.59 315.85 358.02 310.6 358.2C310.14 358.22 309.973 358.45 310.1 358.89L311.17 362.8C311.323 363.347 311.677 363.69 312.23 363.83C316.11 364.797 319.357 366.223 321.97 368.11C325.67 370.76 329.74 372.6 333.4 375.16C333.707 375.373 333.76 375.643 333.56 375.97C332.34 377.937 330.673 379.11 328.56 379.49C325.693 380.003 322.993 380.62 320.46 381.34C317.613 382.153 314.573 384.077 311.34 387.11C311.1 387.337 311.027 387.607 311.12 387.92C313.41 396.05 319.04 399.34 326.92 399.09C329.84 398.99 333.99 399.48 336.63 398.13C339.743 396.53 342.713 394.52 345.54 392.1C348.46 389.6 348.04 386.71 347.76 383.3C347.27 377.19 354.37 374.94 355.25 369.63C355.917 365.557 356.337 361.483 356.51 357.41C356.519 357.231 356.471 357.054 356.374 356.903C356.278 356.753 356.136 356.636 355.97 356.57C351.397 354.723 347.007 352.497 342.8 349.89C339.88 348.09 333.56 348.99 330.73 349.83C328.44 350.51 326.77 351.4 324.23 350.58C321.583 349.713 319.033 349.447 316.58 349.78C315.307 349.953 315.077 350.54 315.89 351.54L316.9 352.78C317.336 353.315 317.888 353.743 318.514 354.031C319.14 354.319 319.822 354.459 320.51 354.44C325.937 354.313 331.117 354.087 336.05 353.76C336.997 353.7 337.95 353.78 338.91 354C339.25 354.08 339.323 354.263 339.13 354.55ZM310.96 501.23C310.943 501.269 310.938 501.314 310.948 501.357C310.957 501.399 310.979 501.438 311.011 501.466C311.042 501.494 311.082 501.511 311.123 501.513C311.165 501.516 311.206 501.504 311.24 501.48L318.53 496.57C318.923 496.31 319.003 495.97 318.77 495.55C317.69 493.603 316.197 492.047 314.29 490.88C313.803 490.587 313.547 490.723 313.52 491.29C313.333 494.603 312.48 497.917 310.96 501.23ZM310.57 512.03C308.977 517.617 308.19 522.973 308.21 528.1C308.21 528.747 308.44 528.843 308.9 528.39L316.93 520.43C317.257 520.11 317.293 519.76 317.04 519.38C315.26 516.74 313.203 514.263 310.87 511.95C310.723 511.803 310.623 511.83 310.57 512.03ZM307.9 534.6C306.767 536.82 306.187 538.977 306.16 541.07C306.067 547.817 306.073 556.077 306.18 565.85C306.193 566.837 306.49 566.93 307.07 566.13L311 560.73C311.318 560.289 311.539 559.787 311.649 559.257C311.759 558.726 311.756 558.178 311.64 557.65C310.88 554.19 310.873 550.673 311.62 547.1C312.75 541.71 310.83 538.96 308.3 534.59C308.16 534.35 308.027 534.353 307.9 534.6ZM321.17 551.65C326.61 546.56 318.23 543.89 317.95 548.39C317.863 549.683 318.47 550.8 319.77 551.74C320.263 552.1 320.73 552.07 321.17 551.65Z" fill="#EDBE38"/>
<path d="M627.04 164.14C626.94 163.78 626.743 163.717 626.45 163.95L600.86 184.73C600.513 185.01 600.183 184.99 599.87 184.67C595.737 180.47 591.927 175.977 588.44 171.19C588.385 171.113 588.36 171.017 588.371 170.921C588.382 170.826 588.428 170.736 588.5 170.67C599.14 160.87 610.75 152.46 621.76 143.1C629.673 136.38 637.727 129.894 645.92 123.64C646.047 123.545 646.203 123.499 646.361 123.51C646.519 123.521 646.668 123.589 646.78 123.7C650.833 127.794 654.64 132.327 658.2 137.3C658.25 137.371 658.271 137.457 658.26 137.544C658.249 137.631 658.206 137.711 658.14 137.77L635.1 157.08C635.024 157.145 634.969 157.232 634.941 157.328C634.913 157.424 634.913 157.526 634.942 157.621C634.971 157.715 635.027 157.799 635.103 157.861C635.179 157.924 635.272 157.961 635.37 157.97C641.91 158.63 647.8 154.96 649.77 148.32C649.877 147.967 650.113 147.794 650.48 147.8C656.29 147.96 662.3 147.68 667.98 149.21C668.3 149.297 668.47 149.507 668.49 149.84C668.703 153.974 668.047 157.257 666.52 159.69C662.73 165.74 656.01 170.88 648.64 170.59C646.727 170.517 644.867 170.34 643.06 170.06C642.995 170.05 642.928 170.054 642.864 170.071C642.8 170.089 642.741 170.119 642.689 170.16C642.637 170.201 642.595 170.253 642.564 170.311C642.533 170.37 642.515 170.434 642.51 170.5C642.22 174.32 642.72 178.54 640.91 181.99C638.263 187.044 635.38 190.89 632.26 193.53C627.53 197.53 622.48 202.56 616.98 205.57C616.653 205.75 616.363 205.704 616.11 205.43C612.597 201.69 609.26 197.477 606.1 192.79C605.88 192.464 605.913 192.164 606.2 191.89C610.827 187.49 615.537 183.35 620.33 179.47C624.73 175.91 628.6 169.76 627.04 164.14Z" fill="#EDBE38"/>
<path d="M108.23 139.33C110.68 133.86 115.44 129.9 119.19 125.46C119.457 125.14 119.76 125.1 120.1 125.34C126.37 129.74 131.28 135.46 136.82 140.39C149.8 151.923 162.673 163.63 175.44 175.51C175.78 175.823 175.797 176.153 175.49 176.5L164.29 189.18C164.148 189.34 163.952 189.441 163.741 189.463C163.53 189.485 163.319 189.427 163.15 189.3C151.64 180.56 141.63 170.33 130.46 160.44C123.02 153.847 115.677 147.143 108.43 140.33C108.123 140.043 108.057 139.71 108.23 139.33Z" fill="#EDBE38"/>
<path d="M88.6599 179.33C90.9099 180.53 93.7199 182.08 96.3099 181.59C105.93 179.797 114.07 178.077 120.73 176.43C124.823 175.417 128.843 175.817 132.79 177.63C135.923 179.077 138.813 180.74 141.46 182.62C141.816 182.873 142.077 183.24 142.2 183.66C144.44 191.16 146.353 198.777 147.94 206.51C148.013 206.87 147.957 207.207 147.77 207.52C145.59 211.28 141.71 213.97 138.2 216.38C133.48 219.63 127.92 220.97 122.61 222.81C122.203 222.944 121.917 222.817 121.75 222.43C119.17 216.504 116.893 210.467 114.92 204.32C114.78 203.88 114.94 203.644 115.4 203.61C122.21 203.13 130.39 203.13 135.08 197.74C135.13 197.681 135.164 197.611 135.179 197.535C135.194 197.459 135.189 197.381 135.165 197.308C135.141 197.235 135.098 197.169 135.041 197.117C134.984 197.064 134.915 197.028 134.84 197.01C125.46 194.83 116.53 197.94 107.44 199.86C99.0199 201.64 91.7899 199.654 85.7499 193.9C84.5499 192.76 83.7199 191.39 83.2599 189.79C81.0866 182.224 79.9799 174.937 79.9399 167.93C79.9399 167.597 80.0733 167.33 80.3399 167.13C85.4399 163.304 90.9833 160.31 96.9699 158.15C97.4099 157.99 97.7399 158.12 97.9599 158.54L105.71 173.74C105.756 173.831 105.78 173.931 105.778 174.033C105.776 174.135 105.749 174.235 105.7 174.323C105.65 174.412 105.58 174.488 105.494 174.543C105.409 174.598 105.311 174.632 105.21 174.64C99.7099 175.11 93.2099 175.28 88.6099 178.67C88.2833 178.917 88.2999 179.137 88.6599 179.33Z" fill="#EDBE38"/>
<path d="M681.1 200.23L669.1 207.4C668.96 207.485 668.859 207.622 668.817 207.781C668.776 207.939 668.799 208.108 668.88 208.25C671.49 212.8 675.98 217.25 676.07 222.65C676.083 223.237 675.85 223.7 675.37 224.04C672.25 226.247 668.94 227.4 665.44 227.5C665.06 227.507 664.787 227.337 664.62 226.99C662.767 222.984 660.473 218.89 657.74 214.71C657.628 214.542 657.46 214.42 657.267 214.367C657.074 214.313 656.869 214.332 656.69 214.42L645.46 219.89C645.331 219.955 645.232 220.067 645.185 220.204C645.139 220.341 645.147 220.49 645.21 220.62C647.79 225.867 650.693 231.11 653.92 236.35C653.95 236.4 653.969 236.456 653.977 236.514C653.985 236.572 653.981 236.63 653.964 236.686C653.948 236.742 653.921 236.793 653.884 236.837C653.847 236.88 653.801 236.916 653.75 236.94L638.23 244.48C638.154 244.517 638.066 244.525 637.985 244.501C637.903 244.477 637.834 244.423 637.79 244.35C631.54 234.3 625.96 223.74 620.25 213C620.225 212.951 620.219 212.895 620.232 212.842C620.244 212.789 620.276 212.742 620.32 212.71C628.7 206.77 638.45 201.54 650.03 195.49C652.543 194.177 655.097 192.744 657.69 191.19C662.78 188.14 667.46 184.92 673.28 183.07C673.613 182.964 673.95 182.954 674.29 183.04C681.197 184.794 687.783 187.45 694.05 191.01C698.17 193.36 702.48 203.41 704.54 208.27C704.584 208.375 704.586 208.493 704.545 208.6C704.504 208.706 704.423 208.792 704.32 208.84L691.33 214.77C691.142 214.854 690.931 214.87 690.733 214.815C690.536 214.76 690.365 214.638 690.25 214.47C687.33 210.15 684.59 205.494 682.03 200.5C681.817 200.08 681.507 199.99 681.1 200.23Z" fill="#EDBE38"/>
<path d="M109.06 245L105.65 253.37C105.103 254.723 105.46 255.763 106.72 256.49L116.79 262.28C117.777 262.853 118.037 263.66 117.57 264.7C116.257 267.647 114.737 270.457 113.01 273.13C112.483 273.943 111.817 274.077 111.01 273.53C93.07 261.25 75.2333 249.27 57.5 237.59C55.7267 236.423 54.3067 234.97 53.24 233.23C53.0776 232.964 53.0041 232.652 53.03 232.34C53.5967 226.073 54.6267 219.843 56.12 213.65C56.1329 213.595 56.1566 213.543 56.1898 213.496C56.223 213.45 56.265 213.411 56.3133 213.382C56.3617 213.352 56.4154 213.332 56.4715 213.323C56.5276 213.314 56.5848 213.317 56.64 213.33C80.4467 218.817 103.07 223.767 124.51 228.18C126.783 228.647 129.033 229.323 131.26 230.21C131.533 230.323 131.613 230.517 131.5 230.79L124.7 246.51C124.447 247.103 124.003 247.34 123.37 247.22L109.76 244.62C109.42 244.56 109.187 244.687 109.06 245ZM98.43 242.33C98.4833 242.23 98.4566 242.16 98.35 242.12C92.0966 239.887 85.68 238.143 79.1 236.89C77.9933 236.677 77.8667 236.937 78.72 237.67C83.5733 241.817 88.9366 245.633 94.81 249.12C94.95 249.2 95.0533 249.17 95.12 249.03L98.43 242.33Z" fill="#EDBE38"/>
<path d="M670.21 263.82C669.56 263.47 668.79 263.31 668.07 263.54C661.837 265.6 655.63 267.86 649.45 270.32C649.077 270.467 648.807 270.357 648.64 269.99C646.413 265.037 644.537 259.65 643.01 253.83C642.95 253.603 643.027 253.45 643.24 253.37C660.933 246.59 679.647 239.727 699.38 232.78C699.727 232.66 700.06 232.683 700.38 232.85C707.81 236.78 715.81 240.3 722.09 245.94C722.317 246.147 722.433 246.403 722.44 246.71C722.59 251.1 723.16 256.87 721.14 260.89C718.76 265.603 715.897 269.223 712.55 271.75C709.463 274.077 705.153 276.317 699.62 278.47C696.993 279.49 694.613 279.287 692.48 277.86C686.987 274.193 681.48 270.55 675.96 266.93C674.15 265.75 672.12 264.86 670.21 263.82ZM691.31 262.76C698.35 260.9 704.59 257.31 707.86 250.98C707.883 250.933 707.893 250.881 707.891 250.829C707.888 250.777 707.872 250.727 707.845 250.684C707.818 250.64 707.78 250.605 707.735 250.582C707.69 250.558 707.64 250.547 707.59 250.55C700.35 250.79 692.19 254.18 685.2 257C684.787 257.167 684.74 257.4 685.06 257.7L690.09 262.45C690.437 262.783 690.843 262.887 691.31 262.76Z" fill="#EDBE38"/>
<path d="M320.78 234.94C320.807 234.794 320.89 234.664 321.011 234.578C321.133 234.492 321.283 234.457 321.43 234.48L322.79 234.71C323.082 234.76 323.364 234.856 323.618 234.994C323.872 235.132 324.095 235.309 324.272 235.515C324.45 235.72 324.579 235.95 324.652 236.191C324.726 236.432 324.742 236.68 324.7 236.92L324.62 237.35C324.536 237.833 324.223 238.256 323.749 238.526C323.274 238.796 322.678 238.891 322.09 238.79L320.73 238.56C320.582 238.533 320.45 238.449 320.364 238.325C320.277 238.201 320.244 238.049 320.27 237.9L320.78 234.94Z" fill="#EDBE38"/>
<path d="M363.6 247.77C366.907 248.217 370.117 248.797 373.23 249.51C381.28 251.34 387.61 256.34 393.49 261.97C395.07 263.477 396.383 265.554 397.43 268.2C397.57 268.54 397.473 268.787 397.14 268.94L394.84 269.98C394.737 270.029 394.621 270.048 394.505 270.035C394.389 270.023 394.277 269.98 394.18 269.91L385.13 263.42C384.843 263.22 384.56 263.227 384.28 263.44L378.03 268.35C377.717 268.597 377.42 268.584 377.14 268.31L375.19 266.42C374.917 266.16 374.617 266.124 374.29 266.31C371.16 268.06 367.24 266.93 363.91 265.89C363.53 265.77 363.147 265.774 362.76 265.9C357.79 267.62 353.45 271.63 349.52 275.08C349.322 275.254 349.181 275.483 349.113 275.737C349.045 275.992 349.055 276.261 349.14 276.51C349.987 278.924 351.547 280.927 353.82 282.52C356.58 284.467 359.453 286.454 362.44 288.48C363.18 288.987 363.12 289.367 362.26 289.62C355.91 291.52 349.11 289.93 346.41 283.33C344.257 278.09 342.767 273.36 341.94 269.14C341.587 267.354 341.527 265.357 341.76 263.15C341.817 262.611 341.694 262.069 341.41 261.607C341.126 261.146 340.697 260.792 340.19 260.6C333.4 258.06 328.17 255.39 324.12 249.1C324.057 249.001 324.02 248.889 324.012 248.772C324.003 248.655 324.023 248.539 324.071 248.432C324.118 248.325 324.192 248.231 324.284 248.16C324.376 248.088 324.485 248.04 324.6 248.02C331.713 246.847 338.517 245.5 345.01 243.98C348.87 243.08 352.92 241.6 356.37 239.5C364.28 234.68 378.58 238.85 386.89 242.31C388.997 243.19 390.633 244.484 391.8 246.19C391.849 246.264 391.875 246.349 391.876 246.437C391.877 246.525 391.854 246.611 391.807 246.686C391.761 246.761 391.694 246.82 391.615 246.858C391.536 246.896 391.447 246.911 391.36 246.9C387.313 246.314 383.197 245.644 379.01 244.89C373.83 243.95 367.05 243.32 363.34 247C362.913 247.427 363 247.684 363.6 247.77ZM343.92 260.7C343.918 260.708 343.918 260.717 343.921 260.725C343.923 260.733 343.927 260.741 343.933 260.747C343.939 260.753 343.947 260.757 343.955 260.76C343.963 260.762 343.972 260.762 343.98 260.76C346.007 260.347 347.957 259.804 349.83 259.13C356.26 256.82 362.5 257.76 368.76 260.18C369.167 260.34 369.39 260.204 369.43 259.77L369.7 256.74C369.74 256.374 369.613 256.077 369.32 255.85C366.267 253.504 363.33 252.257 360.51 252.11C356.157 251.877 351.487 252.654 346.5 254.44C346.393 254.48 346.317 254.55 346.27 254.65C345.317 256.704 344.533 258.72 343.92 260.7Z" fill="#EDBE38"/>
<path d="M318.63 243.58L321.55 240.66C321.585 240.626 321.627 240.599 321.673 240.581C321.719 240.564 321.768 240.556 321.817 240.559C321.866 240.562 321.914 240.575 321.957 240.598C322.001 240.62 322.039 240.652 322.07 240.69L323.73 242.8C323.78 242.866 323.806 242.946 323.802 243.029C323.798 243.111 323.766 243.189 323.71 243.25L321.67 245.49C321.617 245.549 321.545 245.587 321.467 245.6C321.389 245.613 321.309 245.599 321.24 245.56L318.71 244.13C318.663 244.104 318.623 244.067 318.592 244.023C318.562 243.979 318.542 243.928 318.534 243.875C318.526 243.822 318.531 243.767 318.548 243.716C318.564 243.665 318.592 243.619 318.63 243.58Z" fill="#EDBE38"/>
<path d="M466.42 275.27C468.47 277.9 470.91 280.21 470.24 283.93C469.72 286.79 469.34 289.577 469.1 292.29C468.59 298.23 464.21 301.68 458.69 304.75C458.27 304.984 458.083 304.86 458.13 304.38C458.63 299.26 455.75 292.41 453.99 287.62C451.65 281.21 456.24 275.71 457.94 269.93C459.25 265.49 463.54 263.2 467.61 261.64C468.35 261.36 468.82 261.604 469.02 262.37L470.87 269.36C471.077 270.147 470.83 270.744 470.13 271.15C468.743 271.964 467.513 272.99 466.44 274.23C466.147 274.57 466.14 274.917 466.42 275.27Z" fill="#EDBE38"/>
<path d="M65.62 305.71C66.5267 306.157 67.4633 306.47 68.43 306.65C77.2633 308.35 85.5467 310.063 93.28 311.79C96.2067 312.443 99.3467 313.28 102.7 314.3C102.844 314.344 102.965 314.44 103.041 314.57C103.117 314.7 103.142 314.853 103.11 315L100.41 326.78C100.386 326.878 100.325 326.963 100.241 327.017C100.157 327.071 100.056 327.09 99.96 327.07L35.68 313.07C35.1933 312.963 34.88 312.67 34.74 312.19L29.01 292.28C28.9839 292.194 28.9874 292.101 29.0199 292.016C29.0524 291.931 29.1122 291.859 29.19 291.81C30.65 290.863 32.3033 290.293 34.15 290.1C43.63 289.11 53.95 288.89 63.04 286.45C64.0133 286.19 64.0067 285.957 63.02 285.75C52.78 283.57 42.56 281.81 32.79 278.37C32.49 278.263 32.3867 278.06 32.48 277.76L35.68 267.03C35.7733 266.703 35.99 266.547 36.33 266.56C39.4967 266.713 42.4867 267.177 45.3 267.95C54.71 270.55 64.4 271.97 74.19 274.1C86.21 276.71 98.14 278.59 109.78 281.51C110.16 281.603 110.31 281.84 110.23 282.22C109.13 287.573 107.72 293.03 106 298.59C105.893 298.923 105.673 299.127 105.34 299.2C92.52 302.19 78.68 301.97 65.65 305.45C65.6225 305.457 65.5977 305.472 65.579 305.493C65.5603 305.515 65.5486 305.541 65.5453 305.57C65.5421 305.598 65.5475 305.626 65.5608 305.651C65.5741 305.676 65.5948 305.697 65.62 305.71Z" fill="#EDBE38"/>
<path d="M514.13 284.52C514.738 284.52 515.23 284.027 515.23 283.42C515.23 282.812 514.738 282.32 514.13 282.32C513.522 282.32 513.03 282.812 513.03 283.42C513.03 284.027 513.522 284.52 514.13 284.52Z" fill="#EDBE38"/>
<path d="M679.78 313.91C680.52 319.39 681.58 324.78 682.96 330.08C682.979 330.151 682.982 330.225 682.969 330.298C682.956 330.371 682.927 330.44 682.884 330.501C682.841 330.561 682.786 330.612 682.721 330.65C682.657 330.688 682.585 330.712 682.51 330.72C676.537 331.3 670.063 331.423 663.09 331.09C662.71 331.07 662.487 330.87 662.42 330.49L656.84 298.52C656.78 298.167 656.923 297.953 657.27 297.88C682.857 292.42 707.6 287.613 731.5 283.46C731.753 283.413 731.907 283.513 731.96 283.76C733.32 289.613 734.433 295.393 735.3 301.1C735.321 301.244 735.288 301.391 735.206 301.51C735.124 301.629 735 301.711 734.86 301.74C717.5 305.587 700.917 308.61 685.11 310.81C683.37 311.057 681.75 311.727 680.25 312.82C679.877 313.093 679.72 313.457 679.78 313.91Z" fill="#EDBE38"/>
<path d="M405.8 303.83C404.587 304.357 403.373 304.927 402.16 305.54C402.105 305.567 402.043 305.578 401.982 305.571C401.921 305.563 401.863 305.539 401.816 305.5C401.769 305.461 401.733 305.409 401.715 305.35C401.696 305.292 401.694 305.229 401.71 305.17C402.523 302.243 404.127 299.723 406.52 297.61C411.333 293.357 416.19 289.5 421.09 286.04C421.097 286.035 421.105 286.031 421.113 286.03C421.122 286.029 421.13 286.029 421.139 286.032C421.147 286.035 421.154 286.041 421.159 286.047C421.165 286.054 421.169 286.062 421.17 286.07C421.357 286.697 421.617 289.07 421.95 293.19C421.963 293.363 421.907 293.51 421.78 293.63C417.187 297.777 411.86 301.177 405.8 303.83Z" fill="#EDBE38"/>
<path d="M507.81 291.6C507.932 291.56 508.061 291.546 508.189 291.557C508.316 291.568 508.441 291.606 508.554 291.666C508.667 291.727 508.767 291.81 508.847 291.91C508.927 292.011 508.986 292.126 509.02 292.25C509.14 292.677 509.027 293.067 508.68 293.42C508.563 293.539 508.418 293.626 508.258 293.674C508.098 293.722 507.928 293.729 507.764 293.694C507.6 293.66 507.447 293.584 507.319 293.475C507.191 293.366 507.091 293.227 507.03 293.07C506.757 292.343 507.017 291.853 507.81 291.6Z" fill="#EDBE38"/>
<path d="M532.82 307.93L531.05 310.08C531.009 310.128 530.956 310.163 530.897 310.183C530.837 310.203 530.773 310.205 530.712 310.191C530.651 310.176 530.595 310.145 530.55 310.101C530.506 310.057 530.475 310.001 530.46 309.94L529.8 307.24C529.787 307.184 529.788 307.126 529.804 307.071C529.819 307.016 529.848 306.966 529.888 306.925C529.928 306.885 529.977 306.854 530.032 306.838C530.086 306.821 530.144 306.818 530.2 306.83L532.63 307.38C532.687 307.392 532.74 307.419 532.784 307.458C532.828 307.496 532.861 307.546 532.88 307.601C532.899 307.657 532.904 307.716 532.893 307.773C532.883 307.831 532.857 307.885 532.82 307.93Z" fill="#EDBE38"/>
<path d="M220.94 329.7C221.537 329.7 222.02 329.216 222.02 328.62C222.02 328.024 221.537 327.54 220.94 327.54C220.344 327.54 219.86 328.024 219.86 328.62C219.86 329.216 220.344 329.7 220.94 329.7Z" fill="#EDBE38"/>
<path d="M232.418 328.996L230.858 329.024C230.555 329.029 230.313 329.279 230.318 329.583L230.342 330.983C230.348 331.287 230.598 331.529 230.902 331.523L232.462 331.496C232.765 331.491 233.007 331.24 233.002 330.936L232.978 329.537C232.972 329.233 232.722 328.991 232.418 328.996Z" fill="#EDBE38"/>
<path d="M48.26 366.32C40.3333 365.02 31.9667 363.383 23.16 361.41C22.74 361.317 22.4867 361.06 22.4 360.64C21.34 355.413 21.0633 349.82 21.57 343.86C21.6033 343.527 21.77 343.287 22.07 343.14C28.31 340.07 35.48 341.18 42.18 340.41C48.52 339.67 54.6033 339.163 60.43 338.89C66.86 338.58 72.94 337.12 79.33 336.86C84.6767 336.64 90.34 336.187 96.32 335.5C96.78 335.447 97.0233 335.65 97.05 336.11C97.41 341.877 97.46 347.627 97.2 353.36C97.1867 353.753 96.9967 354.03 96.63 354.19C93.7433 355.443 90.82 356.067 87.86 356.06C79.9333 356.047 73.06 356.74 67.24 358.14C66.6533 358.28 66.6433 358.45 67.21 358.65C69.4233 359.457 71.8233 360.09 74.41 360.55C82.29 361.96 89.81 362.95 96.87 365.73C97.2233 365.863 97.4 366.12 97.4 366.5L97.39 372.69C97.39 373.043 97.2333 373.3 96.92 373.46C95 374.447 93.53 375.05 92.51 375.27C83.59 377.243 74.7633 379.4 66.03 381.74C64.13 382.253 64.1567 382.63 66.11 382.87C73.1433 383.743 80.28 384.45 87.52 384.99C90.59 385.21 93.81 385.88 96.82 386.53C97.2 386.61 97.39 386.843 97.39 387.23L97.38 397.49C97.38 397.937 97.1567 398.147 96.71 398.12C90.36 397.7 84.14 396.81 77.71 396.67C71.01 396.517 64.4067 396.13 57.9 395.51C46.59 394.42 33.93 394.32 22.11 392.58C21.7033 392.52 21.5 392.287 21.5 391.88L21.36 374.57C21.3533 373.223 22.0167 372.443 23.35 372.23C32.45 370.75 40.7633 369.093 48.29 367.26C49.81 366.887 49.8 366.573 48.26 366.32Z" fill="#EDBE38"/>
<path d="M683.16 357.94L682.14 375.71C682.133 375.864 682.069 376.01 681.962 376.119C681.855 376.228 681.711 376.292 681.56 376.3C676 376.573 670.887 376.08 666.22 374.82C665.993 374.757 665.782 374.647 665.6 374.497C665.417 374.348 665.267 374.161 665.16 373.95C662.77 369.31 663.25 362.57 664 357.48C664.89 351.47 664.81 345.47 664.55 339.34C664.542 339.202 664.587 339.067 664.677 338.963C664.766 338.858 664.893 338.792 665.03 338.78C676.31 337.76 687.79 339.15 699.41 338.88C707.797 338.686 716.427 338.763 725.3 339.11C725.64 339.123 725.92 339.263 726.14 339.53C730.467 344.77 734.7 349.586 738.84 353.98C739.867 355.08 740.413 356.35 740.48 357.79C740.753 363.483 740.67 369.433 740.23 375.64C740.203 376.013 740 376.203 739.62 376.21C734.71 376.32 729.8 376.58 725.21 374.5C724.87 374.346 724.697 374.083 724.69 373.71L724.58 359.07C724.573 358.65 724.363 358.436 723.95 358.43C719.37 358.316 714.987 357.883 710.8 357.13C710.44 357.063 710.243 357.213 710.21 357.58L708.76 374.73C708.733 375.036 708.567 375.203 708.26 375.23C704.42 375.55 700.487 374.893 696.46 373.26C696.316 373.198 696.195 373.092 696.116 372.957C696.037 372.822 696.003 372.665 696.02 372.51L697.6 359.81C697.614 359.676 697.581 359.542 697.505 359.431C697.43 359.321 697.318 359.242 697.19 359.21C692.963 358.103 688.553 357.436 683.96 357.21C683.453 357.19 683.187 357.433 683.16 357.94Z" fill="#EDBE38"/>
<path d="M208.15 349.55L210.15 351.28C210.226 351.345 210.288 351.424 210.333 351.514C210.377 351.603 210.404 351.7 210.41 351.8C210.417 351.9 210.403 352 210.371 352.094C210.338 352.188 210.287 352.275 210.22 352.35L208.48 354.28C208.413 354.355 208.331 354.416 208.24 354.459C208.148 354.502 208.049 354.526 207.949 354.53C207.848 354.533 207.747 354.517 207.653 354.481C207.559 354.445 207.473 354.39 207.4 354.32L205.77 352.72C205.644 352.599 205.564 352.438 205.544 352.265C205.524 352.091 205.565 351.916 205.66 351.77L207.04 349.7C207.099 349.612 207.176 349.538 207.266 349.482C207.356 349.426 207.457 349.39 207.561 349.376C207.666 349.362 207.773 349.37 207.874 349.4C207.976 349.43 208.07 349.481 208.15 349.55Z" fill="#EDBE38"/>
<path d="M199.83 356.45C200.631 356.45 201.28 355.801 201.28 355C201.28 354.199 200.631 353.55 199.83 353.55C199.029 353.55 198.38 354.199 198.38 355C198.38 355.801 199.029 356.45 199.83 356.45Z" fill="#EDBE38"/>
<path d="M209.053 359.961L206.853 359.999C206.649 360.003 206.486 360.171 206.489 360.376L206.531 362.755C206.534 362.96 206.703 363.122 206.907 363.119L209.107 363.081C209.311 363.077 209.474 362.908 209.47 362.704L209.429 360.324C209.425 360.12 209.257 359.957 209.053 359.961Z" fill="#EDBE38"/>
<path d="M692.61 409.11C683.75 407.35 674.75 405.943 665.61 404.89C665.317 404.856 665.093 404.713 664.94 404.46C664.033 402.986 663.663 401.476 663.83 399.93C664.303 395.55 665.26 391.276 666.7 387.11C666.867 386.63 667.203 386.423 667.71 386.49C677.637 387.803 687.413 389.376 697.04 391.21C700.387 391.85 703.79 392.38 707.25 392.8C713.3 393.55 719.77 394.24 725.51 396.43C726.674 396.872 727.67 397.662 728.36 398.69L738.5 413.79C738.585 413.915 738.642 414.057 738.668 414.205C738.694 414.354 738.688 414.505 738.65 414.65C736.637 422.363 732.59 428.823 726.51 434.03C722.08 437.81 709.23 436.34 703.19 435.22C702.777 435.14 702.473 434.916 702.28 434.55L698 426.6C697.813 426.26 697.563 426.203 697.25 426.43C691.88 430.33 686.49 433.45 679.47 432.63C673.557 431.943 667.457 431.206 661.17 430.42C661.006 430.399 660.852 430.332 660.726 430.225C660.6 430.119 660.507 429.978 660.46 429.82C658.66 424.06 660.94 418.03 661.96 412.27C662.02 411.95 662.213 411.753 662.54 411.68C665.567 411.006 668.14 411.08 670.26 411.9C675.033 413.733 680.127 414.236 685.54 413.41C687.593 413.09 689.997 411.856 692.75 409.71C693.137 409.403 693.09 409.203 692.61 409.11ZM706.55 418.13C706.623 418.276 706.74 418.356 706.9 418.37C711.347 418.656 715.687 418.74 719.92 418.62C720.333 418.606 720.683 418.453 720.97 418.16L724.43 414.7C724.697 414.426 724.65 414.233 724.29 414.12C717.183 411.846 710.193 410.82 703.32 411.04C703.14 411.046 703.09 411.13 703.17 411.29L706.55 418.13Z" fill="#EDBE38"/>
<path d="M539.924 394.051L538.645 394.029C538.319 394.023 538.05 394.283 538.044 394.608L538.016 396.248C538.01 396.574 538.27 396.843 538.595 396.848L539.875 396.871C540.201 396.876 540.47 396.617 540.475 396.291L540.504 394.651C540.51 394.326 540.25 394.057 539.924 394.051Z" fill="#EDBE38"/>
<path d="M199.41 401.49C200.211 401.49 200.86 400.841 200.86 400.04C200.86 399.239 200.211 398.59 199.41 398.59C198.609 398.59 197.96 399.239 197.96 400.04C197.96 400.841 198.609 401.49 199.41 401.49Z" fill="#EDBE38"/>
<path d="M213.13 410.62C213.17 410.616 213.211 410.62 213.249 410.632C213.288 410.644 213.324 410.664 213.355 410.69C213.385 410.716 213.411 410.748 213.429 410.784C213.447 410.82 213.457 410.86 213.46 410.9L213.56 412.12C213.587 412.431 213.569 412.743 213.508 413.038C213.447 413.333 213.344 413.605 213.204 413.838C213.065 414.071 212.892 414.261 212.696 414.397C212.499 414.533 212.283 414.612 212.06 414.63L211.66 414.66C211.211 414.697 210.76 414.484 210.405 414.068C210.051 413.651 209.822 413.066 209.77 412.44L209.67 411.21C209.664 411.132 209.689 411.055 209.74 410.995C209.79 410.936 209.862 410.898 209.94 410.89L213.13 410.62Z" fill="#EDBE38"/>
<path d="M58.4199 428.22C54.3866 428.367 50.4266 428.97 46.5399 430.03C39.8999 431.86 33.0699 434.07 26.5599 434.26C26.1533 434.273 25.9033 434.083 25.8099 433.69L23.2099 422.89C23.1233 422.53 23.2466 422.273 23.5799 422.12C25.2933 421.327 27.1033 420.7 29.0099 420.24C37.9699 418.067 47.7166 415.573 58.2499 412.76C58.6299 412.653 59.0066 412.67 59.3799 412.81C61.3466 413.53 63.1966 414.493 64.9299 415.7C68.0233 417.853 71.0966 419.657 74.1499 421.11C74.6406 421.343 75.1995 421.396 75.7299 421.26L98.2099 415.41C98.5633 415.317 98.8099 415.443 98.9499 415.79C101.07 421.117 102.517 426.537 103.29 432.05C103.307 432.18 103.28 432.312 103.212 432.423C103.145 432.534 103.042 432.618 102.92 432.66C99.9999 433.727 97.1399 434.61 94.3399 435.31C87.7466 436.97 80.8333 438.717 73.5999 440.55C73.1933 440.65 72.9499 440.91 72.8699 441.33C71.2999 450.29 62.4899 457.77 54.5099 459.94C47.6899 461.79 41.0199 463.98 34.1399 464.43C33.7799 464.45 33.5533 464.283 33.4599 463.93L29.2899 447.7C29.2099 447.373 29.3266 447.14 29.6399 447C30.9733 446.413 32.4033 445.967 33.9299 445.66C45.3499 443.38 54.2399 440.75 58.8699 428.86C59.0433 428.42 58.8933 428.207 58.4199 428.22Z" fill="#EDBE38"/>
<path d="M245.17 424.06L244.18 427.02C244.159 427.082 244.118 427.136 244.064 427.174C244.01 427.212 243.946 427.231 243.88 427.23L241.12 427.11C241.076 427.109 241.032 427.099 240.992 427.079C240.952 427.06 240.916 427.032 240.888 426.998C240.859 426.964 240.839 426.924 240.827 426.881C240.815 426.839 240.813 426.794 240.82 426.75L241.38 423.68C241.395 423.605 241.436 423.538 241.497 423.492C241.558 423.445 241.634 423.423 241.71 423.43L244.9 423.65C244.947 423.653 244.993 423.668 245.034 423.692C245.075 423.716 245.11 423.749 245.136 423.788C245.162 423.828 245.178 423.873 245.184 423.92C245.19 423.967 245.185 424.015 245.17 424.06Z" fill="#EDBE38"/>
<path d="M516.73 427.7L516.76 425.13C516.761 425.074 516.774 425.018 516.798 424.968C516.821 424.917 516.856 424.871 516.898 424.835C516.94 424.798 516.99 424.77 517.044 424.754C517.098 424.738 517.154 424.733 517.21 424.74L519.36 425.01C519.465 425.025 519.559 425.081 519.623 425.165C519.687 425.249 519.714 425.355 519.7 425.46L519.42 427.4C519.407 427.481 519.369 427.556 519.312 427.616C519.255 427.675 519.181 427.715 519.1 427.73L517.21 428.1C517.151 428.112 517.091 428.111 517.032 428.096C516.974 428.081 516.92 428.054 516.874 428.015C516.828 427.977 516.791 427.929 516.766 427.874C516.741 427.819 516.729 427.76 516.73 427.7Z" fill="#EDBE38"/>
<path d="M275.65 427.89C276.307 427.89 276.84 427.357 276.84 426.7C276.84 426.043 276.307 425.51 275.65 425.51C274.993 425.51 274.46 426.043 274.46 426.7C274.46 427.357 274.993 427.89 275.65 427.89Z" fill="#EDBE38"/>
<path d="M527.589 428.44L525.87 428.401C525.649 428.396 525.466 428.571 525.461 428.791L525.42 430.571C525.415 430.792 525.59 430.975 525.811 430.98L527.531 431.019C527.752 431.024 527.935 430.849 527.94 430.628L527.98 428.849C527.985 428.628 527.81 428.445 527.589 428.44Z" fill="#EDBE38"/>
<path d="M469 434.44L466.56 433.44C465.993 433.214 465.937 432.894 466.39 432.48L467.71 431.28C468.157 430.874 468.46 430.96 468.62 431.54L469.34 434.14C469.433 434.474 469.32 434.574 469 434.44Z" fill="#EDBE38"/>
<path d="M662.29 465.07C664.117 461.844 665.347 458.664 665.98 455.53C666.093 454.984 665.913 454.567 665.44 454.28C661.867 452.107 658.137 450.09 654.25 448.23C653.857 448.037 653.73 447.737 653.87 447.33L657.91 435.8C657.935 435.733 657.974 435.671 658.026 435.621C658.077 435.571 658.139 435.533 658.207 435.51C658.276 435.487 658.348 435.479 658.42 435.488C658.491 435.497 658.559 435.521 658.62 435.56C678.13 447.78 698.84 461.01 719.8 473.29C720.113 473.47 720.263 473.744 720.25 474.11C719.983 480.85 718.953 487.377 717.16 493.69C717.125 493.814 717.045 493.92 716.936 493.989C716.827 494.057 716.697 494.082 716.57 494.06C695.42 490.58 674.91 487.01 652.25 483.26C648.317 482.607 644.483 481.644 640.75 480.37C640.53 480.297 640.46 480.15 640.54 479.93C642.58 474.304 644.957 468.797 647.67 463.41C647.773 463.209 647.945 463.051 648.153 462.965C648.362 462.879 648.595 462.87 648.81 462.94C652.56 464.17 657.73 465.76 661.58 465.51C661.893 465.49 662.13 465.344 662.29 465.07ZM677.32 461.41C676.893 461.217 676.59 461.334 676.41 461.76L674.12 467.15C674.089 467.225 674.073 467.305 674.075 467.385C674.076 467.466 674.094 467.546 674.128 467.62C674.161 467.694 674.21 467.761 674.271 467.816C674.331 467.871 674.403 467.913 674.48 467.94C679.98 469.914 686.067 471.044 692.74 471.33C693.107 471.344 693.147 471.234 692.86 471C688.213 467.207 683.033 464.01 677.32 461.41Z" fill="#EDBE38"/>
<path d="M481.158 437.456L478.858 437.444C478.659 437.443 478.497 437.603 478.496 437.802L478.485 439.922C478.484 440.121 478.644 440.283 478.843 440.284L481.143 440.296C481.341 440.297 481.503 440.136 481.505 439.938L481.516 437.818C481.517 437.619 481.356 437.457 481.158 437.456Z" fill="#EDBE38"/>
<path d="M279.14 438.26L280.18 440.26C280.247 440.39 280.271 440.538 280.247 440.682C280.224 440.826 280.155 440.958 280.05 441.06L278.2 442.88C278.084 442.997 277.944 443.088 277.789 443.145C277.635 443.203 277.47 443.227 277.305 443.214C277.141 443.202 276.981 443.154 276.837 443.074C276.692 442.994 276.567 442.883 276.47 442.75C275.723 441.73 275.437 440.53 275.61 439.15C275.657 438.797 275.85 438.573 276.19 438.48L278.3 437.89C278.68 437.783 278.96 437.907 279.14 438.26Z" fill="#EDBE38"/>
<path d="M502.39 443.16C502.391 443.227 502.379 443.294 502.355 443.356C502.331 443.418 502.294 443.475 502.248 443.524C502.201 443.572 502.146 443.611 502.084 443.637C502.023 443.664 501.957 443.679 501.89 443.68L500.68 443.7C500.254 443.707 499.832 443.668 499.437 443.587C499.042 443.505 498.682 443.382 498.379 443.224C498.075 443.066 497.833 442.877 497.667 442.667C497.501 442.457 497.413 442.23 497.41 442V441.8C497.403 441.336 497.737 440.886 498.339 440.549C498.941 440.211 499.761 440.014 500.62 440L501.83 439.98C501.897 439.979 501.964 439.991 502.026 440.015C502.088 440.039 502.145 440.076 502.194 440.122C502.242 440.169 502.281 440.224 502.307 440.286C502.334 440.347 502.349 440.413 502.35 440.48L502.39 443.16Z" fill="#EDBE38"/>
<path d="M243.853 441.354L241.4 441.534C241.191 441.549 241.033 441.731 241.049 441.941L241.2 443.995C241.215 444.204 241.397 444.361 241.607 444.346L244.06 444.166C244.269 444.151 244.426 443.968 244.411 443.759L244.26 441.705C244.245 441.495 244.063 441.338 243.853 441.354Z" fill="#EDBE38"/>
<path d="M426.3 442.34L426.77 443.8C426.795 443.88 426.801 443.966 426.787 444.049C426.773 444.132 426.74 444.21 426.691 444.278C426.641 444.346 426.577 444.402 426.502 444.44C426.427 444.479 426.344 444.499 426.26 444.5L424.08 444.52C424.002 444.521 423.925 444.505 423.853 444.473C423.782 444.441 423.718 444.394 423.667 444.335C423.616 444.276 423.578 444.206 423.556 444.131C423.534 444.056 423.529 443.977 423.54 443.9L423.87 441.53C423.882 441.44 423.917 441.354 423.971 441.281C424.026 441.208 424.098 441.149 424.18 441.112C424.263 441.074 424.354 441.057 424.445 441.064C424.536 441.071 424.624 441.1 424.7 441.15L426.08 442.06C426.183 442.126 426.261 442.225 426.3 442.34Z" fill="#EDBE38"/>
<path d="M489.295 444.05L487.577 443.972C487.273 443.958 487.016 444.193 487.002 444.497L486.941 445.855C486.927 446.159 487.162 446.416 487.465 446.43L489.183 446.508C489.487 446.521 489.744 446.287 489.758 445.983L489.819 444.625C489.833 444.321 489.598 444.064 489.295 444.05Z" fill="#EDBE38"/>
<path d="M391.81 445.59L393.73 446.72C393.812 446.769 393.884 446.835 393.94 446.912C393.997 446.989 394.038 447.077 394.06 447.17L394.55 449.17C394.579 449.288 394.578 449.411 394.547 449.529C394.516 449.646 394.456 449.753 394.372 449.841C394.288 449.929 394.184 449.994 394.068 450.031C393.952 450.067 393.829 450.074 393.71 450.05L391.31 449.59C391.144 449.56 390.994 449.472 390.886 449.342C390.778 449.212 390.72 449.049 390.72 448.88L390.73 446.21C390.731 446.084 390.764 445.96 390.828 445.851C390.891 445.742 390.982 445.652 391.091 445.589C391.201 445.526 391.325 445.493 391.451 445.494C391.577 445.494 391.701 445.527 391.81 445.59Z" fill="#EDBE38"/>
<path d="M447.741 446.028L445.441 446.012C445.214 446.011 445.029 446.193 445.028 446.419L445.012 448.639C445.011 448.866 445.193 449.05 445.42 449.052L447.719 449.068C447.946 449.07 448.131 448.887 448.132 448.661L448.148 446.441C448.149 446.215 447.967 446.03 447.741 446.028Z" fill="#EDBE38"/>
<path d="M292.14 451.02C292.149 451.077 292.135 451.135 292.101 451.182C292.067 451.228 292.017 451.26 291.96 451.27L290.45 451.52C289.832 451.622 289.208 451.536 288.715 451.279C288.222 451.022 287.9 450.616 287.82 450.15L287.79 449.97C287.75 449.737 287.772 449.497 287.854 449.262C287.936 449.028 288.076 448.803 288.266 448.603C288.457 448.402 288.694 448.229 288.964 448.093C289.234 447.956 289.532 447.86 289.84 447.81L291.35 447.56C291.379 447.556 291.408 447.557 291.437 447.565C291.465 447.572 291.492 447.585 291.515 447.602C291.538 447.62 291.558 447.642 291.572 447.668C291.587 447.693 291.596 447.721 291.6 447.75L292.14 451.02Z" fill="#EDBE38"/>
<path d="M450.63 454.52C450.531 454.544 450.428 454.548 450.327 454.531C450.227 454.515 450.13 454.478 450.044 454.424C449.957 454.371 449.882 454.3 449.823 454.217C449.764 454.134 449.722 454.04 449.7 453.94L449.61 453.53C449.428 452.743 449.418 451.949 449.583 451.325C449.748 450.7 450.074 450.296 450.49 450.2L450.93 450.09C451.136 450.042 451.358 450.072 451.583 450.177C451.808 450.282 452.032 450.461 452.242 450.704C452.452 450.946 452.644 451.247 452.807 451.59C452.969 451.932 453.1 452.31 453.19 452.7L453.29 453.11C453.335 453.309 453.299 453.518 453.19 453.69C453.082 453.862 452.909 453.985 452.71 454.03L450.63 454.52Z" fill="#EDBE38"/>
<path d="M499.602 450.514L497.382 450.526C497.167 450.527 496.993 450.702 496.994 450.918L497.006 453.078C497.007 453.293 497.182 453.467 497.398 453.466L499.618 453.454C499.833 453.453 500.007 453.277 500.005 453.062L499.994 450.902C499.993 450.687 499.818 450.513 499.602 450.514Z" fill="#EDBE38"/>
<path d="M276.96 451.68L280.83 452.01C280.945 452.02 281.052 452.073 281.13 452.158C281.207 452.243 281.25 452.355 281.25 452.47L281.27 455.15C281.269 455.214 281.255 455.277 281.228 455.335C281.201 455.393 281.162 455.445 281.114 455.488C281.066 455.53 281.01 455.562 280.949 455.581C280.888 455.601 280.824 455.607 280.76 455.6L277.84 455.29C277.753 455.282 277.671 455.25 277.602 455.197C277.532 455.144 277.48 455.072 277.45 454.99L276.49 452.29C276.465 452.218 276.458 452.141 276.47 452.065C276.482 451.99 276.513 451.918 276.56 451.858C276.607 451.797 276.668 451.749 276.737 451.718C276.807 451.687 276.884 451.674 276.96 451.68Z" fill="#EDBE38"/>
<path d="M62.73 491.31C70.0033 488.757 76.6467 486.03 82.66 483.13C88.84 480.16 94.05 475.74 97.62 469.27C97.84 468.87 97.7267 468.723 97.28 468.83C96.0867 469.103 94.9567 469.447 93.89 469.86C88.21 472.053 82.62 474.514 77.12 477.24C76.9633 477.321 76.7809 477.337 76.6111 477.285C76.4413 477.233 76.2975 477.116 76.21 476.96C73.37 471.88 71.1667 466.477 69.6 460.75C69.4933 460.35 69.6233 460.06 69.99 459.88C76.19 456.774 81.9933 454.274 87.4 452.38C89.0267 451.807 90.7833 451.82 92.67 452.42C100.763 455 108.533 457.684 115.98 460.47C116.088 460.512 116.182 460.584 116.251 460.677C116.32 460.771 116.361 460.883 116.37 461C116.803 466.694 116.477 472.027 115.39 477C114.06 483.12 107.37 489.6 102.61 492.89C100.23 494.53 96.53 496.447 91.51 498.64C85.7767 501.14 79.81 503.627 73.61 506.1C72.13 506.694 70.55 506.577 68.87 505.75C61.3767 502.084 53.81 498.274 46.17 494.32C45.83 494.147 45.6967 493.87 45.77 493.49C47.0167 486.717 49.3067 480.25 52.64 474.09C52.8133 473.77 53.0767 473.63 53.43 473.67C59.1167 474.33 64.74 475.29 70.3 476.55C70.3882 476.569 70.4702 476.61 70.5386 476.669C70.607 476.728 70.6599 476.803 70.6925 476.888C70.7251 476.973 70.7364 477.065 70.7255 477.156C70.7146 477.247 70.6818 477.334 70.63 477.41C67.6167 481.764 64.85 486.24 62.33 490.84C62.05 491.347 62.1833 491.504 62.73 491.31Z" fill="#EDBE38"/>
<path d="M382.6 455.1L383.8 452.78C383.86 452.666 383.957 452.577 384.076 452.527C384.195 452.478 384.327 452.472 384.45 452.51L386.51 453.15C386.585 453.174 386.654 453.213 386.712 453.266C386.77 453.319 386.816 453.383 386.848 453.455C386.879 453.527 386.894 453.605 386.893 453.683C386.892 453.762 386.874 453.839 386.84 453.91L385.41 456.99C385.375 457.064 385.323 457.129 385.26 457.18C385.196 457.232 385.122 457.268 385.043 457.288C384.963 457.307 384.88 457.308 384.8 457.291C384.72 457.274 384.645 457.24 384.58 457.19L382.75 455.79C382.648 455.711 382.577 455.598 382.55 455.472C382.522 455.346 382.54 455.214 382.6 455.1Z" fill="#EDBE38"/>
<path d="M367.65 460.63L365.82 455.25C365.798 455.191 365.794 455.126 365.809 455.064C365.823 455.002 365.854 454.946 365.9 454.902C365.945 454.857 366.002 454.827 366.064 454.814C366.126 454.802 366.191 454.807 366.25 454.83L371.61 456.71C371.661 456.729 371.707 456.761 371.743 456.803C371.779 456.844 371.805 456.894 371.816 456.948C371.828 457.001 371.827 457.057 371.812 457.11C371.797 457.163 371.769 457.211 371.73 457.25L368.19 460.76C368.15 460.798 368.101 460.826 368.048 460.84C367.994 460.855 367.938 460.856 367.885 460.843C367.831 460.83 367.781 460.803 367.74 460.766C367.699 460.729 367.668 460.682 367.65 460.63Z" fill="#EDBE38"/>
<path d="M308.14 462.24L305.73 459.54C305.686 459.492 305.652 459.435 305.63 459.374C305.608 459.312 305.599 459.247 305.603 459.182C305.606 459.116 305.623 459.053 305.652 458.994C305.681 458.935 305.721 458.883 305.77 458.84L308.27 456.68C308.321 456.635 308.381 456.601 308.446 456.581C308.511 456.56 308.58 456.554 308.648 456.561C308.715 456.569 308.781 456.59 308.84 456.624C308.899 456.659 308.95 456.705 308.99 456.76L310.84 459.39C310.902 459.479 310.933 459.587 310.928 459.695C310.922 459.804 310.881 459.908 310.81 459.99L308.88 462.24C308.834 462.293 308.777 462.336 308.713 462.365C308.649 462.394 308.58 462.409 308.51 462.409C308.44 462.409 308.371 462.394 308.307 462.365C308.243 462.336 308.186 462.293 308.14 462.24Z" fill="#EDBE38"/>
<path d="M329.13 460.52L326.91 459.06C326.858 459.027 326.815 458.98 326.788 458.924C326.76 458.869 326.748 458.807 326.754 458.745C326.759 458.683 326.781 458.624 326.817 458.574C326.853 458.524 326.903 458.484 326.96 458.46L329.41 457.41C329.464 457.388 329.522 457.379 329.58 457.386C329.638 457.393 329.693 457.414 329.74 457.448C329.787 457.482 329.825 457.528 329.85 457.581C329.874 457.634 329.884 457.692 329.88 457.75L329.66 460.27C329.655 460.329 329.634 460.385 329.6 460.434C329.566 460.482 329.52 460.521 329.466 460.547C329.413 460.572 329.354 460.583 329.295 460.578C329.236 460.573 329.179 460.553 329.13 460.52Z" fill="#EDBE38"/>
<path d="M458.15 458.48L455.86 461.74C455.833 461.778 455.797 461.809 455.756 461.83C455.715 461.852 455.669 461.864 455.623 461.865C455.576 461.866 455.53 461.856 455.488 461.836C455.446 461.816 455.409 461.787 455.38 461.75L452.59 458.12C452.555 458.074 452.535 458.019 452.53 457.962C452.526 457.904 452.538 457.847 452.566 457.796C452.593 457.746 452.635 457.704 452.685 457.676C452.735 457.649 452.793 457.636 452.85 457.64L457.92 458.01C457.973 458.013 458.025 458.03 458.069 458.059C458.114 458.089 458.149 458.13 458.173 458.178C458.196 458.225 458.206 458.279 458.202 458.332C458.198 458.385 458.18 458.436 458.15 458.48Z" fill="#EDBE38"/>
<path d="M375.74 460.1L378.99 462.91C379.054 462.965 379.095 463.041 379.106 463.124C379.117 463.207 379.097 463.291 379.05 463.36L377.07 466.32C377.032 466.374 376.98 466.416 376.918 466.44C376.857 466.465 376.79 466.471 376.726 466.459C376.661 466.446 376.602 466.415 376.555 466.369C376.507 466.323 376.474 466.264 376.46 466.2L375.18 460.43C375.163 460.359 375.169 460.285 375.198 460.218C375.226 460.151 375.275 460.095 375.338 460.058C375.401 460.021 375.474 460.006 375.546 460.013C375.618 460.021 375.686 460.051 375.74 460.1Z" fill="#EDBE38"/>
<path d="M333.54 463.23L336.58 465.2C336.647 465.245 336.7 465.309 336.73 465.384C336.76 465.459 336.767 465.541 336.75 465.62L336.31 467.68C336.297 467.745 336.268 467.806 336.226 467.857C336.183 467.908 336.129 467.947 336.067 467.972C336.006 467.997 335.939 468.006 335.873 467.999C335.807 467.991 335.744 467.968 335.69 467.93L332.55 465.78C332.48 465.733 332.428 465.665 332.399 465.586C332.37 465.507 332.367 465.421 332.39 465.34L332.94 463.46C332.957 463.4 332.987 463.344 333.029 463.298C333.071 463.252 333.124 463.216 333.182 463.194C333.24 463.172 333.303 463.163 333.365 463.169C333.427 463.176 333.487 463.196 333.54 463.23Z" fill="#EDBE38"/>
<path d="M348.451 467.068C349.554 467.426 350.681 467.001 350.967 466.119C351.254 465.236 350.592 464.23 349.489 463.872C348.386 463.514 347.26 463.938 346.973 464.821C346.686 465.703 347.348 466.709 348.451 467.068Z" fill="#EDBE38"/>
<path d="M308.45 468.17L310.58 467.35C310.705 467.3 310.844 467.302 310.967 467.354C311.091 467.407 311.189 467.506 311.24 467.63L312.25 470.12C312.276 470.187 312.288 470.258 312.285 470.33C312.282 470.402 312.264 470.472 312.232 470.536C312.2 470.6 312.155 470.657 312.099 470.702C312.044 470.748 311.979 470.781 311.91 470.8L309.08 471.59C309.009 471.609 308.935 471.613 308.863 471.601C308.791 471.589 308.722 471.562 308.662 471.521C308.601 471.48 308.55 471.427 308.511 471.365C308.473 471.302 308.449 471.233 308.44 471.16L308.13 468.71C308.115 468.597 308.139 468.483 308.197 468.385C308.255 468.287 308.344 468.211 308.45 468.17Z" fill="#EDBE38"/>
<path d="M340.64 474.26L340.5 472.17C340.493 472.041 340.517 471.913 340.571 471.796C340.626 471.679 340.708 471.578 340.811 471.501C340.914 471.423 341.034 471.373 341.161 471.354C341.289 471.334 341.419 471.347 341.54 471.39L343.54 472.12C343.714 472.184 343.859 472.308 343.95 472.47L344.85 474.08C344.921 474.204 344.956 474.346 344.951 474.489C344.946 474.633 344.902 474.772 344.824 474.891C344.745 475.011 344.635 475.107 344.506 475.169C344.376 475.23 344.233 475.255 344.09 475.24L341.35 474.98C341.166 474.964 340.993 474.882 340.863 474.75C340.733 474.619 340.654 474.445 340.64 474.26Z" fill="#EDBE38"/>
<path d="M616.42 593.72C616.52 593.88 616.63 593.887 616.75 593.74L618.23 592.01C618.35 591.87 618.37 591.717 618.29 591.55C615.663 585.523 614.52 579.417 614.86 573.23C614.879 572.897 614.994 572.575 615.19 572.3C616.177 570.947 617.413 569.68 618.9 568.5C619.193 568.26 619.503 568.237 619.83 568.43L623.39 570.51C623.703 570.697 623.88 570.974 623.92 571.34C624.6 577.37 625.33 582.21 622.89 588.07C621.4 591.64 622.33 594.26 625.45 596.26C625.757 596.454 626.077 596.49 626.41 596.37C633.577 593.83 639.803 592.73 645.09 593.07C648.89 593.32 649.63 598.47 649.23 601.54C649.197 601.8 649.063 601.99 648.83 602.11C646.27 603.437 643.397 603.867 640.21 603.4C635.17 602.654 630.497 601.38 626.19 599.58C625.837 599.427 625.547 599.504 625.32 599.81L622.39 603.64C622.143 603.96 622.093 604.307 622.24 604.68C624.873 611.473 625.85 618.527 625.17 625.84C625.137 626.254 624.913 626.484 624.5 626.53L617.58 627.34C617.423 627.358 617.264 627.325 617.126 627.248C616.988 627.171 616.878 627.053 616.81 626.91C613.5 619.9 615.62 611.83 618.67 604.96C618.837 604.594 618.753 604.294 618.42 604.06L614.23 601.05C613.937 600.837 613.62 600.79 613.28 600.91C607.96 602.857 602.057 603.947 595.57 604.18C592.41 604.293 590.847 602.767 590.88 599.6C590.88 599.54 590.88 599.477 590.88 599.41C590.913 596.25 592.507 594.577 595.66 594.39C603.047 593.97 609.3 594.667 614.42 596.48C614.547 596.527 614.653 596.497 614.74 596.39L616.45 594.22C616.473 594.191 616.488 594.157 616.494 594.121C616.5 594.085 616.497 594.047 616.485 594.012C616.473 593.978 616.453 593.946 616.426 593.921C616.399 593.897 616.366 593.879 616.33 593.87C613.737 593.097 611.513 591.974 609.66 590.5C604.453 586.354 599.51 582.08 594.83 577.68C594.581 577.443 594.43 577.121 594.41 576.779C594.39 576.437 594.5 576.101 594.72 575.84L596.51 573.69C596.91 573.217 597.343 573.18 597.81 573.58C604.74 579.53 611.62 586.11 616.42 593.72Z" fill="#EDBE38"/>
<path d="M644.41 575.74C644.492 575.819 644.557 575.913 644.602 576.017C644.648 576.121 644.672 576.233 644.674 576.346C644.676 576.46 644.655 576.572 644.613 576.678C644.571 576.783 644.509 576.879 644.43 576.96L637.44 584.12C634.494 587.14 631.48 589.854 629.063 591.666C626.646 593.477 625.022 594.238 624.55 593.78L624.47 593.69C624.233 593.466 624.287 592.949 624.628 592.168C624.969 591.387 625.59 590.357 626.457 589.139C627.323 587.92 628.418 586.536 629.678 585.066C630.938 583.595 632.339 582.068 633.8 580.57L640.79 573.41C640.869 573.329 640.963 573.263 641.067 573.218C641.171 573.173 641.282 573.148 641.396 573.147C641.509 573.145 641.622 573.165 641.727 573.207C641.833 573.249 641.929 573.311 642.01 573.39L644.41 575.74Z" fill="#EDBE38"/>
<path d="M136.07 605.29C133.37 606.64 130.62 607.92 127.52 608.05C124.806 608.17 122.276 608.423 119.93 608.81C118.53 609.043 117.12 608.713 115.7 607.82C115.411 607.64 115.203 607.353 115.12 607.02L113.92 602.43C113.826 602.063 113.91 601.746 114.17 601.48C115.18 600.45 116.45 599.06 117.96 598.92C124.146 598.32 129.756 598.906 134.79 600.68C136.69 601.35 139.19 599.1 140.51 597.79C140.643 597.658 140.736 597.491 140.777 597.309C140.818 597.126 140.805 596.935 140.74 596.76C138.613 590.993 137.583 584.936 137.65 578.59C137.68 576.47 139.16 575.45 140.49 574.12C140.641 573.969 140.827 573.857 141.033 573.794C141.239 573.731 141.457 573.72 141.67 573.76L146.51 574.69C146.856 574.756 147.05 574.963 147.09 575.31C147.883 582.356 147.12 589.36 144.8 596.32C144.68 596.666 144.75 596.97 145.01 597.23L148.87 601.07C148.954 601.154 149.064 601.21 149.184 601.23C149.304 601.25 149.428 601.232 149.54 601.18C157.206 597.526 164.576 596.683 171.65 598.65C172.016 598.75 172.186 598.986 172.16 599.36L171.63 607.14C171.61 607.513 171.413 607.73 171.04 607.79C163.58 608.9 156.72 607.39 149.63 605.05C149.216 604.916 148.86 605.003 148.56 605.31L145.11 608.84C144.81 609.146 144.743 609.496 144.91 609.89C147.33 615.563 148.453 621.77 148.28 628.51C148.23 630.47 146.6 631.76 145.02 632.46C144.713 632.593 144.403 632.603 144.09 632.49L139.95 631.01C139.623 630.89 139.426 630.66 139.36 630.32C137.966 623.42 138.59 616.786 141.23 610.42C141.35 610.128 141.375 609.806 141.301 609.498C141.228 609.189 141.06 608.91 140.82 608.7L137.09 605.42C136.783 605.146 136.443 605.103 136.07 605.29Z" fill="#EDBE38"/>
<path d="M137.68 598.4C130.63 595.39 125.18 589.53 119.88 583.8C118.53 582.33 118.66 580.31 118.55 578.45C118.524 577.97 118.727 577.833 119.16 578.04C121.474 579.153 123.474 580.496 125.16 582.07C128.34 585.036 131.6 588.25 134.94 591.71C136.84 593.676 138.03 595.86 138.51 598.26C138.52 598.302 138.518 598.346 138.506 598.388C138.493 598.43 138.47 598.468 138.438 598.499C138.406 598.53 138.367 598.552 138.324 598.565C138.28 598.577 138.234 598.579 138.19 598.57C138.017 598.53 137.847 598.473 137.68 598.4Z" fill="#EDBE38"/>
<path d="M164.64 578.72L167.28 580.05C167.873 580.35 167.94 580.744 167.48 581.23C161.37 587.62 156.07 593.55 150.11 598.18C149.637 598.554 149.25 598.477 148.95 597.95C148.71 597.517 148.383 597.157 147.97 596.87C147.483 596.524 147.423 596.117 147.79 595.65C152.67 589.457 157.693 583.904 162.86 578.99C163.393 578.484 163.987 578.394 164.64 578.72Z" fill="#EDBE38"/>
<path d="M320.65 595.74C323.77 599.34 323.95 603.38 319.36 606.17C319 606.39 318.637 606.396 318.27 606.19L313.01 603.31C312.677 603.136 312.54 602.863 312.6 602.49C313.027 599.73 313.997 597.343 315.51 595.33C315.73 595.036 315.72 594.75 315.48 594.47L311.18 589.43C311.116 589.357 311.083 589.262 311.087 589.166C311.091 589.069 311.131 588.978 311.2 588.91L315.94 584.18C316.48 583.64 317.047 583.606 317.64 584.08L322.07 587.6C322.294 587.779 322.438 588.038 322.47 588.32C322.723 590.74 322.113 592.846 320.64 594.64C320.333 595.013 320.337 595.38 320.65 595.74Z" fill="#EDBE38"/>
<path d="M595.9 621.5C595.788 621.393 595.699 621.264 595.637 621.122C595.575 620.98 595.542 620.827 595.539 620.672C595.536 620.516 595.564 620.362 595.621 620.218C595.678 620.074 595.762 619.942 595.87 619.83L603.51 611.89C604.849 610.499 606.221 609.166 607.548 607.968C608.876 606.77 610.132 605.73 611.244 604.908C612.357 604.085 613.305 603.497 614.034 603.177C614.762 602.857 615.257 602.81 615.49 603.04L615.63 603.18C616.107 603.638 615.491 605.19 613.92 607.497C612.348 609.803 609.949 612.675 607.25 615.48L599.61 623.42C599.502 623.532 599.374 623.622 599.232 623.684C599.089 623.746 598.936 623.779 598.781 623.782C598.626 623.784 598.472 623.757 598.328 623.7C598.183 623.643 598.052 623.558 597.94 623.45L595.9 621.5Z" fill="#EDBE38"/>
<path d="M642.71 622.59C642.636 622.669 642.547 622.731 642.449 622.775C642.35 622.819 642.244 622.843 642.136 622.846C642.029 622.849 641.921 622.83 641.821 622.791C641.72 622.753 641.628 622.695 641.55 622.62L635.41 616.79C632.217 613.76 629.333 610.667 627.392 608.191C625.451 605.716 624.612 604.061 625.06 603.59L625.17 603.47C625.391 603.236 625.921 603.3 626.731 603.658C627.54 604.016 628.613 604.662 629.888 605.558C631.163 606.454 632.616 607.584 634.162 608.881C635.708 610.179 637.318 611.619 638.9 613.12L645.03 618.95C645.108 619.025 645.171 619.113 645.215 619.212C645.259 619.31 645.283 619.416 645.286 619.524C645.288 619.632 645.27 619.739 645.231 619.84C645.192 619.94 645.134 620.032 645.06 620.11L642.71 622.59Z" fill="#EDBE38"/>
<path d="M149.77 607.78C154.51 610.28 157.8 614.73 161.83 618.18C164.064 620.093 166.304 622 168.55 623.9C168.592 623.935 168.626 623.978 168.65 624.027C168.673 624.076 168.686 624.13 168.687 624.184C168.688 624.239 168.677 624.294 168.655 624.345C168.633 624.396 168.601 624.442 168.56 624.48L164.95 627.76C164.71 627.98 164.467 627.987 164.22 627.78C158.5 623.14 153.84 616.96 148.93 611.47C148.264 610.737 147.924 609.887 147.91 608.92C147.908 608.7 147.962 608.483 148.068 608.291C148.175 608.098 148.329 607.937 148.516 607.822C148.704 607.707 148.918 607.643 149.138 607.635C149.358 607.628 149.576 607.678 149.77 607.78Z" fill="#EDBE38"/>
<path d="M540.01 680.01C539.899 680.086 539.817 680.198 539.777 680.326C539.737 680.455 539.742 680.594 539.79 680.72L545.45 695.85C545.52 696.034 545.525 696.237 545.463 696.425C545.401 696.613 545.276 696.773 545.11 696.88C541.183 699.38 537.16 701.436 533.04 703.05C532.813 703.136 532.657 703.066 532.57 702.84C530.63 697.86 528.68 692.8 527.1 687.64C522.413 672.46 517.213 656.486 511.5 639.72C509.787 634.706 508.387 629.37 507.3 623.71C507.261 623.509 507.275 623.302 507.342 623.109C507.409 622.915 507.525 622.743 507.68 622.61L523.68 608.51C523.92 608.303 524.143 608.32 524.35 608.56C534.783 620.386 545.013 632.256 555.04 644.17C559.18 649.08 562.93 654.33 567.18 659.05C571.82 664.196 576.363 669.493 580.81 674.94C581.11 675.306 581.08 675.64 580.72 675.94C575.48 680.253 569.173 683.596 561.8 685.97C561.367 686.116 561.01 686.006 560.73 685.64L552.1 674.57C551.992 674.433 551.845 674.335 551.677 674.288C551.51 674.241 551.333 674.249 551.17 674.31C547.297 675.716 543.577 677.616 540.01 680.01ZM535.52 667.41L543.56 662.99C543.72 662.896 543.74 662.78 543.62 662.64L527.96 644.53C527.387 643.863 527.157 643.963 527.27 644.83C528.003 650.35 530.647 657.843 535.2 667.31C535.273 667.456 535.38 667.49 535.52 667.41Z" fill="#EDBE38"/>
<path d="M138.32 609.65C135.11 616.54 129.27 621.88 124.28 627.42C122.92 628.926 121.61 628.89 120.35 627.31C120.17 627.083 120.017 626.84 119.89 626.58C119.037 624.78 119.37 623.233 120.89 621.94C125.097 618.373 129.433 614.516 133.9 610.37C135.05 609.3 136.19 608.92 137.71 608.79C138.41 608.723 138.613 609.01 138.32 609.65Z" fill="#EDBE38"/>
<path d="M216.81 671.89L206.24 690.23C205.816 690.968 205.119 691.509 204.299 691.735C203.478 691.962 202.602 691.856 201.86 691.44L186.68 682.93C186.513 682.837 186.476 682.703 186.57 682.53C197.456 663.45 208.123 644.22 218.57 624.84C219.516 623.08 221.41 621.887 224.25 621.26C229.73 620.053 235.206 618.843 240.68 617.63C242.57 617.21 246.73 616.56 248.47 617.45C256.69 621.61 261.9 632.48 261.22 641.3C260.46 651.2 257.09 659.31 251.11 665.63C250.876 665.876 250.567 666.038 250.23 666.09L217.53 671.39C217.21 671.443 216.97 671.61 216.81 671.89ZM239.89 629.79C234.67 637.79 230.37 646.37 225.58 654.71C225.433 654.97 225.506 655.09 225.8 655.07L234.71 654.46C235.07 654.433 235.373 654.287 235.62 654.02C241.946 647.053 243.506 638.993 240.3 629.84C240.286 629.799 240.26 629.764 240.227 629.737C240.193 629.709 240.153 629.692 240.11 629.687C240.068 629.682 240.024 629.689 239.985 629.707C239.946 629.725 239.913 629.754 239.89 629.79Z" fill="#EDBE38"/>
<path d="M466.17 688.18L459.11 691.27C458.946 691.34 458.811 691.467 458.731 691.628C458.65 691.789 458.629 691.974 458.67 692.15L466.74 725.46C466.777 725.622 466.752 725.791 466.668 725.934C466.584 726.078 466.449 726.183 466.29 726.23L448.37 731.39C447.983 731.504 447.707 731.377 447.54 731.01C446.87 729.53 446.15 728.03 445.75 726.44C439.39 700.88 433.037 674.82 426.69 648.26C426.303 646.64 426.917 645.644 428.53 645.27L445.68 641.33C445.787 641.306 445.9 641.325 445.993 641.383C446.087 641.441 446.154 641.533 446.18 641.64C448.08 648.69 450.07 655.49 451.64 662.48C452.633 666.887 453.87 671.217 455.35 675.47C455.375 675.541 455.413 675.606 455.463 675.661C455.513 675.717 455.574 675.762 455.641 675.794C455.708 675.825 455.781 675.843 455.854 675.846C455.928 675.849 456.001 675.837 456.07 675.81L463.13 673.14C463.517 672.994 463.663 672.717 463.57 672.31C460.94 661.23 457.63 649.78 456.36 638.38C456.348 638.292 456.371 638.202 456.423 638.13C456.475 638.057 456.552 638.007 456.64 637.99L474.97 634.2C475.31 634.127 475.523 634.26 475.61 634.6C480.75 654.9 485.6 674.71 490.16 694.03C492.053 702.064 493.77 710.093 495.31 718.12C495.363 718.4 495.253 718.59 494.98 718.69C488.83 720.79 482.58 723.11 476.1 723.15C475.773 723.15 475.56 722.993 475.46 722.68C473.76 717.093 472.527 712.24 471.76 708.12C470.28 700.187 468.67 693.654 466.93 688.52C466.797 688.134 466.543 688.02 466.17 688.18Z" fill="#EDBE38"/>
<path d="M294.99 691.35C294.73 691.01 294.537 691.043 294.41 691.45C291.637 700.443 289.17 709.543 287.01 718.75C286.67 720.217 285.99 721.943 284.97 723.93C284.803 724.263 284.537 724.39 284.17 724.31C277.97 722.99 271.907 721.02 265.98 718.4C265.647 718.254 265.527 718 265.62 717.64C271.227 696.394 276.677 675.503 281.97 654.97C282.63 652.4 283.93 650.7 286.39 649.42C292.637 646.18 298.853 643.223 305.04 640.55C306.367 639.983 307.707 640.053 309.06 640.76C313.77 643.22 318.15 646.33 322.09 649.9C330.28 657.3 329.32 670.19 325.98 680.13C324.18 685.45 319.15 685.62 314.7 687.26C314.227 687.433 314.103 687.743 314.33 688.19C316.47 692.417 318.037 696.187 319.03 699.5C320.303 703.733 320.24 708.39 318.84 713.47C317.167 719.537 315.51 725.547 313.87 731.5C313.777 731.833 313.557 731.983 313.21 731.95C306.83 731.35 300.41 728.75 294.27 727.26C293.903 727.167 293.733 726.933 293.76 726.56C293.893 725.053 294.173 723.544 294.6 722.03C297.37 712.32 301.76 700.17 294.99 691.35ZM308.11 661.77C307.05 659.517 305.74 657.287 304.18 655.08C303.993 654.82 303.82 654.827 303.66 655.1C302.767 656.64 302.173 658.007 301.88 659.2C300.52 664.74 298.857 671.093 296.89 678.26C296.57 679.427 297 679.883 298.18 679.63C300.04 679.237 301.897 678.843 303.75 678.45C304.34 678.325 304.887 678.048 305.337 677.646C305.786 677.244 306.122 676.732 306.31 676.16C307.67 672.06 308.373 667.737 308.42 663.19C308.427 662.697 308.32 662.211 308.11 661.77Z" fill="#EDBE38"/>
<path d="M370.84 720.52C369.487 726.04 368.627 731.11 368.26 735.73C368.233 736.07 368.057 736.266 367.73 736.32C363.183 737.126 358.69 737.14 354.25 736.36C354.099 736.332 353.964 736.251 353.872 736.13C353.779 736.01 353.736 735.86 353.75 735.71C354.05 732.25 354.54 728.97 355.22 725.87C359.367 707.123 363.8 686.626 368.52 664.38C369.233 660.993 370.1 657.69 371.12 654.47C371.24 654.096 371.49 653.856 371.87 653.75C379.06 651.75 386.16 649.19 393.61 649.88C393.923 649.906 394.11 650.076 394.17 650.39C398.563 675.35 403.057 701.356 407.65 728.41C408.057 730.783 408.44 733.336 408.8 736.07C408.81 736.139 408.806 736.21 408.788 736.278C408.77 736.346 408.739 736.41 408.696 736.466C408.653 736.522 408.6 736.569 408.538 736.604C408.477 736.639 408.41 736.661 408.34 736.67C401.693 737.47 394.953 737.393 388.12 736.44C387.773 736.393 387.56 736.203 387.48 735.87C386.553 731.923 385.733 728.056 385.02 724.27C384.793 723.063 384.323 721.823 383.61 720.55C383.423 720.216 383.137 720.05 382.75 720.05L371.52 719.99C371.16 719.983 370.933 720.16 370.84 720.52ZM372.48 705.88C372.468 705.938 372.47 705.998 372.484 706.056C372.498 706.114 372.524 706.168 372.561 706.215C372.598 706.262 372.645 706.3 372.699 706.326C372.752 706.353 372.81 706.368 372.87 706.37L382.32 706.55C382.38 706.55 382.44 706.538 382.495 706.513C382.55 706.488 382.599 706.452 382.638 706.406C382.677 706.36 382.706 706.306 382.722 706.248C382.737 706.19 382.74 706.129 382.73 706.07L378.48 681.44C378.467 681.343 378.421 681.253 378.348 681.188C378.275 681.122 378.181 681.085 378.084 681.083C377.986 681.08 377.89 681.113 377.815 681.175C377.739 681.236 377.688 681.323 377.67 681.42L372.48 705.88Z" fill="#EDBE38"/>
</g>
<defs>
<clipPath id="clip0_1035_12">
<rect width="760" height="763" fill="white"/>
</clipPath>
</defs>
</svg>
