<?xml version="1.0" encoding="UTF-8"?>
<svg id="Layer_1" data-name="Layer 1" xmlns="http://www.w3.org/2000/svg" version="1.1" viewBox="0 0 900 515">
  <defs>
    <style>
      .cls-1 {
        fill: #231f20;
      }

      .cls-1, .cls-2 {
        stroke-width: 0px;
      }

      .cls-2 {
        fill: #f9c815;
      }
    </style>
  </defs>
  <g>
    <g>
      <path class="cls-1" d="M24.54,459.28l-3.69,8.37h-4.02l14.85-33.11h3.93l14.8,33.11h-4.11l-3.69-8.37h-18.07ZM33.53,438.85l-7.38,16.79h14.85l-7.47-16.79Z"/>
      <path class="cls-1" d="M142.01,438.19v11.64h15.47v3.64h-15.47v14.19h-3.78v-33.11h21.05v3.64h-17.26Z"/>
      <path class="cls-1" d="M214.48,457.11c-.71.05-1.47.09-2.22.09h-8.8v10.45h-3.78v-33.11h12.58c8.28,0,13.05,4.07,13.05,11.11,0,5.48-2.65,9.18-7.43,10.74l7.76,11.26h-4.3l-6.86-10.55ZM212.26,453.56c6.01,0,9.41-2.65,9.41-7.8s-3.41-7.57-9.41-7.57h-8.8v15.37h8.8Z"/>
      <path class="cls-1" d="M272.48,438.19v10.88h16.7v3.64h-16.7v11.35h19.3v3.6h-23.08v-33.11h22.46v3.64h-18.68Z"/>
      <path class="cls-1" d="M338.09,438.19v10.88h16.7v3.64h-16.7v11.35h19.3v3.6h-23.08v-33.11h22.46v3.64h-18.68Z"/>
      <path class="cls-1" d="M414.73,457.11c-.71.05-1.47.09-2.22.09h-8.8v10.45h-3.78v-33.11h12.58c8.28,0,13.05,4.07,13.05,11.11,0,5.48-2.65,9.18-7.43,10.74l7.76,11.26h-4.3l-6.86-10.55ZM412.51,453.56c6.01,0,9.41-2.65,9.41-7.8s-3.41-7.57-9.41-7.57h-8.8v15.37h8.8Z"/>
      <path class="cls-1" d="M520.51,438.19v11.64h15.47v3.64h-15.47v14.19h-3.78v-33.11h21.05v3.64h-17.26Z"/>
      <path class="cls-1" d="M605.23,454.03c0,8.61-5.2,13.81-13.86,13.81s-13.95-5.2-13.95-13.81v-19.48h3.78v19.48c0,6.43,3.88,10.17,10.17,10.17s10.07-3.74,10.07-10.17v-19.48h3.78v19.48Z"/>
      <path class="cls-1" d="M659.41,438.19v29.46h-3.78v-29.46h-10.78v-3.64h25.4v3.64h-10.83Z"/>
      <path class="cls-1" d="M737.6,454.03c0,8.61-5.2,13.81-13.86,13.81s-13.95-5.2-13.95-13.81v-19.48h3.78v19.48c0,6.43,3.88,10.17,10.17,10.17s10.07-3.74,10.07-10.17v-19.48h3.78v19.48Z"/>
      <path class="cls-1" d="M796.5,457.11c-.71.05-1.47.09-2.22.09h-8.8v10.45h-3.78v-33.11h12.58c8.28,0,13.05,4.07,13.05,11.11,0,5.48-2.65,9.18-7.43,10.74l7.76,11.26h-4.3l-6.86-10.55ZM794.28,453.56c6.01,0,9.41-2.65,9.41-7.8s-3.41-7.57-9.41-7.57h-8.8v15.37h8.8Z"/>
      <path class="cls-1" d="M854.5,438.19v10.88h16.7v3.64h-16.7v11.35h19.3v3.6h-23.08v-33.11h22.46v3.64h-18.68Z"/>
    </g>
    <g>
      <path class="cls-1" d="M41.24,346.37c0-3.05-.13-6.48-1.02-9.15-.89-2.54-2.29-4.32-4.44-4.32-3.56.13-4.7,3.81-4.7,9.27,0,3.17,1.4,6.48,3.43,10.03,2.03,3.56,4.7,7.24,7.37,11.18,3.17,4.7,6.35,9.53,8.76,14.23,2.41,4.7,4.06,9.52,4.06,14.6,0,6.22-1.02,12.07-3.94,16.39s-7.62,7.11-15.11,7.11c-8.76,0-13.72-3.3-16.51-8.38-2.79-5.08-3.43-11.81-3.43-18.8l13.46-1.27c0,3.94.13,7.88,1.14,10.8.89,3.05,2.41,5.08,5.33,5.08,4.06,0,5.59-4.32,5.59-10.29,0-3.05-1.52-6.6-3.56-10.29-1.14-1.78-2.29-3.68-3.56-5.59-2.67-3.81-5.59-8.13-8.64-12.83-3.05-4.7-5.33-9.53-6.73-14.48-.76-2.41-1.14-4.95-1.14-7.49,0-5.08,1.14-10.54,4.06-14.73,2.92-4.06,7.37-6.99,13.84-7.11,8.26-.13,13.08,3.3,15.75,8.26,2.67,5.08,3.43,11.3,3.43,16.51l-13.46,1.27Z"/>
      <path class="cls-1" d="M61.31,335.45v-14.1h39.62v14.1h-12.95v79.25h-13.72v-79.25h-12.95Z"/>
      <path class="cls-1" d="M146.79,321.35v74.17c-.13,3.81-.89,7.24-2.29,10.16-1.14,2.54-2.92,4.95-5.46,6.86-2.54,2.03-5.97,3.17-10.54,3.17s-8.13-1.14-10.67-3.17c-2.54-1.9-4.19-4.32-5.33-6.86-1.4-2.92-2.16-6.35-2.29-10.16v-74.17h13.72v74.17c0,2.67.64,4.44,1.91,5.84.63.63,1.52,1.02,2.67,1.02,2.41,0,3.55-1.52,4.06-3.43.38-.89.51-2.03.51-3.43v-74.17h13.72Z"/>
      <path class="cls-1" d="M160.9,414.7v-93.35h10.8c12.7,0,19.56,2.54,23.24,9.65,3.56,7.11,4.06,18.8,4.06,37.08s-.51,29.85-4.06,36.96c-3.68,7.11-10.54,9.65-23.24,9.65h-10.8ZM174.61,400.98c4.7,0,7.37-.51,8.76-5.08.63-2.16,1.14-5.46,1.27-9.91.13-4.44.13-10.41.13-18.03s0-13.59-.13-18.04c-.13-4.32-.63-7.62-1.27-9.91-1.4-4.44-4.06-4.95-8.76-4.95v65.91Z"/>
      <path class="cls-1" d="M212.21,321.35h31.37v14.1h-17.65v24.51h12.7v14.99h-12.7v25.65h17.65v14.1h-31.37v-93.35Z"/>
      <path class="cls-1" d="M269.75,366.06l-1.14-4.32h-.76v52.96h-12.57v-93.35h12.19l13.34,48.64,1.14,4.32h.76v-52.96h12.57v93.35h-12.19l-13.34-48.64Z"/>
      <path class="cls-1" d="M304.69,335.45v-14.1h39.62v14.1h-12.95v79.25h-13.72v-79.25h-12.95Z"/>
      <path class="cls-1" d="M376.45,346.37c0-3.05-.13-6.48-1.02-9.15-.89-2.54-2.29-4.32-4.44-4.32-3.56.13-4.7,3.81-4.7,9.27,0,3.17,1.4,6.48,3.43,10.03,2.03,3.56,4.7,7.24,7.37,11.18,3.17,4.7,6.35,9.53,8.76,14.23,2.41,4.7,4.06,9.52,4.06,14.6,0,6.22-1.02,12.07-3.94,16.39-2.92,4.32-7.62,7.11-15.11,7.11-8.76,0-13.72-3.3-16.51-8.38-2.79-5.08-3.43-11.81-3.43-18.8l13.46-1.27c0,3.94.13,7.88,1.14,10.8.89,3.05,2.41,5.08,5.33,5.08,4.06,0,5.59-4.32,5.59-10.29,0-3.05-1.52-6.6-3.56-10.29-1.14-1.78-2.29-3.68-3.56-5.59-2.67-3.81-5.59-8.13-8.64-12.83-3.05-4.7-5.33-9.53-6.73-14.48-.76-2.41-1.14-4.95-1.14-7.49,0-5.08,1.14-10.54,4.06-14.73,2.92-4.06,7.37-6.99,13.84-7.11,8.26-.13,13.08,3.3,15.75,8.26,2.67,5.08,3.43,11.3,3.43,16.51l-13.46,1.27Z"/>
      <path class="cls-1" d="M457.62,335.45h-18.92v24.51h12.7v14.1h-12.7v40.64h-13.72v-93.35h32.64v14.1Z"/>
      <path class="cls-1" d="M502.97,395.53c-.13,3.81-.89,7.24-2.29,10.16-1.14,2.54-2.92,4.95-5.46,6.86-2.54,2.03-5.97,3.17-10.54,3.17s-8.13-1.14-10.67-3.17c-2.54-1.9-4.19-4.32-5.34-6.86-1.4-2.92-2.16-6.35-2.29-10.16v-54.99c.13-3.68.89-7.11,2.29-10.03,1.14-2.54,2.79-5.08,5.34-6.98,2.54-1.91,6.1-3.18,10.67-3.18s8,1.27,10.54,3.18c2.54,1.9,4.32,4.44,5.46,6.98,1.4,2.92,2.16,6.35,2.29,10.03v54.99ZM489.25,340.53c0-2.54-.51-4.32-1.78-5.84-.63-.63-1.65-1.02-2.79-1.02-2.41,0-3.56,1.78-4.06,3.43-.38,1.02-.51,2.16-.51,3.43v54.99c0,2.67.63,4.44,1.9,5.84.63.63,1.52,1.02,2.67,1.02,2.41,0,3.56-1.52,4.06-3.43.38-.89.51-2.03.51-3.43v-54.99Z"/>
      <path class="cls-1" d="M540.82,414.7l-7.11-39.37h-3.68v39.37h-13.72v-93.35h13.72c16.38,0,23.37,9.27,23.37,26.92,0,9.27-2.41,17.65-7.62,21.21l8.76,45.21h-13.72ZM530.03,362.63c1.9,0,4.45-.25,6.48-2.03,2.03-1.78,3.68-5.21,3.68-11.81s-1.65-10.16-3.68-11.94c-2.03-1.78-4.57-1.9-6.48-1.9v27.69Z"/>
      <path class="cls-1" d="M589.85,321.35h13.72v80.65h18.16v12.7h-31.88v-93.35Z"/>
      <path class="cls-1" d="M631.39,321.35h13.72v93.35h-13.72v-93.35Z"/>
      <path class="cls-1" d="M659.34,414.7v-93.35h12.07c8.13,0,14.48,1.52,18.67,5.46,4.19,3.94,6.35,10.03,6.35,19.3,0,4.44-.38,7.75-1.78,10.79-1.4,3.05-3.55,5.59-6.73,8.51,3.43,1.9,5.97,5.46,8,11.43,1.02,2.92,1.52,6.73,1.52,11.43,0,6.98-1.27,13.21-4.44,18.03-3.18,4.83-8.64,8-16.76,8.38h-16.89ZM673.05,359.84c1.14,0,3.81.13,6.1-1.4,2.29-1.52,4.06-4.57,4.06-11.05s-1.78-9.53-4.06-11.05c-2.29-1.52-4.95-1.4-6.1-1.4v24.89ZM673.05,401.11c1.14,0,3.81.25,6.1-1.4,2.29-1.65,4.06-5.33,4.06-12.95s-1.78-11.3-4.06-12.96c-2.29-1.65-4.95-1.4-6.1-1.4v28.7Z"/>
      <path class="cls-1" d="M709.64,321.35h31.37v14.1h-17.65v24.51h12.7v14.99h-12.7v25.65h17.65v14.1h-31.37v-93.35Z"/>
      <path class="cls-1" d="M777.21,414.7l-7.11-39.37h-3.68v39.37h-13.72v-93.35h13.72c16.38,0,23.37,9.27,23.37,26.92,0,9.27-2.41,17.65-7.62,21.21l8.76,45.21h-13.72ZM766.42,362.63c1.9,0,4.45-.25,6.48-2.03s3.68-5.21,3.68-11.81-1.65-10.16-3.68-11.94c-2.03-1.78-4.57-1.9-6.48-1.9v27.69Z"/>
      <path class="cls-1" d="M797.79,335.45v-14.1h39.62v14.1h-12.95v79.25h-13.72v-79.25h-12.95Z"/>
      <path class="cls-1" d="M862.96,351.2l.38.89h.25l.38-.89,6.86-29.84h13.46l-13.97,53.59v39.75h-13.72v-39.75l-13.97-53.59h13.46l6.86,29.84Z"/>
    </g>
  </g>
  <g>
    <polyline class="cls-1" points="426.45 269.48 417.65 246.21 477.63 246.21 470.05 268.11"/>
    <path class="cls-2" d="M416.19,272.31c-36.2-19.2-59.58-65.94-59.58-119.08s23.2-99.46,59.11-118.82l1.84,3.42c-34.13,18.4-57.06,64.78-57.06,115.4s23.12,97.4,57.52,115.64l-1.82,3.44Z"/>
    <path class="cls-2" d="M482.25,272.9l-1.75-3.47c35.45-17.8,59.16-64.58,59.01-116.41-.12-42.91-16.42-83.29-42.54-105.38l-1.74-1.52c-.92-.81-1.96-1.72-2.85-2.47l2.49-2.99c.92.77,1.98,1.7,2.93,2.53l1.69,1.47c26.97,22.81,43.79,64.32,43.92,108.34.14,53.27-24.43,101.45-61.15,119.89Z"/>
    <g>
      <path class="cls-2" d="M540.44,230.82c-14.19-8.52-32.81-14.84-53.85-18.27l.63-3.84c21.52,3.51,40.61,10,55.22,18.77l-2.01,3.34Z"/>
      <path class="cls-2" d="M358.66,231.36l-2.04-3.31c12.01-7.39,27.49-13.32,44.78-17.16l.83,3.8c-16.86,3.74-31.93,9.51-43.57,16.67Z"/>
      <path class="cls-2" d="M450,100.62c-35.77,0-69.47-7.91-92.46-21.71l2.01-3.34c22.39,13.45,55.36,21.16,90.45,21.16s68.92-7.91,91.33-21.7l2.04,3.31c-23.01,14.16-57.05,22.28-93.38,22.28Z"/>
      <rect class="cls-2" x="331.05" y="151.24" width="237.9" height="3.89"/>
      <path class="cls-1" d="M450,272.14"/>
    </g>
    <path class="cls-2" d="M432.04,40.39c-54.24,8.81-95.69,55.8-95.77,112.55-.09,63.08,50.97,114.29,114.05,114.39,63.08.09,114.29-50.97,114.39-114.05.07-49.74-30.04-91.57-74.27-107.27,0,0-4.72-12.7-14.79-20.05,54.91,9.26,104.1,61.85,104,127.51-.1,71.6-58.23,129.56-129.84,129.46-71.6-.1-129.56-58.23-129.46-129.84.1-65.33,48.51-119.27,111.38-128.14,0,0,2.13,6.49.3,15.45Z"/>
    <path class="cls-1" d="M504.68,116.8c.26,3.18.81,6.39.81,9.69,0,32.05-25.98,58.04-58.04,58.04s-58.04-25.98-58.04-58.04c0-12.02,3.65-23.19,9.91-32.45,0,0,9.19-14.8,16.14-21.57,0,0,5.69-6.16,13.27-20.85,0,0,6.87,15.88,3.32,35.31,0,0,20.38-12.8,15.4-68.48,0,0,60.18,27.01,36.49,104.73,0,0,14.22-3.32,15.64-27.96,0,0,4.3,11.9,5.1,21.58Z"/>
    <g>
      <path class="cls-1" d="M414.44,214.6c-4.65,0-8.41-3.83-8.41-8.55s3.76-8.55,8.41-8.55h82.5c.89-3.59,1.99-6.15,1.99-6.15h-93.06c-5.11,0-9.26,6.53-9.26,14.7s4.14,14.7,9.26,14.7h93.06s-1.03-2.58-1.91-6.15h-82.58Z"/>
      <path class="cls-1" d="M490.73,218.66c-4.49-4.09-6.68-8.52-6.5-13.17.28-7.28,6.4-12.11,6.66-12.32l3.31,4.24s-4.43,3.56-4.6,8.31c-.1,2.98,1.5,5.99,4.75,8.96l-3.63,3.98Z"/>
    </g>
    <g>
      <path class="cls-1" d="M421.41,235.33c-3.68,0-6.65-3.03-6.65-6.77s2.98-6.77,6.65-6.77h65.24c.7-2.84,1.57-4.86,1.57-4.86h-73.6c-4.05,0-7.32,5.16-7.32,11.63s3.27,11.63,7.32,11.63h73.6s-.82-2.04-1.51-4.86h-65.31Z"/>
      <path class="cls-1" d="M481.74,238.54c-3.56-3.24-5.29-6.74-5.14-10.42.22-5.76,5.07-9.58,5.27-9.74l2.61,3.35s-3.5,2.81-3.64,6.58c-.08,2.36,1.18,4.74,3.75,7.08l-2.86,3.15Z"/>
    </g>
  </g>
</svg>