<svg width="177" height="163" viewBox="0 0 177 163" fill="none" xmlns="http://www.w3.org/2000/svg">
<path d="M54.0729 46.2917C58.1771 51.0729 61.1562 56.599 61.1562 59.3594C61.1562 61 60.4844 61.599 57.1302 63.0938C51.4635 65.5573 44.901 67.1979 40.276 67.1979H36.3229L36.7708 64.2135C37.5885 58.0885 47.6562 40.5417 49.6719 41.6615C50.1198 41.9635 52.1354 44.0521 54.0729 46.2917Z" fill="#F2B963"/>
<path d="M78.5365 42.5573C80.474 43.6042 82.0417 44.875 82.0417 45.3229C82.0417 47.0417 73.5365 54.5781 68.1667 57.7188C67.6458 58.0156 66.3802 56.375 65.0365 53.5365C63.7708 50.9948 60.7083 46.4427 58.1771 43.3802C55.7135 40.3177 53.6979 37.6302 53.6979 37.3333C53.6979 36.5833 55.8646 34.3438 59.5156 31.2083L62.724 28.5208L68.8385 34.6458C72.1979 38.0052 76.5208 41.5156 78.5365 42.5573Z" fill="#F2B963"/>
<path d="M96.9583 20.0833C96.9583 22.099 95.8385 25.2344 93.2292 30.3906C88.3073 40.0938 87.8594 40.6198 85.25 39.9479C82.1927 39.1979 73.5365 33.224 71.3021 30.3125C68.2448 26.2813 68.6927 25.0104 74.0625 22.5469C81.8177 18.8906 87.0365 17.4688 93.4531 17.2448L96.9583 17.1719V20.0833Z" fill="#F2B963"/>
<path d="M111.052 17.6198C111.276 17.7708 110.828 20.4583 110.083 23.5938C109.339 26.7292 108.146 32.8542 107.474 37.2552L106.281 45.1719L103.672 44.9479C100.76 44.724 93.2292 42.7083 93.2292 42.1875C93.2292 42.0365 94.8698 38.75 96.8854 34.9427C100.24 28.5208 102.031 23.8177 103.297 18.3646C103.745 16.349 103.818 16.276 107.25 16.7969C109.188 17.099 110.906 17.4688 111.052 17.6198Z" fill="#F2B963"/>
<path d="M124.552 20.1562C127.536 21.3542 127.911 21.7292 128.057 23.9688C128.208 25.3854 126.865 30.5365 125.073 35.8385L121.943 45.1719L116.948 45.3958C112.917 45.5469 111.875 45.3958 111.875 44.5C111.875 42.1094 115.005 25.4583 116.125 21.875C117.469 17.4688 117.542 17.4688 124.552 20.1562Z" fill="#F2B963"/>
<path d="M139.542 27.401C144.094 30.4635 147.448 33.224 149.089 35.3177C149.984 36.4375 149.536 36.8073 144.615 39.1979C139.396 41.6615 129.401 44.651 128.656 43.9792C128.432 43.6771 129.401 40.1719 133.953 25.5365C134.323 24.1927 134.995 24.4167 139.542 27.401Z" fill="#F2B963"/>
<path d="M160.052 48.1615C161.099 50.1771 161.25 51.0729 160.651 52.0417C158.042 56.151 116.349 72.9479 116.349 69.8125C116.349 69.3646 118.365 64.7344 120.75 59.5833L125.224 50.25L130.667 48.9062C137.604 47.2656 147.302 43.9792 151.104 41.9635L154.016 40.3958L156.323 42.9323C157.594 44.349 159.234 46.6667 160.052 48.1615Z" fill="#F2B963"/>
<path d="M118.589 51.5938C118.589 52.5625 112.099 65.7813 111.052 66.8281C110.682 67.1979 110.38 64.5885 110.38 59.6562C110.38 55.3281 110.604 51.5208 110.906 51.2969C111.724 50.401 118.589 50.6979 118.589 51.5938Z" fill="#F2B963"/>
<path d="M98.0781 49.1302L104.042 50.474V74.2917L96.5104 76.2344C89.0521 78.1771 71.8229 81.0885 71.2292 80.5677C71.0781 80.4167 70.8542 76.2344 70.7812 71.3802C70.6302 63.5417 70.7031 62.4948 71.8958 61.8229C74.1354 60.5521 82.7135 53.0885 85.6198 49.875C87.7865 47.4115 88.6771 46.9635 90.1719 47.3385C91.2135 47.6354 94.7969 48.4583 98.0781 49.1302Z" fill="#F2B963"/>
<path d="M63.0208 73.3229C63.0208 77.1302 62.724 80.6406 62.5 81.0885C61.8281 82.1354 42.4375 84 35.4271 83.7031C34.0104 83.625 33.8594 83.1771 33.9375 78.625V73.6979L42.2865 72.276C46.8385 71.5313 53.3281 69.8854 56.7552 68.6927C60.1875 67.5729 63.0208 66.526 63.0208 66.526V73.3229Z" fill="#F2B963"/>
<path d="M60.4115 90.0469C59.2188 95.4219 58.099 97.2188 56.3854 96.6927C55.4896 96.3958 50.1198 96.0208 44.3021 95.7969L33.8594 95.4219L33.7135 92.5885L33.4896 89.8229L43.0365 88.9271C48.2552 88.4792 53.625 87.9583 54.8177 87.8073C61.1563 87.1354 61.0833 87.1354 60.4115 90.0469Z" fill="#F2B963"/>
<path d="M52.0573 101.323C53.3281 101.547 54.4479 101.922 54.4479 102.219C54.4479 103.786 42.7344 120.885 41.6927 120.958C40.276 120.958 34.8281 106.104 35.2031 103.115C35.4271 101.474 35.875 101.099 38.4115 100.724C41.3177 100.203 47.2865 100.5 52.0573 101.323Z" fill="#F2B963"/>
<path d="M66.974 105.953C71.6719 108.344 77.5677 113.417 77.5677 114.99C77.5677 116.703 65.6354 132.682 60.9323 137.24L57.651 140.526L55.0417 138.208C50.9427 134.625 46.2396 128.13 46.2396 126.115C46.2396 124.995 48.4062 121.182 51.3125 117.005C54.0729 113.047 57.2031 108.344 58.3229 106.474C60.5625 102.667 60.6354 102.667 66.974 105.953Z" fill="#F2B963"/>
<path d="M86.2917 122.979C91.1406 130.068 93.2292 134.026 93.1562 136.344C93.1562 138.208 92.5573 138.807 88.8281 140.599C86.5156 141.792 82.2656 144.557 79.5052 146.797L74.4323 150.828L70.0312 148.516C67.6458 147.245 65.1094 145.526 64.4375 144.781C63.1719 143.359 63.1719 143.214 64.5885 141.495C65.3333 140.526 69.7344 135 74.2083 129.25C78.7604 123.427 82.6354 118.719 82.8594 118.719C83.0833 118.719 84.651 120.661 86.2917 122.979Z" fill="#F2B963"/>
<path d="M98.8229 149.036C100.76 156.505 100.839 156.354 94.1979 155.833C88.5313 155.38 81.2969 153.443 81.2969 152.396C81.2969 151.427 88.3802 146.422 92.4844 144.557C97.1823 142.391 97.0313 142.318 98.8229 149.036Z" fill="#F2B963"/>
<path d="M112.995 147.844C112.995 155.906 112.917 156.057 108.073 156.057C106.208 156.057 106.057 155.682 104.417 148.964C103.448 145.005 102.849 141.646 103.073 141.495C103.745 140.823 109.859 139.927 111.5 140.224C112.917 140.448 112.995 141.047 112.995 147.844Z" fill="#F2B963"/>
<path d="M129.026 143.807C135.146 146.495 135.667 147.318 132.609 149.188C130 150.755 121.646 153.812 119.781 153.812C118.958 153.812 118.734 152.62 118.734 148.74C118.734 141.422 118.958 140.896 122.016 141.344C123.359 141.568 126.568 142.688 129.026 143.807Z" fill="#F2B963"/>
<path d="M109.266 87.1354C110.755 92.2135 115.901 102.964 119.255 107.745C122.094 111.927 122.167 113.417 119.406 120.365C118.214 123.349 116.646 127.906 115.974 130.37L114.708 134.922L108.667 135.37C105.313 135.594 102.031 135.969 101.359 136.193C100.536 136.568 99.7917 135.672 98.375 132.76C97.4062 130.594 94.6458 125.891 92.3333 122.229C89.9479 118.646 88.0052 114.911 88.0052 113.87C88.0052 112.823 90.3958 108.641 93.6771 104.01C96.7344 99.6042 101.135 93.0365 103.448 89.375C105.682 85.7917 107.625 82.8802 107.771 82.8802C107.922 82.8802 108.594 84.8229 109.266 87.1354Z" fill="#F2B963"/>
<path d="M170.047 89.4531C170.047 103.115 168.927 108.568 164.005 118.349C160.875 124.469 155.578 132.161 154.458 132.161C153.417 132.161 139.469 121.484 135.219 117.453C132.385 114.839 131.266 113.193 131.266 111.849C131.266 107.672 142.229 94.526 151.625 87.3594C155.432 84.5208 167.958 77.7292 169.526 77.651C169.823 77.651 170.047 82.9531 170.047 89.4531Z" fill="#F2B963"/>
<path d="M142.974 130.516C146.333 133.057 149.313 135.521 149.536 135.969C150.135 136.937 147.75 139.63 143.87 142.318L141.036 144.255L134.474 140.896C130.891 139.031 126.495 137.089 124.776 136.568C121.719 135.672 121.568 135.521 121.568 132.833C121.568 130.219 124.031 122.531 126.047 118.719C126.792 117.302 127.089 117.375 131.865 121.557C134.62 123.948 139.62 127.979 142.974 130.516Z" fill="#F2B963"/>
<path d="M93.6771 94.6771C89.4271 101.099 85.099 107.37 84.0573 108.568L82.2656 110.729L78.1615 107.37C75.9271 105.505 71.974 102.891 69.4375 101.474C64.2135 98.5625 63.9948 97.8906 66.4531 91.0208L68.0208 86.6875L73.3906 85.8646C76.2969 85.3438 83.7552 84.0729 89.8698 82.9531C99.0469 81.2396 101.135 81.0885 101.281 81.9115C101.432 82.5052 98 88.2552 93.6771 94.6771Z" fill="#F2B963"/>
<path d="M166.62 61C167.286 62.9427 167.812 66.2292 167.812 68.3177V72.1302L164.307 73.8438C156.026 77.8021 145.734 85.4167 138.203 93.1094C134.026 97.3646 129.698 102.37 128.505 104.161C127.385 106.026 126.193 107.521 125.896 107.521C125.151 107.521 120.526 99.6042 117.396 93.0365C115.156 88.2552 114.635 86.3125 114.557 82.3594L114.484 77.5052L125.297 73.6198C139.542 68.3958 149.615 64.2865 157.297 60.5521C160.802 58.8385 164.005 57.4948 164.531 57.4948C165.052 57.4948 165.948 59.0625 166.62 61Z" fill="#F2B963"/>
</svg>
