<svg width="419" height="105" viewBox="0 0 419 105" fill="none" xmlns="http://www.w3.org/2000/svg">
<g clip-path="url(#clip0_1040_12)">
<mask id="mask0_1040_12" style="mask-type:luminance" maskUnits="userSpaceOnUse" x="0" y="0" width="185" height="105">
<path d="M184.21 0H0V105H184.21V0Z" fill="white"/>
</mask>
<g mask="url(#mask0_1040_12)">
<path d="M184.19 104.87C171.89 74.0995 159.26 42.3395 146.99 11.5495C145.94 8.92954 144.94 7.01954 143.97 5.79953C137.83 -1.83047 126.22 -1.99046 119.97 5.62953C118.92 6.90953 117.72 9.17954 116.39 12.4295C107.6 33.8195 98.8199 55.2195 90.0399 76.6195C87.4499 70.3095 58.8499 0.659538 58.8499 0.659538C58.7899 0.499538 58.6699 0.419538 58.4899 0.419538H37.9699C37.7899 0.419538 37.7199 0.509538 37.7999 0.679538C48.6999 27.2695 59.6299 53.8695 70.5499 80.4595C70.0299 81.7495 69.5099 83.0295 68.9699 84.3095C67.0099 89.0095 60.9899 90.6095 57.3499 87.1495C56.5099 86.3495 55.5899 84.7295 54.5899 82.2795C47.1499 64.1495 21.0799 0.659538 21.0799 0.659538C21.0199 0.499538 20.8999 0.419538 20.7199 0.419538H0.199932C0.0199323 0.419538 -0.0400677 0.509538 0.0299323 0.689538C12.5399 31.1795 25.0499 61.6695 37.5799 92.1495C38.9099 95.3895 40.1099 97.6595 41.1599 98.9495C47.4199 106.57 59.0299 106.42 65.1599 98.7795C66.1299 97.5795 67.1299 95.6595 68.1799 93.0295C69.4199 89.9295 70.6599 86.8195 71.8899 83.7195C73.0499 86.5295 74.1899 89.3395 75.3499 92.1395C76.6799 95.3795 77.8799 97.6495 78.9299 98.9395C85.1899 106.56 96.7999 106.41 102.94 98.7695C103.91 97.5695 104.91 95.6495 105.96 93.0195C107.39 89.4295 108.83 85.8395 110.25 82.2495C111.7 85.8795 113.15 89.5295 114.61 93.1795C115.66 95.7795 116.59 97.6395 117.43 98.7495C123.54 106.9 135.44 107.06 141.85 99.1995C142.81 98.0295 143.77 96.2695 144.73 93.9295C149.45 82.5295 154.13 71.1295 158.79 59.7195L176.38 104.97H184.22C184.22 104.97 184.22 104.89 184.2 104.84L184.19 104.87ZM129.14 80.6295C127.82 83.8295 126.99 85.6695 126.62 86.1895C123.24 90.9195 116.02 89.8195 113.79 84.4495C113.01 82.5795 112.28 80.7495 111.56 78.9595C117.06 65.1695 125.61 43.7495 131.05 30.1095C132.73 25.9095 134.4 21.7195 136.07 17.5195C137.51 13.8995 140.28 14.2295 141.62 15.5995C142.96 16.9695 148.53 33.3595 148.53 33.3595C142.08 49.1195 135.61 64.8695 129.14 80.6195V80.6295Z" fill="#EDBE38"/>
<path d="M131.05 30.1193C133.7 23.4993 135.6 18.7193 136.07 17.5293C134.39 21.7293 132.72 25.9193 131.05 30.1193Z" fill="#EDBE38"/>
<path d="M90.0799 28.8996C97.9099 28.8996 104.26 22.5096 104.26 14.6296C104.26 6.74961 97.9099 0.349609 90.0799 0.349609C82.2499 0.349609 75.8999 6.73961 75.8999 14.6196C75.8999 22.4996 82.2499 28.8896 90.0799 28.8896V28.8996Z" fill="url(#paint0_linear_1040_12)"/>
</g>
<mask id="mask1_1040_12" style="mask-type:luminance" maskUnits="userSpaceOnUse" x="217" y="19" width="202" height="65">
<path d="M418.75 19H217V83.44H418.75V19Z" fill="white"/>
</mask>
<g mask="url(#mask1_1040_12)">
<path d="M240.86 43.19L234.24 19H237.22L242.28 38.7H242.52L247.66 19H250.97L256.12 38.7H256.36L261.41 19H264.39L257.77 43.19H254.75L249.41 23.91H249.22L243.88 43.19H240.86Z" fill="#EDBE38"/>
<path d="M274.68 43.19V19H289.28V21.6H277.61V29.77H288.53V32.37H277.61V40.59H289.47V43.19H274.68Z" fill="#EDBE38"/>
<path d="M302.22 43.19H299.15L308.03 19H311.05L319.93 43.19H316.86L309.63 22.82H309.44L302.21 43.19H302.22ZM303.35 33.74H315.73V36.34H303.35V33.74Z" fill="#EDBE38"/>
<path d="M330.37 43.19V19H333.3V40.59H344.55V43.19H330.38H330.37Z" fill="#EDBE38"/>
<path d="M351.2 21.6V19H369.34V21.6H361.73V43.19H358.8V21.6H351.19H351.2Z" fill="#EDBE38"/>
<path d="M380.53 43.19V19H383.46V29.77H396.36V19H399.29V43.19H396.36V32.37H383.46V43.19H380.53Z" fill="#EDBE38"/>
<path d="M220.07 83.1099H217L225.88 58.9199H228.9L237.78 83.1099H234.71L227.48 62.7399H227.29L220.06 83.1099H220.07ZM221.2 73.6599H233.58V76.2599H221.21V73.6599H221.2Z" fill="#EDBE38"/>
<path d="M266.56 66.4803H263.63C263.46 65.6403 263.16 64.9003 262.73 64.2603C262.3 63.6203 261.78 63.0803 261.17 62.6503C260.56 62.2103 259.88 61.8803 259.14 61.6603C258.4 61.4403 257.63 61.3303 256.82 61.3303C255.36 61.3303 254.03 61.7003 252.85 62.4403C251.66 63.1803 250.72 64.2703 250.03 65.7103C249.33 67.1503 248.98 68.9203 248.98 71.0103C248.98 73.1003 249.33 74.8703 250.03 76.3103C250.73 77.7503 251.67 78.8403 252.85 79.5803C254.03 80.3203 255.36 80.6903 256.82 80.6903C257.62 80.6903 258.4 80.5803 259.14 80.3603C259.88 80.1403 260.56 79.8103 261.17 79.3703C261.78 78.9303 262.3 78.3903 262.73 77.7503C263.16 77.1103 263.46 76.3703 263.63 75.5403H266.56C266.34 76.7803 265.94 77.8803 265.36 78.8603C264.78 79.8403 264.05 80.6703 263.19 81.3503C262.32 82.0303 261.35 82.5503 260.28 82.9003C259.21 83.2503 258.06 83.4303 256.84 83.4303C254.78 83.4303 252.94 82.9303 251.34 81.9203C249.73 80.9103 248.47 79.4803 247.55 77.6203C246.63 75.7603 246.17 73.5603 246.17 71.0003C246.17 68.4403 246.63 66.2403 247.55 64.3803C248.47 62.5203 249.74 61.0903 251.34 60.0803C252.95 59.0703 254.78 58.5703 256.84 58.5703C258.06 58.5703 259.21 58.7503 260.28 59.1003C261.35 59.4503 262.33 59.9703 263.19 60.6503C264.06 61.3303 264.78 62.1603 265.36 63.1303C265.94 64.1003 266.34 65.2103 266.56 66.4603V66.4803Z" fill="#EDBE38"/>
<path d="M278.93 83.1099H275.86L284.74 58.9199H287.76L296.64 83.1099H293.57L286.34 62.7399H286.15L278.92 83.1099H278.93ZM280.06 73.6599H292.44V76.2599H280.06V73.6599Z" fill="#EDBE38"/>
<path d="M314.54 83.1099H307.07V58.9199H314.87C317.22 58.9199 319.23 59.3999 320.89 60.3699C322.56 61.3299 323.84 62.7199 324.73 64.5199C325.62 66.3199 326.06 68.4699 326.06 70.9799C326.06 73.4899 325.61 75.6699 324.71 77.4799C323.81 79.2999 322.5 80.6899 320.79 81.6599C319.07 82.6299 316.99 83.1199 314.53 83.1199L314.54 83.1099ZM310 80.5099H314.35C316.35 80.5099 318.01 80.1199 319.32 79.3499C320.63 78.5799 321.61 77.4799 322.26 76.0499C322.91 74.6199 323.23 72.9299 323.23 70.9599C323.23 68.9899 322.91 67.3199 322.27 65.9099C321.63 64.4999 320.68 63.4099 319.41 62.6499C318.14 61.8899 316.56 61.5099 314.67 61.5099H309.99V80.5099H310Z" fill="#EDBE38"/>
<path d="M337.64 83.1099V58.9199H352.24V61.5199H340.57V69.6899H351.49V72.2899H340.57V80.5099H352.43V83.1099H337.64Z" fill="#EDBE38"/>
<path d="M364.19 58.9199H367.69L375.91 78.9999H376.19L384.41 58.9199H387.91V83.1099H385.17V64.7299H384.93L377.37 83.1099H374.72L367.16 64.7299H366.92V83.1099H364.18V58.9199H364.19Z" fill="#EDBE38"/>
<path d="M398.34 58.9199H401.69L408.4 70.2099H408.68L415.39 58.9199H418.74L410 73.1399V83.1099H407.07V73.1399L398.33 58.9199H398.34Z" fill="#EDBE38"/>
</g>
</g>
<defs>
<linearGradient id="paint0_linear_1040_12" x1="75.8899" y1="14.6196" x2="104.26" y2="14.6196" gradientUnits="userSpaceOnUse">
<stop stop-color="#EDBE38"/>
<stop offset="1" stop-color="#EAC29E" stop-opacity="0"/>
</linearGradient>
<clipPath id="clip0_1040_12">
<rect width="419" height="105" fill="white"/>
</clipPath>
</defs>
</svg>
